<?xml version="1.0" encoding="UTF-8" standalone="no"?>
<svg
   xmlns:dc="http://purl.org/dc/elements/1.1/"
   xmlns:cc="http://creativecommons.org/ns#"
   xmlns:rdf="http://www.w3.org/1999/02/22-rdf-syntax-ns#"
   xmlns:svg="http://www.w3.org/2000/svg"
   xmlns="http://www.w3.org/2000/svg"
   xmlns:sodipodi="http://sodipodi.sourceforge.net/DTD/sodipodi-0.dtd"
   xmlns:inkscape="http://www.inkscape.org/namespaces/inkscape"
   width="20in"
   height="12in"
   version="1.1"
   id="svg321"
   sodipodi:docname="drone-plate.svg"
   inkscape:version="0.92.4 (5da689c313, 2019-01-14)">
  <metadata
     id="metadata325">
    <rdf:RDF>
      <cc:Work
         rdf:about="">
        <dc:format>image/svg+xml</dc:format>
        <dc:type
           rdf:resource="http://purl.org/dc/dcmitype/StillImage" />
        <dc:title></dc:title>
      </cc:Work>
    </rdf:RDF>
  </metadata>
  <sodipodi:namedview
     pagecolor="#ffffff"
     bordercolor="#666666"
     borderopacity="1"
     objecttolerance="10"
     gridtolerance="10"
     guidetolerance="10"
     inkscape:pageopacity="0"
     inkscape:pageshadow="2"
     inkscape:window-width="1920"
     inkscape:window-height="986"
     id="namedview323"
     showgrid="false"
     units="in"
     inkscape:zoom="0.96127043"
     inkscape:cx="637.42909"
     inkscape:cy="514.67603"
     inkscape:window-x="-11"
     inkscape:window-y="-11"
     inkscape:window-maximized="1"
     inkscape:current-layer="g233" />
  <desc
     id="desc10">C:\Users\chase\Desktop\Drone_Project\drone-plate.dxf - scale = 25.400000, origin = (0.000000, 0.000000), method = file</desc>
  <defs
     id="defs25">
    <marker
       id="DistanceX"
       orient="auto"
       refX="0"
       refY="0"
       style="overflow:visible">
      <path
         d="M 3,-3 -3,3 M 0,-5 V 5"
         style="stroke:#000000;stroke-width:0.5"
         id="path12"
         inkscape:connector-curvature="0" />
    </marker>
    <pattern
       height="8"
       id="Hatch"
       patternUnits="userSpaceOnUse"
       width="8"
       x="0"
       y="0">
      <path
         d="M8 4 l-4,4"
         linecap="square"
         stroke="#000000"
         stroke-width="0.25"
         id="path15" />
      <path
         d="M6 2 l-4,4"
         linecap="square"
         stroke="#000000"
         stroke-width="0.25"
         id="path17" />
      <path
         d="M4 0 l-4,4"
         linecap="square"
         stroke="#000000"
         stroke-width="0.25"
         id="path19" />
    </pattern>
    <symbol
       id="*Model_Space" />
    <symbol
       id="*Paper_Space" />
    <symbol
       id="_FILLED" />
  </defs>
  <g
     inkscape:groupmode="layer"
     inkscape:label="0"
     id="g233"
     transform="translate(0,29.480347)">
    <path
       d="m 636.83283,182.55908 -40.72832,40.73037"
       style="fill:none;stroke:#00ffff;stroke-linecap:round"
       id="path41"
       inkscape:connector-curvature="0" />
    <path
       d="m 596.10741,856.04711 40.73038,40.72832"
       style="fill:none;stroke:#00ffff;stroke-linecap:round"
       id="path43"
       inkscape:connector-curvature="0" />
    <path
       d="m 674.13571,301.31672 40.72832,-40.73037"
       style="fill:none;stroke:#00ffff;stroke-linecap:round"
       id="path45"
       inkscape:connector-curvature="0" />
    <path
       d="M 714.86506,818.74423 674.13468,778.01591"
       style="fill:none;stroke:#00ffff;stroke-linecap:round"
       id="path47"
       inkscape:connector-curvature="0" />
    <path
       d="M 1133.5674,827.6658 H 772.86089"
       style="fill:none;stroke:#ff0000;stroke-linecap:round"
       id="path49"
       inkscape:connector-curvature="0" />
    <path
       d="m 1087.6142,779.6658 h -24"
       style="fill:none;stroke:#00ffff;stroke-linecap:round"
       id="path51"
       inkscape:connector-curvature="0" />
    <path
       d="m 842.81414,779.6658 h -24"
       style="fill:none;stroke:#00ffff;stroke-linecap:round"
       id="path53"
       inkscape:connector-curvature="0" />
    <path
       d="m 857.21414,758.0658 h 24"
       style="fill:none;stroke:#00ffff;stroke-linecap:round"
       id="path55"
       inkscape:connector-curvature="0" />
    <path
       d="m 1025.2142,758.0658 h 24"
       style="fill:none;stroke:#00ffff;stroke-linecap:round"
       id="path57"
       inkscape:connector-curvature="0" />
    <path
       d="M 1001.2142,731.6658 H 905.21416"
       style="fill:none;stroke:#00ffff;stroke-linecap:round"
       id="path59"
       inkscape:connector-curvature="0" />
    <path
       d="m 1049.2142,729.2658 h -24"
       style="fill:none;stroke:#00ffff;stroke-linecap:round"
       id="path61"
       inkscape:connector-curvature="0" />
    <path
       d="m 881.21414,729.2658 h -24"
       style="fill:none;stroke:#00ffff;stroke-linecap:round"
       id="path63"
       inkscape:connector-curvature="0" />
    <path
       d="m 905.21416,707.6658 h 96.00004"
       style="fill:none;stroke:#00ffff;stroke-linecap:round"
       id="path65"
       inkscape:connector-curvature="0" />
    <path
       d="m 809.21414,503.31256 v 72.70649"
       style="fill:none;stroke:#ff0000;stroke-linecap:round"
       id="path67"
       inkscape:connector-curvature="0" />
    <path
       d="m 818.81414,779.6658 v -96"
       style="fill:none;stroke:#00ffff;stroke-linecap:round"
       id="path69"
       inkscape:connector-curvature="0" />
    <path
       d="m 818.81414,395.6658 v -96"
       style="fill:none;stroke:#00ffff;stroke-linecap:round"
       id="path71"
       inkscape:connector-curvature="0" />
    <path
       d="m 826.01414,443.6658 v 48"
       style="fill:none;stroke:#00ffff;stroke-linecap:round"
       id="path73"
       inkscape:connector-curvature="0" />
    <path
       d="m 826.01414,587.6658 v 48"
       style="fill:none;stroke:#00ffff;stroke-linecap:round"
       id="path75"
       inkscape:connector-curvature="0" />
    <path
       d="m 842.81414,299.6658 v 96"
       style="fill:none;stroke:#00ffff;stroke-linecap:round"
       id="path77"
       inkscape:connector-curvature="0" />
    <path
       d="m 842.81414,683.6658 v 96"
       style="fill:none;stroke:#00ffff;stroke-linecap:round"
       id="path79"
       inkscape:connector-curvature="0" />
    <path
       d="m 850.01414,635.6658 v -48"
       style="fill:none;stroke:#00ffff;stroke-linecap:round"
       id="path81"
       inkscape:connector-curvature="0" />
    <path
       d="m 850.01414,491.6658 v -48"
       style="fill:none;stroke:#00ffff;stroke-linecap:round"
       id="path83"
       inkscape:connector-curvature="0" />
    <path
       d="m 857.21414,729.2658 v 28.8"
       style="fill:none;stroke:#00ffff;stroke-linecap:round"
       id="path85"
       inkscape:connector-curvature="0" />
    <path
       d="m 818.81414,683.6658 h 24"
       style="fill:none;stroke:#00ffff;stroke-linecap:round"
       id="path87"
       inkscape:connector-curvature="0" />
    <path
       d="m 1063.6142,683.6658 h 24"
       style="fill:none;stroke:#00ffff;stroke-linecap:round"
       id="path89"
       inkscape:connector-curvature="0" />
    <path
       d="m 826.01414,635.6658 h 24"
       style="fill:none;stroke:#00ffff;stroke-linecap:round"
       id="path91"
       inkscape:connector-curvature="0" />
    <path
       d="m 1056.2651,635.6658 h 24.1491"
       style="fill:none;stroke:#00ffff;stroke-linecap:round"
       id="path93"
       inkscape:connector-curvature="0" />
    <path
       d="m 881.21414,758.0658 v -28.8"
       style="fill:none;stroke:#00ffff;stroke-linecap:round"
       id="path95"
       inkscape:connector-curvature="0" />
    <path
       d="m 905.21416,731.6658 v -24"
       style="fill:none;stroke:#00ffff;stroke-linecap:round"
       id="path97"
       inkscape:connector-curvature="0" />
    <path
       d="M 1368.9823,56.015386 1201.4497,223.54805"
       style="fill:none;stroke:#ff0000;stroke-linecap:round"
       id="path99"
       inkscape:connector-curvature="0" />
    <path
       d="M 781.09639,643.9013 469.56372,955.43397"
       style="fill:none;stroke:#ff0000;stroke-linecap:round"
       id="path101"
       inkscape:connector-curvature="0" />
    <path
       d="m 1080.4142,587.6658 h -24.1491"
       style="fill:none;stroke:#00ffff;stroke-linecap:round"
       id="path105"
       inkscape:connector-curvature="0" />
    <path
       d="m 850.01414,587.6658 h -24"
       style="fill:none;stroke:#00ffff;stroke-linecap:round"
       id="path107"
       inkscape:connector-curvature="0" />
    <path
       d="M 469.56372,123.89764 781.09639,435.43031"
       style="fill:none;stroke:#ff0000;stroke-linecap:round"
       id="path109"
       inkscape:connector-curvature="0" />
    <path
       d="m 1201.4497,855.78355 167.5326,167.53265"
       style="fill:none;stroke:#ff0000;stroke-linecap:round"
       id="path111"
       inkscape:connector-curvature="0" />
    <path
       d="m 674.13468,778.01591 -78.02727,78.0312"
       style="fill:none;stroke:#00ffff;stroke-linecap:round"
       id="path113"
       inkscape:connector-curvature="0" />
    <path
       d="m 1269.5905,182.55617 -78.0272,78.0312"
       style="fill:none;stroke:#00ffff;stroke-linecap:round"
       id="path115"
       inkscape:connector-curvature="0" />
    <path
       d="m 1191.5643,818.74526 78.0312,78.02727"
       style="fill:none;stroke:#00ffff;stroke-linecap:round"
       id="path119"
       inkscape:connector-curvature="0" />
    <path
       d="m 596.10451,223.28945 78.0312,78.02727"
       style="fill:none;stroke:#00ffff;stroke-linecap:round"
       id="path121"
       inkscape:connector-curvature="0" />
    <path
       d="m 1001.2142,707.6658 v 24"
       style="fill:none;stroke:#00ffff;stroke-linecap:round"
       id="path125"
       inkscape:connector-curvature="0" />
    <path
       d="m 636.83779,896.77543 78.02727,-78.0312"
       style="fill:none;stroke:#00ffff;stroke-linecap:round"
       id="path127"
       inkscape:connector-curvature="0" />
    <path
       d="m 1232.2936,301.3157 78.0273,-78.03121"
       style="fill:none;stroke:#00ffff;stroke-linecap:round"
       id="path129"
       inkscape:connector-curvature="0" />
    <path
       d="M 537.44597,1023.3162 704.97864,855.78355"
       style="fill:none;stroke:#ff0000;stroke-linecap:round"
       id="path131"
       inkscape:connector-curvature="0" />
    <path
       d="M 1125.3319,435.43031 1436.8646,123.89764"
       style="fill:none;stroke:#ff0000;stroke-linecap:round"
       id="path133"
       inkscape:connector-curvature="0" />
    <path
       d="m 826.01414,491.6658 h 24"
       style="fill:none;stroke:#00ffff;stroke-linecap:round"
       id="path139"
       inkscape:connector-curvature="0" />
    <path
       d="m 1056.4142,491.6658 h 24"
       style="fill:none;stroke:#00ffff;stroke-linecap:round"
       id="path141"
       inkscape:connector-curvature="0" />
    <path
       d="m 1310.3238,856.04215 -78.0312,-78.02727"
       style="fill:none;stroke:#00ffff;stroke-linecap:round"
       id="path143"
       inkscape:connector-curvature="0" />
    <path
       d="m 714.86403,260.58635 -78.0312,-78.02727"
       style="fill:none;stroke:#00ffff;stroke-linecap:round"
       id="path145"
       inkscape:connector-curvature="0" />
    <path
       d="M 1436.8646,955.43397 1125.3319,643.9013"
       style="fill:none;stroke:#ff0000;stroke-linecap:round"
       id="path147"
       inkscape:connector-curvature="0" />
    <path
       d="M 704.97864,223.54805 537.44597,56.015386"
       style="fill:none;stroke:#ff0000;stroke-linecap:round"
       id="path149"
       inkscape:connector-curvature="0" />
    <path
       d="m 1025.2142,729.2658 v 28.8"
       style="fill:none;stroke:#00ffff;stroke-linecap:round"
       id="path153"
       inkscape:connector-curvature="0" />
    <path
       d="m 1049.2142,758.0658 v -28.8"
       style="fill:none;stroke:#00ffff;stroke-linecap:round"
       id="path155"
       inkscape:connector-curvature="0" />
    <path
       d="m 1056.2651,587.6658 v 48"
       style="fill:none;stroke:#00ffff;stroke-linecap:round"
       id="path157"
       inkscape:connector-curvature="0" />
    <path
       d="m 1056.4142,443.6658 v 48"
       style="fill:none;stroke:#00ffff;stroke-linecap:round"
       id="path159"
       inkscape:connector-curvature="0" />
    <path
       d="m 1080.4142,443.6658 h -24"
       style="fill:none;stroke:#00ffff;stroke-linecap:round"
       id="path161"
       inkscape:connector-curvature="0" />
    <path
       d="m 850.01414,443.6658 h -24"
       style="fill:none;stroke:#00ffff;stroke-linecap:round"
       id="path163"
       inkscape:connector-curvature="0" />
    <path
       d="m 1063.6142,779.6658 v -96"
       style="fill:none;stroke:#00ffff;stroke-linecap:round"
       id="path165"
       inkscape:connector-curvature="0" />
    <path
       d="m 1063.6142,395.6658 v -96"
       style="fill:none;stroke:#00ffff;stroke-linecap:round"
       id="path167"
       inkscape:connector-curvature="0" />
    <path
       d="m 1080.4142,635.6658 v -48"
       style="fill:none;stroke:#00ffff;stroke-linecap:round"
       id="path169"
       inkscape:connector-curvature="0" />
    <path
       d="m 1080.4142,491.6658 v -48"
       style="fill:none;stroke:#00ffff;stroke-linecap:round"
       id="path171"
       inkscape:connector-curvature="0" />
    <path
       d="m 1087.6142,299.6658 v 96"
       style="fill:none;stroke:#00ffff;stroke-linecap:round"
       id="path173"
       inkscape:connector-curvature="0" />
    <path
       d="m 1087.6142,683.6658 v 96"
       style="fill:none;stroke:#00ffff;stroke-linecap:round"
       id="path175"
       inkscape:connector-curvature="0" />
    <path
       d="M 1097.2142,576.01905 V 503.31256"
       style="fill:none;stroke:#ff0000;stroke-linecap:round"
       id="path177"
       inkscape:connector-curvature="0" />
    <path
       d="m 1087.6142,395.6658 h -24"
       style="fill:none;stroke:#00ffff;stroke-linecap:round"
       id="path179"
       inkscape:connector-curvature="0" />
    <path
       d="m 842.81414,395.6658 h -24"
       style="fill:none;stroke:#00ffff;stroke-linecap:round"
       id="path181"
       inkscape:connector-curvature="0" />
    <path
       d="m 818.81414,299.6658 h 24"
       style="fill:none;stroke:#00ffff;stroke-linecap:round"
       id="path183"
       inkscape:connector-curvature="0" />
    <path
       d="m 1063.6142,299.6658 h 24"
       style="fill:none;stroke:#00ffff;stroke-linecap:round"
       id="path185"
       inkscape:connector-curvature="0" />
    <path
       d="M 1133.5674,251.6658 H 772.86089"
       style="fill:none;stroke:#ff0000;stroke-linecap:round"
       id="path187"
       inkscape:connector-curvature="0" />
    <path
       d="m 1232.2926,778.01488 -40.7283,40.73038"
       style="fill:none;stroke:#00ffff;stroke-linecap:round"
       id="path189"
       inkscape:connector-curvature="0" />
    <path
       d="m 1191.5633,260.58737 40.7303,40.72833"
       style="fill:none;stroke:#00ffff;stroke-linecap:round"
       id="path191"
       inkscape:connector-curvature="0" />
    <path
       d="m 1269.5955,896.77253 40.7283,-40.73038"
       style="fill:none;stroke:#00ffff;stroke-linecap:round"
       id="path193"
       inkscape:connector-curvature="0" />
    <path
       d="m 1310.3209,223.28449 -40.7304,-40.72832"
       style="fill:none;stroke:#00ffff;stroke-linecap:round"
       id="path195"
       inkscape:connector-curvature="0" />
    <path
       d="m 772.86089,827.6658 a 96,96 0 0 0 -67.88225,28.11775"
       style="fill:none;stroke:#ff0000;stroke-linecap:round"
       id="path201"
       inkscape:connector-curvature="0" />
    <path
       d="m 781.09639,643.9013 a 96,96 0 0 0 28.11775,-67.88225"
       style="fill:none;stroke:#ff0000;stroke-linecap:round"
       id="path203"
       inkscape:connector-curvature="0" />
    <path
       d="m 469.56372,955.43397 a 59.873314,59.873314 0 1 0 67.88225,67.88223"
       style="fill:none;stroke:#ff0000;stroke-linecap:round"
       id="path205"
       inkscape:connector-curvature="0" />
    <path
       d="M 809.21414,503.31256 A 96,96 0 0 0 781.09639,435.43031"
       style="fill:none;stroke:#ff0000;stroke-linecap:round"
       id="path209"
       inkscape:connector-curvature="0" />
    <path
       d="m 704.97864,223.54805 a 96,96 0 0 0 67.88225,28.11775"
       style="fill:none;stroke:#ff0000;stroke-linecap:round"
       id="path211"
       inkscape:connector-curvature="0" />
    <path
       d="M 537.44597,56.015386 A 59.873314,59.873314 0 1 0 469.56372,123.89764"
       style="fill:none;stroke:#ff0000;stroke-linecap:round"
       id="path213"
       inkscape:connector-curvature="0" />
    <path
       d="M 1201.4497,855.78355 A 96,96 0 0 0 1133.5674,827.6658"
       style="fill:none;stroke:#ff0000;stroke-linecap:round"
       id="path215"
       inkscape:connector-curvature="0" />
    <path
       d="m 1097.2142,576.01905 a 96,96 0 0 0 28.1177,67.88225"
       style="fill:none;stroke:#ff0000;stroke-linecap:round"
       id="path217"
       inkscape:connector-curvature="0" />
    <path
       d="m 1368.9823,1023.3162 a 59.873314,59.873314 0 1 0 67.8823,-67.88223"
       style="fill:none;stroke:#ff0000;stroke-linecap:round"
       id="path219"
       inkscape:connector-curvature="0" />
    <path
       d="m 1125.3319,435.43031 a 96,96 0 0 0 -28.1177,67.88225"
       style="fill:none;stroke:#ff0000;stroke-linecap:round"
       id="path223"
       inkscape:connector-curvature="0" />
    <path
       d="m 965.21416,539.6658 a 12,12 0 1 0 -24,0 12,12 0 1 0 24,0 z"
       style="fill:none;stroke:#00ffff;stroke-linecap:round"
       id="path225"
       inkscape:connector-curvature="0" />
    <path
       d="m 1133.5674,251.6658 a 96,96 0 0 0 67.8823,-28.11775"
       style="fill:none;stroke:#ff0000;stroke-linecap:round"
       id="path227"
       inkscape:connector-curvature="0" />
    <path
       d="M 1436.8646,123.89764 A 59.873314,59.873314 0 1 0 1368.9823,56.015386"
       style="fill:none;stroke:#ff0000;stroke-linecap:round"
       id="path229"
       inkscape:connector-curvature="0" />
  </g>
  <g
     inkscape:groupmode="layer"
     inkscape:label="DEFAULT_1"
     id="g235"
     transform="translate(0,29.480347)" />
  <g
     inkscape:groupmode="layer"
     inkscape:label="DEFAULT_2"
     id="g237"
     transform="translate(0,29.480347)" />
  <g
     inkscape:groupmode="layer"
     inkscape:label="DEFAULT_3"
     id="g239"
     transform="translate(0,29.480347)" />
  <g
     inkscape:groupmode="layer"
     inkscape:label="01___PRT_ALL_DTM_PLN"
     id="g241"
     transform="translate(0,29.480347)" />
  <g
     inkscape:groupmode="layer"
     inkscape:label="01___PRT_DEF_DTM_PLN"
     id="g243"
     transform="translate(0,29.480347)" />
  <g
     inkscape:groupmode="layer"
     inkscape:label="02___PRT_ALL_AXES"
     id="g309"
     transform="translate(0,29.480347)">
    <path
       d="m 490.19858,1014.6814 a 12,12 0 1 0 -24,0 12,12 0 1 0 24,0 z"
       style="fill:none;stroke:#00ffff;stroke-linecap:round"
       id="path251"
       inkscape:connector-curvature="0" />
    <path
       d="m 583.29473,892.03231 a 9.6,9.6 0 1 0 -19.2,0 9.6,9.6 0 1 0 19.2,0 z"
       style="fill:none;stroke:#00ffff;stroke-linecap:round"
       id="path253"
       inkscape:connector-curvature="0" />
    <path
       d="m 610.44763,919.18521 a 9.6,9.6 0 1 0 -19.2,0 9.6,9.6 0 1 0 19.2,0 z"
       style="fill:none;stroke:#00ffff;stroke-linecap:round"
       id="path255"
       inkscape:connector-curvature="0" />
    <path
       d="m 485.75762,982.04136 a 7.55904,7.55904 0 1 0 -15.11808,0 7.55904,7.55904 0 1 0 15.11808,0 z"
       style="fill:none;stroke:#00ffff;stroke-linecap:round"
       id="path257"
       inkscape:connector-curvature="0" />
    <path
       d="m 453.11762,1014.6814 a 7.55904,7.55904 0 1 0 -15.11808,0 7.55904,7.55904 0 1 0 15.11808,0 z"
       style="fill:none;stroke:#00ffff;stroke-linecap:round"
       id="path259"
       inkscape:connector-curvature="0" />
    <path
       d="m 518.39762,1014.6814 a 7.55904,7.55904 0 1 0 -15.11808,0 7.55904,7.55904 0 1 0 15.11808,0 z"
       style="fill:none;stroke:#00ffff;stroke-linecap:round"
       id="path261"
       inkscape:connector-curvature="0" />
    <path
       d="m 485.75762,1047.3214 a 7.55904,7.55904 0 1 0 -15.11808,0 7.55904,7.55904 0 1 0 15.11808,0 z"
       style="fill:none;stroke:#00ffff;stroke-linecap:round"
       id="path263"
       inkscape:connector-curvature="0" />
    <path
       d="m 490.19858,64.650246 a 12,12 0 1 0 -24,0 12,12 0 1 0 24,0 z"
       style="fill:none;stroke:#00ffff;stroke-linecap:round"
       id="path267"
       inkscape:connector-curvature="0" />
    <path
       d="m 610.44763,160.1464 a 9.6,9.6 0 1 0 -19.2,0 9.6,9.6 0 1 0 19.2,0 z"
       style="fill:none;stroke:#00ffff;stroke-linecap:round"
       id="path269"
       inkscape:connector-curvature="0" />
    <path
       d="m 583.29473,187.29929 a 9.6,9.6 0 1 0 -19.2,0 9.6,9.6 0 1 0 19.2,0 z"
       style="fill:none;stroke:#00ffff;stroke-linecap:round"
       id="path271"
       inkscape:connector-curvature="0" />
    <path
       d="m 485.75762,32.010246 a 7.55904,7.55904 0 1 0 -15.11808,0 7.55904,7.55904 0 1 0 15.11808,0 z"
       style="fill:none;stroke:#00ffff;stroke-linecap:round"
       id="path273"
       inkscape:connector-curvature="0" />
    <path
       d="m 518.39762,64.650246 a 7.55904,7.55904 0 1 0 -15.11808,0 7.55904,7.55904 0 1 0 15.11808,0 z"
       style="fill:none;stroke:#00ffff;stroke-linecap:round"
       id="path275"
       inkscape:connector-curvature="0" />
    <path
       d="m 453.11762,64.650246 a 7.55904,7.55904 0 1 0 -15.11808,0 7.55904,7.55904 0 1 0 15.11808,0 z"
       style="fill:none;stroke:#00ffff;stroke-linecap:round"
       id="path277"
       inkscape:connector-curvature="0" />
    <path
       d="m 485.75762,97.233726 a 7.55904,7.55904 0 1 0 -15.11808,0 7.55904,7.55904 0 1 0 15.11808,0 z"
       style="fill:none;stroke:#00ffff;stroke-linecap:round"
       id="path279"
       inkscape:connector-curvature="0" />
    <path
       d="m 1440.2297,1014.6814 a 12,12 0 1 0 -24,0 12,12 0 1 0 24,0 z"
       style="fill:none;stroke:#00ffff;stroke-linecap:round"
       id="path281"
       inkscape:connector-curvature="0" />
    <path
       d="m 1315.1807,919.18521 a 9.6,9.6 0 1 0 -19.2,0 9.6,9.6 0 1 0 19.2,0 z"
       style="fill:none;stroke:#00ffff;stroke-linecap:round"
       id="path283"
       inkscape:connector-curvature="0" />
    <path
       d="m 1342.3336,892.03231 a 9.6,9.6 0 1 0 -19.2,0 9.6,9.6 0 1 0 19.2,0 z"
       style="fill:none;stroke:#00ffff;stroke-linecap:round"
       id="path285"
       inkscape:connector-curvature="0" />
    <path
       d="m 1435.7888,982.04136 a 7.55905,7.55905 0 1 0 -15.1181,0 7.55905,7.55905 0 1 0 15.1181,0 z"
       style="fill:none;stroke:#00ffff;stroke-linecap:round"
       id="path287"
       inkscape:connector-curvature="0" />
    <path
       d="m 1468.4288,1014.6814 a 7.55905,7.55905 0 1 0 -15.1181,0 7.55905,7.55905 0 1 0 15.1181,0 z"
       style="fill:none;stroke:#00ffff;stroke-linecap:round"
       id="path289"
       inkscape:connector-curvature="0" />
    <path
       d="m 1435.7888,1047.3214 a 7.55905,7.55905 0 1 0 -15.1181,0 7.55905,7.55905 0 1 0 15.1181,0 z"
       style="fill:none;stroke:#00ffff;stroke-linecap:round"
       id="path291"
       inkscape:connector-curvature="0" />
    <path
       d="m 1403.1488,1014.6814 a 7.55905,7.55905 0 1 0 -15.1181,0 7.55905,7.55905 0 1 0 15.1181,0 z"
       style="fill:none;stroke:#00ffff;stroke-linecap:round"
       id="path293"
       inkscape:connector-curvature="0" />
    <path
       d="m 1440.2297,64.650246 a 12,12 0 1 0 -24,0 12,12 0 1 0 24,0 z"
       style="fill:none;stroke:#00ffff;stroke-linecap:round"
       id="path295"
       inkscape:connector-curvature="0" />
    <path
       d="m 1342.3336,187.29929 a 9.6,9.6 0 1 0 -19.2,0 9.6,9.6 0 1 0 19.2,0 z"
       style="fill:none;stroke:#00ffff;stroke-linecap:round"
       id="path297"
       inkscape:connector-curvature="0" />
    <path
       d="m 1315.1807,160.1464 a 9.6,9.6 0 1 0 -19.2,0 9.6,9.6 0 1 0 19.2,0 z"
       style="fill:none;stroke:#00ffff;stroke-linecap:round"
       id="path299"
       inkscape:connector-curvature="0" />
    <path
       d="m 1435.7888,32.010246 a 7.55905,7.55905 0 1 0 -15.1181,0 7.55905,7.55905 0 1 0 15.1181,0 z"
       style="fill:none;stroke:#00ffff;stroke-linecap:round"
       id="path301"
       inkscape:connector-curvature="0" />
    <path
       d="m 1468.4288,64.650246 a 7.55905,7.55905 0 1 0 -15.1181,0 7.55905,7.55905 0 1 0 15.1181,0 z"
       style="fill:none;stroke:#00ffff;stroke-linecap:round"
       id="path303"
       inkscape:connector-curvature="0" />
    <path
       d="m 1403.1488,64.650246 a 7.55905,7.55905 0 1 0 -15.1181,0 7.55905,7.55905 0 1 0 15.1181,0 z"
       style="fill:none;stroke:#00ffff;stroke-linecap:round"
       id="path305"
       inkscape:connector-curvature="0" />
    <path
       d="m 1435.7888,97.290246 a 7.55905,7.55905 0 1 0 -15.1181,0 7.55905,7.55905 0 1 0 15.1181,0 z"
       style="fill:none;stroke:#00ffff;stroke-linecap:round"
       id="path307"
       inkscape:connector-curvature="0" />
  </g>
  <g
     inkscape:groupmode="layer"
     inkscape:label="03___PRT_ALL_CURVES"
     id="g311"
     transform="translate(0,29.480347)" />
  <g
     inkscape:groupmode="layer"
     inkscape:label="04___PRT_ALL_DTM_PNT"
     id="g313"
     transform="translate(0,29.480347)" />
  <g
     inkscape:groupmode="layer"
     inkscape:label="05___PRT_ALL_DTM_CSYS"
     id="g315"
     transform="translate(0,29.480347)" />
  <g
     inkscape:groupmode="layer"
     inkscape:label="05___PRT_DEF_DTM_CSYS"
     id="g317"
     transform="translate(0,29.480347)" />
  <g
     inkscape:groupmode="layer"
     inkscape:label="06___PRT_ALL_SURFS"
     id="g319"
     transform="translate(0,29.480347)" />
</svg>
