  0
SECTION
  2
HEADER
  9
$ACADVER
  1
AC1014
  9
$HANDSEED
  5
FFFF
  9
$MEASUREMENT
 70
     1
  0
ENDSEC
  0
SECTION
  2
TABLES
  0
TABLE
  2
VPORT
  5
8
330
0
100
AcDbSymbolTable
 70
     4
  0
VPORT
  5
2E
330
8
100
AcDbSymbolTableRecord
100
AcDbViewportTableRecord
  2
*ACTIVE
 70
     0
 10
0.0
 20
0.0
 11
1.0
 21
1.0
 12
210.0
 22
148.5
 13
0.0
 23
0.0
 14
10.0
 24
10.0
 15
10.0
 25
10.0
 16
0.0
 26
0.0
 36
1.0
 17
0.0
 27
0.0
 37
0.0
 40
341.0
 41
1.24
 42
50.0
 43
0.0
 44
0.0
 50
0.0
 51
0.0
 71
     0
 72
   100
 73
     1
 74
     3
 75
     0
 76
     0
 77
     0
 78
     0
  0
ENDTAB
  0
TABLE
  2
LTYPE
  5
5
330
0
100
AcDbSymbolTable
 70
     1
  0
LTYPE
  5
14
330
5
100
AcDbSymbolTableRecord
100
AcDbLinetypeTableRecord
  2
BYBLOCK
 70
     0
  3

 72
    65
 73
     0
 40
0.0
  0
LTYPE
  5
15
330
5
100
AcDbSymbolTableRecord
100
AcDbLinetypeTableRecord
  2
BYLAYER
 70
     0
  3

 72
    65
 73
     0
 40
0.0
  0
LTYPE
  5
16
330
5
100
AcDbSymbolTableRecord
100
AcDbLinetypeTableRecord
  2
CONTINUOUS
 70
     0
  3
Solid line
 72
    65
 73
     0
 40
0.0
  0
ENDTAB
  0
TABLE
  2
LAYER
  5
2
100
AcDbSymbolTable
 70
12
  0
LAYER
  5
50
100
AcDbSymbolTableRecord
100
AcDbLayerTableRecord
  2
0
 70
0
  6
CONTINUOUS
  0
LAYER
  5
51
100
AcDbSymbolTableRecord
100
AcDbLayerTableRecord
  2
DEFAULT_1
 70
0
  6
CONTINUOUS
  0
LAYER
  5
52
100
AcDbSymbolTableRecord
100
AcDbLayerTableRecord
  2
DEFAULT_2
 70
0
  6
CONTINUOUS
  0
LAYER
  5
53
100
AcDbSymbolTableRecord
100
AcDbLayerTableRecord
  2
DEFAULT_3
 70
0
  6
CONTINUOUS
  0
LAYER
  5
54
100
AcDbSymbolTableRecord
100
AcDbLayerTableRecord
  2
01___PRT_ALL_DTM_PLN
 70
0
  6
CONTINUOUS
  0
LAYER
  5
55
100
AcDbSymbolTableRecord
100
AcDbLayerTableRecord
  2
01___PRT_DEF_DTM_PLN
 70
0
  6
CONTINUOUS
  0
LAYER
  5
56
100
AcDbSymbolTableRecord
100
AcDbLayerTableRecord
  2
02___PRT_ALL_AXES
 70
0
  6
CONTINUOUS
  0
LAYER
  5
57
100
AcDbSymbolTableRecord
100
AcDbLayerTableRecord
  2
03___PRT_ALL_CURVES
 70
0
  6
CONTINUOUS
  0
LAYER
  5
58
100
AcDbSymbolTableRecord
100
AcDbLayerTableRecord
  2
04___PRT_ALL_DTM_PNT
 70
0
  6
CONTINUOUS
  0
LAYER
  5
59
100
AcDbSymbolTableRecord
100
AcDbLayerTableRecord
  2
05___PRT_ALL_DTM_CSYS
 70
0
  6
CONTINUOUS
  0
LAYER
  5
5a
100
AcDbSymbolTableRecord
100
AcDbLayerTableRecord
  2
05___PRT_DEF_DTM_CSYS
 70
0
  6
CONTINUOUS
  0
LAYER
  5
5b
100
AcDbSymbolTableRecord
100
AcDbLayerTableRecord
  2
06___PRT_ALL_SURFS
 70
0
  6
CONTINUOUS
  0
ENDTAB
  0
TABLE
  2
STYLE
  5
3
330
0
100
AcDbSymbolTable
 70
     1
  0
STYLE
  5
11
330
3
100
AcDbSymbolTableRecord
100
AcDbTextStyleTableRecord
  2
STANDARD
 70
     0
 40
0.0
 41
1.0
 50
0.0
 71
     0
 42
2.5
  3
txt
  4

  0
ENDTAB
  0
TABLE
  2
VIEW
  5
6
330
0
100
AcDbSymbolTable
 70
     0
  0
ENDTAB
  0
TABLE
  2
UCS
  5
7
330
0
100
AcDbSymbolTable
 70
     0
  0
ENDTAB
  0
TABLE
  2
APPID
  5
9
330
0
100
AcDbSymbolTable
 70
     2
  0
APPID
  5
12
330
9
100
AcDbSymbolTableRecord
100
AcDbRegAppTableRecord
  2
ACAD
 70
     0
  0
ENDTAB
  0
TABLE
  2
DIMSTYLE
  5
A
330
0
100
AcDbSymbolTable
 70
     1
  0
DIMSTYLE
105
27
330
A
100
AcDbSymbolTableRecord
100
AcDbDimStyleTableRecord
  2
ISO-25
 70
     0
  3

  4

  5

  6

  7

 40
1.0
 41
2.5
 42
0.625
 43
3.75
 44
1.25
 45
0.0
 46
0.0
 47
0.0
 48
0.0
140
2.5
141
2.5
142
0.0
143
0.03937007874016
144
1.0
145
0.0
146
1.0
147
0.625
 71
     0
 72
     0
 73
     0
 74
     0
 75
     0
 76
     0
 77
     1
 78
     8
170
     0
171
     3
172
     1
173
     0
174
     0
175
     0
176
     0
177
     0
178
     0
270
     2
271
     2
272
     2
273
     2
274
     3
340
11
275
     0
280
     0
281
     0
282
     0
283
     0
284
     8
285
     0
286
     0
287
     3
288
     0
  0
ENDTAB
  0
TABLE
  2
BLOCK_RECORD
  5
1
330
0
100
AcDbSymbolTable
 70
     1
  0
BLOCK_RECORD
  5
1F
330
1
100
AcDbSymbolTableRecord
100
AcDbBlockTableRecord
  2
*MODEL_SPACE
  0
BLOCK_RECORD
  5
1B
330
1
100
AcDbSymbolTableRecord
100
AcDbBlockTableRecord
  2
*PAPER_SPACE
  0
ENDTAB
  0
ENDSEC
  0
SECTION
  2
BLOCKS
  0
BLOCK
  5
20
330
1F
100
AcDbEntity
  8
0
100
AcDbBlockBegin
  2
*MODEL_SPACE
 70
     0
 10
0.0
 20
0.0
 30
0.0
  3
*MODEL_SPACE
  1

  0
ENDBLK
  5
21
330
1F
100
AcDbEntity
  8
0
100
AcDbBlockEnd
  0
BLOCK
  5
1C
330
1B
100
AcDbEntity
 67
     1
  8
0
100
AcDbBlockBegin
  2
*PAPER_SPACE
  1

  0
ENDBLK
  5
1D
330
1B
100
AcDbEntity
 67
     1
  8
0
100
AcDbBlockEnd
  0
ENDSEC
  0
SECTION
  2
ENTITIES
  0
LWPOLYLINE
  5
100
100
AcDbEntity
  8
0
 62
4
100
AcDbPolyline
 90
2
 70
0
 10
477.624622
 20
704.970430
 30
0.0
 10
447.078382
 20
674.422652
 30
0.0
  0
LWPOLYLINE
  5
101
100
AcDbEntity
  8
0
 62
4
100
AcDbPolyline
 90
2
 70
0
 10
447.080557
 20
199.854407
 30
0.0
 10
477.628342
 20
169.308167
 30
0.0
  0
LWPOLYLINE
  5
102
100
AcDbEntity
  8
0
 62
4
100
AcDbPolyline
 90
2
 70
0
 10
505.601783
 20
615.902200
 30
0.0
 10
536.148023
 20
646.449977
 30
0.0
  0
LWPOLYLINE
  5
103
100
AcDbEntity
  8
0
 62
4
100
AcDbPolyline
 90
2
 70
0
 10
536.148795
 20
227.831567
 30
0.0
 10
505.601010
 20
258.377807
 30
0.0
  0
LWPOLYLINE
  5
104
100
AcDbEntity
  8
0
 62
1
100
AcDbPolyline
 90
2
 70
0
 10
850.175550
 20
221.140390
 30
0.0
 10
579.645668
 20
221.140390
 30
0.0
  0
LWPOLYLINE
  5
105
100
AcDbEntity
  8
0
 62
4
100
AcDbPolyline
 90
2
 70
0
 10
815.710650
 20
257.140390
 30
0.0
 10
797.710650
 20
257.140390
 30
0.0
  0
LWPOLYLINE
  5
106
100
AcDbEntity
  8
0
 62
4
100
AcDbPolyline
 90
2
 70
0
 10
632.110605
 20
257.140390
 30
0.0
 10
614.110605
 20
257.140390
 30
0.0
  0
LWPOLYLINE
  5
107
100
AcDbEntity
  8
0
 62
4
100
AcDbPolyline
 90
2
 70
0
 10
642.910605
 20
273.340390
 30
0.0
 10
660.910605
 20
273.340390
 30
0.0
  0
LWPOLYLINE
  5
108
100
AcDbEntity
  8
0
 62
4
100
AcDbPolyline
 90
2
 70
0
 10
768.910650
 20
273.340390
 30
0.0
 10
786.910650
 20
273.340390
 30
0.0
  0
LWPOLYLINE
  5
109
100
AcDbEntity
  8
0
 62
4
100
AcDbPolyline
 90
2
 70
0
 10
750.910650
 20
293.140390
 30
0.0
 10
678.910620
 20
293.140390
 30
0.0
  0
LWPOLYLINE
  5
10a
100
AcDbEntity
  8
0
 62
4
100
AcDbPolyline
 90
2
 70
0
 10
786.910650
 20
294.940390
 30
0.0
 10
768.910650
 20
294.940390
 30
0.0
  0
LWPOLYLINE
  5
10b
100
AcDbEntity
  8
0
 62
4
100
AcDbPolyline
 90
2
 70
0
 10
660.910605
 20
294.940390
 30
0.0
 10
642.910605
 20
294.940390
 30
0.0
  0
LWPOLYLINE
  5
10c
100
AcDbEntity
  8
0
 62
4
100
AcDbPolyline
 90
2
 70
0
 10
678.910620
 20
311.140390
 30
0.0
 10
750.910650
 20
311.140390
 30
0.0
  0
LWPOLYLINE
  5
10d
100
AcDbEntity
  8
0
 62
1
100
AcDbPolyline
 90
2
 70
0
 10
606.910605
 20
464.405320
 30
0.0
 10
606.910605
 20
409.875452
 30
0.0
  0
LWPOLYLINE
  5
10e
100
AcDbEntity
  8
0
 62
4
100
AcDbPolyline
 90
2
 70
0
 10
614.110605
 20
257.140390
 30
0.0
 10
614.110605
 20
329.140390
 30
0.0
  0
LWPOLYLINE
  5
10f
100
AcDbEntity
  8
0
 62
4
100
AcDbPolyline
 90
2
 70
0
 10
614.110605
 20
545.140390
 30
0.0
 10
614.110605
 20
617.140390
 30
0.0
  0
LWPOLYLINE
  5
110
100
AcDbEntity
  8
0
 62
4
100
AcDbPolyline
 90
2
 70
0
 10
619.510605
 20
509.140390
 30
0.0
 10
619.510605
 20
473.140390
 30
0.0
  0
LWPOLYLINE
  5
111
100
AcDbEntity
  8
0
 62
4
100
AcDbPolyline
 90
2
 70
0
 10
619.510605
 20
401.140390
 30
0.0
 10
619.510605
 20
365.140390
 30
0.0
  0
LWPOLYLINE
  5
112
100
AcDbEntity
  8
0
 62
4
100
AcDbPolyline
 90
2
 70
0
 10
632.110605
 20
617.140390
 30
0.0
 10
632.110605
 20
545.140390
 30
0.0
  0
LWPOLYLINE
  5
113
100
AcDbEntity
  8
0
 62
4
100
AcDbPolyline
 90
2
 70
0
 10
632.110605
 20
329.140390
 30
0.0
 10
632.110605
 20
257.140390
 30
0.0
  0
LWPOLYLINE
  5
114
100
AcDbEntity
  8
0
 62
4
100
AcDbPolyline
 90
2
 70
0
 10
637.510605
 20
365.140390
 30
0.0
 10
637.510605
 20
401.140390
 30
0.0
  0
LWPOLYLINE
  5
115
100
AcDbEntity
  8
0
 62
4
100
AcDbPolyline
 90
2
 70
0
 10
637.510605
 20
473.140390
 30
0.0
 10
637.510605
 20
509.140390
 30
0.0
  0
LWPOLYLINE
  5
116
100
AcDbEntity
  8
0
 62
4
100
AcDbPolyline
 90
2
 70
0
 10
642.910605
 20
294.940390
 30
0.0
 10
642.910605
 20
273.340390
 30
0.0
  0
LWPOLYLINE
  5
117
100
AcDbEntity
  8
0
 62
4
100
AcDbPolyline
 90
2
 70
0
 10
614.110605
 20
329.140390
 30
0.0
 10
632.110605
 20
329.140390
 30
0.0
  0
LWPOLYLINE
  5
118
100
AcDbEntity
  8
0
 62
4
100
AcDbPolyline
 90
2
 70
0
 10
797.710650
 20
329.140390
 30
0.0
 10
815.710650
 20
329.140390
 30
0.0
  0
LWPOLYLINE
  5
119
100
AcDbEntity
  8
0
 62
4
100
AcDbPolyline
 90
2
 70
0
 10
619.510605
 20
365.140390
 30
0.0
 10
637.510605
 20
365.140390
 30
0.0
  0
LWPOLYLINE
  5
11a
100
AcDbEntity
  8
0
 62
4
100
AcDbPolyline
 90
2
 70
0
 10
792.198825
 20
365.140390
 30
0.0
 10
810.310650
 20
365.140390
 30
0.0
  0
LWPOLYLINE
  5
11b
100
AcDbEntity
  8
0
 62
4
100
AcDbPolyline
 90
2
 70
0
 10
660.910605
 20
273.340390
 30
0.0
 10
660.910605
 20
294.940390
 30
0.0
  0
LWPOLYLINE
  5
11c
100
AcDbEntity
  8
0
 62
4
100
AcDbPolyline
 90
2
 70
0
 10
678.910620
 20
293.140390
 30
0.0
 10
678.910620
 20
311.140390
 30
0.0
  0
LWPOLYLINE
  5
11d
100
AcDbEntity
  8
0
 62
1
100
AcDbPolyline
 90
2
 70
0
 10
1026.736725
 20
799.878200
 30
0.0
 10
901.087275
 20
674.228702
 30
0.0
  0
LWPOLYLINE
  5
11e
100
AcDbEntity
  8
0
 62
1
100
AcDbPolyline
 90
2
 70
0
 10
585.822293
 20
358.963765
 30
0.0
 10
352.172790
 20
125.314262
 30
0.0
  0
LWPOLYLINE
  5
11f
100
AcDbEntity
  8
0
 62
4
100
AcDbPolyline
 90
2
 70
0
 10
810.310650
 20
401.140390
 30
0.0
 10
792.198825
 20
401.140390
 30
0.0
  0
LWPOLYLINE
  5
120
100
AcDbEntity
  8
0
 62
4
100
AcDbPolyline
 90
2
 70
0
 10
637.510605
 20
401.140390
 30
0.0
 10
619.510605
 20
401.140390
 30
0.0
  0
LWPOLYLINE
  5
121
100
AcDbEntity
  8
0
 62
1
100
AcDbPolyline
 90
2
 70
0
 10
352.172790
 20
748.966510
 30
0.0
 10
585.822293
 20
515.317007
 30
0.0
  0
LWPOLYLINE
  5
122
100
AcDbEntity
  8
0
 62
1
100
AcDbPolyline
 90
2
 70
0
 10
901.087275
 20
200.052077
 30
0.0
 10
1026.736725
 20
74.402590
 30
0.0
  0
LWPOLYLINE
  5
123
100
AcDbEntity
  8
0
 62
4
100
AcDbPolyline
 90
2
 70
0
 10
505.601010
 20
258.377807
 30
0.0
 10
447.080557
 20
199.854407
 30
0.0
  0
LWPOLYLINE
  5
124
100
AcDbEntity
  8
0
 62
4
100
AcDbPolyline
 90
2
 70
0
 10
952.192875
 20
704.972612
 30
0.0
 10
893.672475
 20
646.449212
 30
0.0
  0
LWPOLYLINE
  5
125
100
AcDbEntity
  8
0
 62
4
100
AcDbPolyline
 90
2
 70
0
 10
893.673225
 20
227.830795
 30
0.0
 10
952.196625
 20
169.310342
 30
0.0
  0
LWPOLYLINE
  5
126
100
AcDbEntity
  8
0
 62
4
100
AcDbPolyline
 90
2
 70
0
 10
447.078382
 20
674.422652
 30
0.0
 10
505.601783
 20
615.902200
 30
0.0
  0
LWPOLYLINE
  5
127
100
AcDbEntity
  8
0
 62
4
100
AcDbPolyline
 90
2
 70
0
 10
750.910650
 20
311.140390
 30
0.0
 10
750.910650
 20
293.140390
 30
0.0
  0
LWPOLYLINE
  5
128
100
AcDbEntity
  8
0
 62
4
100
AcDbPolyline
 90
2
 70
0
 10
477.628343
 20
169.308167
 30
0.0
 10
536.148795
 20
227.831567
 30
0.0
  0
LWPOLYLINE
  5
129
100
AcDbEntity
  8
0
 62
4
100
AcDbPolyline
 90
2
 70
0
 10
924.220200
 20
615.902965
 30
0.0
 10
982.740675
 20
674.426372
 30
0.0
  0
LWPOLYLINE
  5
12a
100
AcDbEntity
  8
0
 62
1
100
AcDbPolyline
 90
2
 70
0
 10
403.084477
 20
74.402590
 30
0.0
 10
528.733980
 20
200.052077
 30
0.0
  0
LWPOLYLINE
  5
12b
100
AcDbEntity
  8
0
 62
1
100
AcDbPolyline
 90
2
 70
0
 10
843.998925
 20
515.317007
 30
0.0
 10
1077.648450
 20
748.966510
 30
0.0
  0
LWPOLYLINE
  5
12c
100
AcDbEntity
  8
0
 62
4
100
AcDbPolyline
 90
2
 70
0
 10
619.510605
 20
473.140390
 30
0.0
 10
637.510605
 20
473.140390
 30
0.0
  0
LWPOLYLINE
  5
12d
100
AcDbEntity
  8
0
 62
4
100
AcDbPolyline
 90
2
 70
0
 10
792.310650
 20
473.140390
 30
0.0
 10
810.310650
 20
473.140390
 30
0.0
  0
LWPOLYLINE
  5
12e
100
AcDbEntity
  8
0
 62
4
100
AcDbPolyline
 90
2
 70
0
 10
982.742850
 20
199.858127
 30
0.0
 10
924.219450
 20
258.378580
 30
0.0
  0
LWPOLYLINE
  5
12f
100
AcDbEntity
  8
0
 62
4
100
AcDbPolyline
 90
2
 70
0
 10
536.148023
 20
646.449977
 30
0.0
 10
477.624622
 20
704.970430
 30
0.0
  0
LWPOLYLINE
  5
130
100
AcDbEntity
  8
0
 62
1
100
AcDbPolyline
 90
2
 70
0
 10
1077.648450
 20
125.314262
 30
0.0
 10
843.998925
 20
358.963765
 30
0.0
  0
LWPOLYLINE
  5
131
100
AcDbEntity
  8
0
 62
1
100
AcDbPolyline
 90
2
 70
0
 10
528.733980
 20
674.228702
 30
0.0
 10
403.084477
 20
799.878200
 30
0.0
  0
LWPOLYLINE
  5
132
100
AcDbEntity
  8
0
 62
4
100
AcDbPolyline
 90
2
 70
0
 10
768.910650
 20
294.940390
 30
0.0
 10
768.910650
 20
273.340390
 30
0.0
  0
LWPOLYLINE
  5
133
100
AcDbEntity
  8
0
 62
4
100
AcDbPolyline
 90
2
 70
0
 10
786.910650
 20
273.340390
 30
0.0
 10
786.910650
 20
294.940390
 30
0.0
  0
LWPOLYLINE
  5
134
100
AcDbEntity
  8
0
 62
4
100
AcDbPolyline
 90
2
 70
0
 10
792.198825
 20
401.140390
 30
0.0
 10
792.198825
 20
365.140390
 30
0.0
  0
LWPOLYLINE
  5
135
100
AcDbEntity
  8
0
 62
4
100
AcDbPolyline
 90
2
 70
0
 10
792.310650
 20
509.140390
 30
0.0
 10
792.310650
 20
473.140390
 30
0.0
  0
LWPOLYLINE
  5
136
100
AcDbEntity
  8
0
 62
4
100
AcDbPolyline
 90
2
 70
0
 10
810.310650
 20
509.140390
 30
0.0
 10
792.310650
 20
509.140390
 30
0.0
  0
LWPOLYLINE
  5
137
100
AcDbEntity
  8
0
 62
4
100
AcDbPolyline
 90
2
 70
0
 10
637.510605
 20
509.140390
 30
0.0
 10
619.510605
 20
509.140390
 30
0.0
  0
LWPOLYLINE
  5
138
100
AcDbEntity
  8
0
 62
4
100
AcDbPolyline
 90
2
 70
0
 10
797.710650
 20
257.140390
 30
0.0
 10
797.710650
 20
329.140390
 30
0.0
  0
LWPOLYLINE
  5
139
100
AcDbEntity
  8
0
 62
4
100
AcDbPolyline
 90
2
 70
0
 10
797.710650
 20
545.140390
 30
0.0
 10
797.710650
 20
617.140390
 30
0.0
  0
LWPOLYLINE
  5
13a
100
AcDbEntity
  8
0
 62
4
100
AcDbPolyline
 90
2
 70
0
 10
810.310650
 20
365.140390
 30
0.0
 10
810.310650
 20
401.140390
 30
0.0
  0
LWPOLYLINE
  5
13b
100
AcDbEntity
  8
0
 62
4
100
AcDbPolyline
 90
2
 70
0
 10
810.310650
 20
473.140390
 30
0.0
 10
810.310650
 20
509.140390
 30
0.0
  0
LWPOLYLINE
  5
13c
100
AcDbEntity
  8
0
 62
4
100
AcDbPolyline
 90
2
 70
0
 10
815.710650
 20
617.140390
 30
0.0
 10
815.710650
 20
545.140390
 30
0.0
  0
LWPOLYLINE
  5
13d
100
AcDbEntity
  8
0
 62
4
100
AcDbPolyline
 90
2
 70
0
 10
815.710650
 20
329.140390
 30
0.0
 10
815.710650
 20
257.140390
 30
0.0
  0
LWPOLYLINE
  5
13e
100
AcDbEntity
  8
0
 62
1
100
AcDbPolyline
 90
2
 70
0
 10
822.910650
 20
409.875452
 30
0.0
 10
822.910650
 20
464.405320
 30
0.0
  0
LWPOLYLINE
  5
13f
100
AcDbEntity
  8
0
 62
4
100
AcDbPolyline
 90
2
 70
0
 10
815.710650
 20
545.140390
 30
0.0
 10
797.710650
 20
545.140390
 30
0.0
  0
LWPOLYLINE
  5
140
100
AcDbEntity
  8
0
 62
4
100
AcDbPolyline
 90
2
 70
0
 10
632.110605
 20
545.140390
 30
0.0
 10
614.110605
 20
545.140390
 30
0.0
  0
LWPOLYLINE
  5
141
100
AcDbEntity
  8
0
 62
4
100
AcDbPolyline
 90
2
 70
0
 10
614.110605
 20
617.140390
 30
0.0
 10
632.110605
 20
617.140390
 30
0.0
  0
LWPOLYLINE
  5
142
100
AcDbEntity
  8
0
 62
4
100
AcDbPolyline
 90
2
 70
0
 10
797.710650
 20
617.140390
 30
0.0
 10
815.710650
 20
617.140390
 30
0.0
  0
LWPOLYLINE
  5
143
100
AcDbEntity
  8
0
 62
1
100
AcDbPolyline
 90
2
 70
0
 10
850.175550
 20
653.140390
 30
0.0
 10
579.645668
 20
653.140390
 30
0.0
  0
LWPOLYLINE
  5
144
100
AcDbEntity
  8
0
 62
4
100
AcDbPolyline
 90
2
 70
0
 10
924.219450
 20
258.378580
 30
0.0
 10
893.673225
 20
227.830795
 30
0.0
  0
LWPOLYLINE
  5
145
100
AcDbEntity
  8
0
 62
4
100
AcDbPolyline
 90
2
 70
0
 10
893.672475
 20
646.449212
 30
0.0
 10
924.220200
 20
615.902965
 30
0.0
  0
LWPOLYLINE
  5
146
100
AcDbEntity
  8
0
 62
4
100
AcDbPolyline
 90
2
 70
0
 10
952.196625
 20
169.310342
 30
0.0
 10
982.742850
 20
199.858127
 30
0.0
  0
SPLINE
  5
147
100
AcDbEntity
  8
0
 62
1
100
AcDbSpline
 70
8
 71
3
 72
8
 73
4
 74
0
 40
0
 40
0
 40
0
 40
0
 40
1
 40
1
 40
1
 40
1
 10
579.645667
 20
221.140390
 30
0.0
 10
560.550080
 20
221.140389
 30
0.0
 10
542.236599
 20
213.554697
 30
0.0
 10
528.733980
 20
200.052077
 30
0.0
  0
SPLINE
  5
148
100
AcDbEntity
  8
0
 62
1
100
AcDbSpline
 70
8
 71
3
 72
8
 73
4
 74
0
 40
0
 40
0
 40
0
 40
0
 40
1
 40
1
 40
1
 40
1
 10
585.822293
 20
358.963765
 30
0.0
 10
599.324912
 20
372.466384
 30
0.0
 10
606.910605
 20
390.779865
 30
0.0
 10
606.910605
 20
409.875452
 30
0.0
  0
SPLINE
  5
149
100
AcDbEntity
  8
0
 62
1
100
AcDbSpline
 70
8
 71
3
 72
8
 73
4
 74
0
 40
0
 40
0
 40
0
 40
0
 40
1
 40
1
 40
1
 40
1
 10
352.172790
 20
125.314262
 30
0.0
 10
329.289746
 20
121.979231
 30
0.0
 10
312.681054
 20
101.811180
 30
0.0
 10
313.796191
 20
78.713288
 30
0.0
  0
SPLINE
  5
14a
100
AcDbEntity
  8
0
 62
1
100
AcDbSpline
 70
8
 71
3
 72
8
 73
4
 74
0
 40
0
 40
0
 40
0
 40
0
 40
1
 40
1
 40
1
 40
1
 10
313.796191
 20
78.713288
 30
0.0
 10
314.911328
 20
55.615397
 30
0.0
 10
333.385623
 20
37.141107
 30
0.0
 10
356.483515
 20
36.025977
 30
0.0
  0
SPLINE
  5
14b
100
AcDbEntity
  8
0
 62
1
100
AcDbSpline
 70
8
 71
3
 72
8
 73
4
 74
0
 40
0
 40
0
 40
0
 40
0
 40
1
 40
1
 40
1
 40
1
 10
356.483515
 20
36.025977
 30
0.0
 10
379.581407
 20
34.910847
 30
0.0
 10
399.749453
 20
51.519545
 30
0.0
 10
403.084478
 20
74.402590
 30
0.0
  0
SPLINE
  5
14c
100
AcDbEntity
  8
0
 62
1
100
AcDbSpline
 70
8
 71
3
 72
8
 73
4
 74
0
 40
0
 40
0
 40
0
 40
0
 40
1
 40
1
 40
1
 40
1
 10
606.910605
 20
464.405320
 30
0.0
 10
606.910605
 20
483.500907
 30
0.0
 10
599.324912
 20
501.814388
 30
0.0
 10
585.822293
 20
515.317007
 30
0.0
  0
SPLINE
  5
14d
100
AcDbEntity
  8
0
 62
1
100
AcDbSpline
 70
8
 71
3
 72
8
 73
4
 74
0
 40
0
 40
0
 40
0
 40
0
 40
1
 40
1
 40
1
 40
1
 10
528.733980
 20
674.228702
 30
0.0
 10
542.236599
 20
660.726083
 30
0.0
 10
560.550080
 20
653.140390
 30
0.0
 10
579.645667
 20
653.140390
 30
0.0
  0
SPLINE
  5
14e
100
AcDbEntity
  8
0
 62
1
100
AcDbSpline
 70
8
 71
3
 72
8
 73
4
 74
0
 40
0
 40
0
 40
0
 40
0
 40
1
 40
1
 40
1
 40
1
 10
403.084478
 20
799.878200
 30
0.0
 10
399.749444
 20
822.761241
 30
0.0
 10
379.581395
 20
839.369930
 30
0.0
 10
356.483506
 20
838.254794
 30
0.0
  0
SPLINE
  5
14f
100
AcDbEntity
  8
0
 62
1
100
AcDbSpline
 70
8
 71
3
 72
8
 73
4
 74
0
 40
0
 40
0
 40
0
 40
0
 40
1
 40
1
 40
1
 40
1
 10
356.483506
 20
838.254794
 30
0.0
 10
333.385617
 20
837.139658
 30
0.0
 10
314.911328
 20
818.665368
 30
0.0
 10
313.796194
 20
795.567479
 30
0.0
  0
SPLINE
  5
150
100
AcDbEntity
  8
0
 62
1
100
AcDbSpline
 70
8
 71
3
 72
8
 73
4
 74
0
 40
0
 40
0
 40
0
 40
0
 40
1
 40
1
 40
1
 40
1
 10
313.796194
 20
795.567479
 30
0.0
 10
312.681059
 20
772.469590
 30
0.0
 10
329.289749
 20
752.301542
 30
0.0
 10
352.172790
 20
748.966510
 30
0.0
  0
SPLINE
  5
151
100
AcDbEntity
  8
0
 62
1
100
AcDbSpline
 70
8
 71
3
 72
8
 73
4
 74
0
 40
0
 40
0
 40
0
 40
0
 40
1
 40
1
 40
1
 40
1
 10
901.087275
 20
200.052077
 30
0.0
 10
887.584647
 20
213.554706
 30
0.0
 10
869.271150
 20
221.140399
 30
0.0
 10
850.175550
 20
221.140390
 30
0.0
  0
SPLINE
  5
152
100
AcDbEntity
  8
0
 62
1
100
AcDbSpline
 70
8
 71
3
 72
8
 73
4
 74
0
 40
0
 40
0
 40
0
 40
0
 40
1
 40
1
 40
1
 40
1
 10
822.910650
 20
409.875452
 30
0.0
 10
822.910640
 20
390.779871
 30
0.0
 10
830.496319
 20
372.466390
 30
0.0
 10
843.998925
 20
358.963765
 30
0.0
  0
SPLINE
  5
153
100
AcDbEntity
  8
0
 62
1
100
AcDbSpline
 70
8
 71
3
 72
8
 73
4
 74
0
 40
0
 40
0
 40
0
 40
0
 40
1
 40
1
 40
1
 40
1
 10
1026.736725
 20
74.402590
 30
0.0
 10
1030.071751
 20
51.519551
 30
0.0
 10
1050.239791
 20
34.910857
 30
0.0
 10
1073.337678
 20
36.025982
 30
0.0
  0
SPLINE
  5
154
100
AcDbEntity
  8
0
 62
1
100
AcDbSpline
 70
8
 71
3
 72
8
 73
4
 74
0
 40
0
 40
0
 40
0
 40
0
 40
1
 40
1
 40
1
 40
1
 10
1073.337678
 20
36.025982
 30
0.0
 10
1096.435564
 20
37.141107
 30
0.0
 10
1114.909860
 20
55.615385
 30
0.0
 10
1116.025009
 20
78.713270
 30
0.0
  0
SPLINE
  5
155
100
AcDbEntity
  8
0
 62
1
100
AcDbSpline
 70
8
 71
3
 72
8
 73
4
 74
0
 40
0
 40
0
 40
0
 40
0
 40
1
 40
1
 40
1
 40
1
 10
1116.025009
 20
78.713270
 30
0.0
 10
1117.140158
 20
101.811155
 30
0.0
 10
1100.531485
 20
121.979212
 30
0.0
 10
1077.648450
 20
125.314262
 30
0.0
  0
SPLINE
  5
156
100
AcDbEntity
  8
0
 62
1
100
AcDbSpline
 70
8
 71
3
 72
8
 73
4
 74
0
 40
0
 40
0
 40
0
 40
0
 40
1
 40
1
 40
1
 40
1
 10
843.998925
 20
515.317007
 30
0.0
 10
830.496319
 20
501.814382
 30
0.0
 10
822.910640
 20
483.500901
 30
0.0
 10
822.910650
 20
464.405320
 30
0.0
  0
SPLINE
  5
157
100
AcDbEntity
  8
0
 62
4
100
AcDbSpline
 70
8
 71
3
 72
8
 73
4
 74
0
 40
0
 40
0
 40
0
 40
0
 40
1
 40
1
 40
1
 40
1
 10
723.910620
 20
437.140390
 30
0.0
 10
723.910620
 20
440.355780
 30
0.0
 10
722.195230
 20
443.326923
 30
0.0
 10
719.410620
 20
444.934618
 30
0.0
  0
SPLINE
  5
158
100
AcDbEntity
  8
0
 62
4
100
AcDbSpline
 70
8
 71
3
 72
8
 73
4
 74
0
 40
0
 40
0
 40
0
 40
0
 40
1
 40
1
 40
1
 40
1
 10
719.410620
 20
444.934618
 30
0.0
 10
716.626010
 20
446.542314
 30
0.0
 10
713.195230
 20
446.542314
 30
0.0
 10
710.410620
 20
444.934618
 30
0.0
  0
SPLINE
  5
159
100
AcDbEntity
  8
0
 62
4
100
AcDbSpline
 70
8
 71
3
 72
8
 73
4
 74
0
 40
0
 40
0
 40
0
 40
0
 40
1
 40
1
 40
1
 40
1
 10
710.410620
 20
444.934618
 30
0.0
 10
707.626010
 20
443.326923
 30
0.0
 10
705.910620
 20
440.355780
 30
0.0
 10
705.910620
 20
437.140390
 30
0.0
  0
SPLINE
  5
15a
100
AcDbEntity
  8
0
 62
4
100
AcDbSpline
 70
8
 71
3
 72
8
 73
4
 74
0
 40
0
 40
0
 40
0
 40
0
 40
1
 40
1
 40
1
 40
1
 10
705.910620
 20
437.140390
 30
0.0
 10
705.910620
 20
433.924999
 30
0.0
 10
707.626010
 20
430.953856
 30
0.0
 10
710.410620
 20
429.346161
 30
0.0
  0
SPLINE
  5
15b
100
AcDbEntity
  8
0
 62
4
100
AcDbSpline
 70
8
 71
3
 72
8
 73
4
 74
0
 40
0
 40
0
 40
0
 40
0
 40
1
 40
1
 40
1
 40
1
 10
710.410620
 20
429.346161
 30
0.0
 10
713.195230
 20
427.738466
 30
0.0
 10
716.626010
 20
427.738466
 30
0.0
 10
719.410620
 20
429.346161
 30
0.0
  0
SPLINE
  5
15c
100
AcDbEntity
  8
0
 62
4
100
AcDbSpline
 70
8
 71
3
 72
8
 73
4
 74
0
 40
0
 40
0
 40
0
 40
0
 40
1
 40
1
 40
1
 40
1
 10
719.410620
 20
429.346161
 30
0.0
 10
722.195230
 20
430.953856
 30
0.0
 10
723.910620
 20
433.924999
 30
0.0
 10
723.910620
 20
437.140390
 30
0.0
  0
LWPOLYLINE
  5
15d
100
AcDbEntity
  8
0
 62
4
100
AcDbPolyline
 90
2
 70
0
 10
982.740675
 20
674.426372
 30
0.0
 10
952.192875
 20
704.972612
 30
0.0
  0
SPLINE
  5
15e
100
AcDbEntity
  8
0
 62
1
100
AcDbSpline
 70
8
 71
3
 72
8
 73
4
 74
0
 40
0
 40
0
 40
0
 40
0
 40
1
 40
1
 40
1
 40
1
 10
850.175550
 20
653.140390
 30
0.0
 10
869.271150
 20
653.140380
 30
0.0
 10
887.584647
 20
660.726074
 30
0.0
 10
901.087275
 20
674.228702
 30
0.0
  0
SPLINE
  5
15f
100
AcDbEntity
  8
0
 62
1
100
AcDbSpline
 70
8
 71
3
 72
8
 73
4
 74
0
 40
0
 40
0
 40
0
 40
0
 40
1
 40
1
 40
1
 40
1
 10
1077.648450
 20
748.966510
 30
0.0
 10
1100.531482
 20
752.301561
 30
0.0
 10
1117.140153
 20
772.469615
 30
0.0
 10
1116.025007
 20
795.567497
 30
0.0
  0
SPLINE
  5
160
100
AcDbEntity
  8
0
 62
1
100
AcDbSpline
 70
8
 71
3
 72
8
 73
4
 74
0
 40
0
 40
0
 40
0
 40
0
 40
1
 40
1
 40
1
 40
1
 10
1116.025007
 20
795.567497
 30
0.0
 10
1114.909860
 20
818.665380
 30
0.0
 10
1096.435570
 20
837.139658
 30
0.0
 10
1073.337687
 20
838.254789
 30
0.0
  0
SPLINE
  5
161
100
AcDbEntity
  8
0
 62
1
100
AcDbSpline
 70
8
 71
3
 72
8
 73
4
 74
0
 40
0
 40
0
 40
0
 40
0
 40
1
 40
1
 40
1
 40
1
 10
1073.337687
 20
838.254789
 30
0.0
 10
1050.239803
 20
839.369919
 30
0.0
 10
1030.071760
 20
822.761235
 30
0.0
 10
1026.736725
 20
799.878200
 30
0.0
  0
SPLINE
  5
162
100
AcDbEntity
  8
02___PRT_ALL_AXES
 62
4
100
AcDbSpline
 70
8
 71
3
 72
8
 73
4
 74
0
 40
0
 40
0
 40
0
 40
0
 40
1
 40
1
 40
1
 40
1
 10
367.648935
 20
80.878690
 30
0.0
 10
367.648935
 20
84.094080
 30
0.0
 10
365.933545
 20
87.065223
 30
0.0
 10
363.148935
 20
88.672918
 30
0.0
  0
SPLINE
  5
163
100
AcDbEntity
  8
02___PRT_ALL_AXES
 62
4
100
AcDbSpline
 70
8
 71
3
 72
8
 73
4
 74
0
 40
0
 40
0
 40
0
 40
0
 40
1
 40
1
 40
1
 40
1
 10
363.148935
 20
88.672918
 30
0.0
 10
360.364325
 20
90.280614
 30
0.0
 10
356.933545
 20
90.280614
 30
0.0
 10
354.148935
 20
88.672918
 30
0.0
  0
SPLINE
  5
164
100
AcDbEntity
  8
02___PRT_ALL_AXES
 62
4
100
AcDbSpline
 70
8
 71
3
 72
8
 73
4
 74
0
 40
0
 40
0
 40
0
 40
0
 40
1
 40
1
 40
1
 40
1
 10
354.148935
 20
88.672918
 30
0.0
 10
351.364325
 20
87.065223
 30
0.0
 10
349.648935
 20
84.094080
 30
0.0
 10
349.648935
 20
80.878690
 30
0.0
  0
SPLINE
  5
165
100
AcDbEntity
  8
02___PRT_ALL_AXES
 62
4
100
AcDbSpline
 70
8
 71
3
 72
8
 73
4
 74
0
 40
0
 40
0
 40
0
 40
0
 40
1
 40
1
 40
1
 40
1
 10
349.648935
 20
80.878690
 30
0.0
 10
349.648935
 20
77.663299
 30
0.0
 10
351.364325
 20
74.692156
 30
0.0
 10
354.148935
 20
73.084461
 30
0.0
  0
SPLINE
  5
166
100
AcDbEntity
  8
02___PRT_ALL_AXES
 62
4
100
AcDbSpline
 70
8
 71
3
 72
8
 73
4
 74
0
 40
0
 40
0
 40
0
 40
0
 40
1
 40
1
 40
1
 40
1
 10
354.148935
 20
73.084461
 30
0.0
 10
356.933545
 20
71.476766
 30
0.0
 10
360.364325
 20
71.476766
 30
0.0
 10
363.148935
 20
73.084461
 30
0.0
  0
SPLINE
  5
167
100
AcDbEntity
  8
02___PRT_ALL_AXES
 62
4
100
AcDbSpline
 70
8
 71
3
 72
8
 73
4
 74
0
 40
0
 40
0
 40
0
 40
0
 40
1
 40
1
 40
1
 40
1
 10
363.148935
 20
73.084461
 30
0.0
 10
365.933545
 20
74.692156
 30
0.0
 10
367.648935
 20
77.663299
 30
0.0
 10
367.648935
 20
80.878690
 30
0.0
  0
LWPOLYLINE
  5
168
100
AcDbEntity
  8
0
 62
4
100
AcDbPolyline
 90
1
 70
1
 10
723.910620
 20
437.140390
 30
0.0
  0
SPLINE
  5
169
100
AcDbEntity
  8
02___PRT_ALL_AXES
 62
4
100
AcDbSpline
 70
8
 71
3
 72
8
 73
4
 74
0
 40
0
 40
0
 40
0
 40
0
 40
1
 40
1
 40
1
 40
1
 10
437.471047
 20
172.865507
 30
0.0
 10
437.471047
 20
175.437819
 30
0.0
 10
436.098735
 20
177.814734
 30
0.0
 10
433.871048
 20
179.100890
 30
0.0
  0
SPLINE
  5
16a
100
AcDbEntity
  8
02___PRT_ALL_AXES
 62
4
100
AcDbSpline
 70
8
 71
3
 72
8
 73
4
 74
0
 40
0
 40
0
 40
0
 40
0
 40
1
 40
1
 40
1
 40
1
 10
433.871048
 20
179.100890
 30
0.0
 10
431.643360
 20
180.387046
 30
0.0
 10
428.898735
 20
180.387046
 30
0.0
 10
426.671047
 20
179.100890
 30
0.0
  0
SPLINE
  5
16b
100
AcDbEntity
  8
02___PRT_ALL_AXES
 62
4
100
AcDbSpline
 70
8
 71
3
 72
8
 73
4
 74
0
 40
0
 40
0
 40
0
 40
0
 40
1
 40
1
 40
1
 40
1
 10
426.671047
 20
179.100890
 30
0.0
 10
424.443360
 20
177.814734
 30
0.0
 10
423.071047
 20
175.437819
 30
0.0
 10
423.071047
 20
172.865507
 30
0.0
  0
SPLINE
  5
16c
100
AcDbEntity
  8
02___PRT_ALL_AXES
 62
4
100
AcDbSpline
 70
8
 71
3
 72
8
 73
4
 74
0
 40
0
 40
0
 40
0
 40
0
 40
1
 40
1
 40
1
 40
1
 10
423.071047
 20
172.865507
 30
0.0
 10
423.071047
 20
170.293195
 30
0.0
 10
424.443360
 20
167.916280
 30
0.0
 10
426.671047
 20
166.630124
 30
0.0
  0
SPLINE
  5
16d
100
AcDbEntity
  8
02___PRT_ALL_AXES
 62
4
100
AcDbSpline
 70
8
 71
3
 72
8
 73
4
 74
0
 40
0
 40
0
 40
0
 40
0
 40
1
 40
1
 40
1
 40
1
 10
426.671047
 20
166.630124
 30
0.0
 10
428.898735
 20
165.343968
 30
0.0
 10
431.643360
 20
165.343968
 30
0.0
 10
433.871048
 20
166.630124
 30
0.0
  0
SPLINE
  5
16e
100
AcDbEntity
  8
02___PRT_ALL_AXES
 62
4
100
AcDbSpline
 70
8
 71
3
 72
8
 73
4
 74
0
 40
0
 40
0
 40
0
 40
0
 40
1
 40
1
 40
1
 40
1
 10
433.871048
 20
166.630124
 30
0.0
 10
436.098735
 20
167.916280
 30
0.0
 10
437.471047
 20
170.293195
 30
0.0
 10
437.471047
 20
172.865507
 30
0.0
  0
LWPOLYLINE
  5
16f
100
AcDbEntity
  8
02___PRT_ALL_AXES
 62
4
100
AcDbPolyline
 90
1
 70
1
 10
367.648935
 20
80.878690
 30
0.0
  0
SPLINE
  5
170
100
AcDbEntity
  8
02___PRT_ALL_AXES
 62
4
100
AcDbSpline
 70
8
 71
3
 72
8
 73
4
 74
0
 40
0
 40
0
 40
0
 40
0
 40
1
 40
1
 40
1
 40
1
 10
457.835722
 20
152.500832
 30
0.0
 10
457.835722
 20
155.073144
 30
0.0
 10
456.463410
 20
157.450059
 30
0.0
 10
454.235723
 20
158.736215
 30
0.0
  0
SPLINE
  5
171
100
AcDbEntity
  8
02___PRT_ALL_AXES
 62
4
100
AcDbSpline
 70
8
 71
3
 72
8
 73
4
 74
0
 40
0
 40
0
 40
0
 40
0
 40
1
 40
1
 40
1
 40
1
 10
454.235723
 20
158.736215
 30
0.0
 10
452.008035
 20
160.022371
 30
0.0
 10
449.263410
 20
160.022371
 30
0.0
 10
447.035723
 20
158.736215
 30
0.0
  0
SPLINE
  5
172
100
AcDbEntity
  8
02___PRT_ALL_AXES
 62
4
100
AcDbSpline
 70
8
 71
3
 72
8
 73
4
 74
0
 40
0
 40
0
 40
0
 40
0
 40
1
 40
1
 40
1
 40
1
 10
447.035723
 20
158.736215
 30
0.0
 10
444.808035
 20
157.450059
 30
0.0
 10
443.435722
 20
155.073144
 30
0.0
 10
443.435722
 20
152.500832
 30
0.0
  0
SPLINE
  5
173
100
AcDbEntity
  8
02___PRT_ALL_AXES
 62
4
100
AcDbSpline
 70
8
 71
3
 72
8
 73
4
 74
0
 40
0
 40
0
 40
0
 40
0
 40
1
 40
1
 40
1
 40
1
 10
443.435722
 20
152.500832
 30
0.0
 10
443.435722
 20
149.928520
 30
0.0
 10
444.808035
 20
147.551605
 30
0.0
 10
447.035723
 20
146.265449
 30
0.0
  0
SPLINE
  5
174
100
AcDbEntity
  8
02___PRT_ALL_AXES
 62
4
100
AcDbSpline
 70
8
 71
3
 72
8
 73
4
 74
0
 40
0
 40
0
 40
0
 40
0
 40
1
 40
1
 40
1
 40
1
 10
447.035723
 20
146.265449
 30
0.0
 10
449.263410
 20
144.979293
 30
0.0
 10
452.008035
 20
144.979293
 30
0.0
 10
454.235723
 20
146.265449
 30
0.0
  0
SPLINE
  5
175
100
AcDbEntity
  8
02___PRT_ALL_AXES
 62
4
100
AcDbSpline
 70
8
 71
3
 72
8
 73
4
 74
0
 40
0
 40
0
 40
0
 40
0
 40
1
 40
1
 40
1
 40
1
 10
454.235723
 20
146.265449
 30
0.0
 10
456.463410
 20
147.551605
 30
0.0
 10
457.835722
 20
149.928520
 30
0.0
 10
457.835722
 20
152.500832
 30
0.0
  0
LWPOLYLINE
  5
176
100
AcDbEntity
  8
02___PRT_ALL_AXES
 62
4
100
AcDbPolyline
 90
1
 70
1
 10
437.471047
 20
172.865507
 30
0.0
  0
SPLINE
  5
177
100
AcDbEntity
  8
02___PRT_ALL_AXES
 62
4
100
AcDbSpline
 70
8
 71
3
 72
8
 73
4
 74
0
 40
0
 40
0
 40
0
 40
0
 40
1
 40
1
 40
1
 40
1
 10
364.318215
 20
105.358720
 30
0.0
 10
364.318215
 20
107.384158
 30
0.0
 10
363.237656
 20
109.255741
 30
0.0
 10
361.483575
 20
110.268460
 30
0.0
  0
SPLINE
  5
178
100
AcDbEntity
  8
02___PRT_ALL_AXES
 62
4
100
AcDbSpline
 70
8
 71
3
 72
8
 73
4
 74
0
 40
0
 40
0
 40
0
 40
0
 40
1
 40
1
 40
1
 40
1
 10
361.483575
 20
110.268460
 30
0.0
 10
359.729494
 20
111.281180
 30
0.0
 10
357.568376
 20
111.281180
 30
0.0
 10
355.814295
 20
110.268460
 30
0.0
  0
SPLINE
  5
179
100
AcDbEntity
  8
02___PRT_ALL_AXES
 62
4
100
AcDbSpline
 70
8
 71
3
 72
8
 73
4
 74
0
 40
0
 40
0
 40
0
 40
0
 40
1
 40
1
 40
1
 40
1
 10
355.814295
 20
110.268460
 30
0.0
 10
354.060214
 20
109.255741
 30
0.0
 10
352.979655
 20
107.384158
 30
0.0
 10
352.979655
 20
105.358720
 30
0.0
  0
SPLINE
  5
17a
100
AcDbEntity
  8
02___PRT_ALL_AXES
 62
4
100
AcDbSpline
 70
8
 71
3
 72
8
 73
4
 74
0
 40
0
 40
0
 40
0
 40
0
 40
1
 40
1
 40
1
 40
1
 10
352.979655
 20
105.358720
 30
0.0
 10
352.979655
 20
103.333281
 30
0.0
 10
354.060214
 20
101.461699
 30
0.0
 10
355.814295
 20
100.448979
 30
0.0
  0
SPLINE
  5
17b
100
AcDbEntity
  8
02___PRT_ALL_AXES
 62
4
100
AcDbSpline
 70
8
 71
3
 72
8
 73
4
 74
0
 40
0
 40
0
 40
0
 40
0
 40
1
 40
1
 40
1
 40
1
 10
355.814295
 20
100.448979
 30
0.0
 10
357.568376
 20
99.436260
 30
0.0
 10
359.729494
 20
99.436260
 30
0.0
 10
361.483575
 20
100.448979
 30
0.0
  0
SPLINE
  5
17c
100
AcDbEntity
  8
02___PRT_ALL_AXES
 62
4
100
AcDbSpline
 70
8
 71
3
 72
8
 73
4
 74
0
 40
0
 40
0
 40
0
 40
0
 40
1
 40
1
 40
1
 40
1
 10
361.483575
 20
100.448979
 30
0.0
 10
363.237656
 20
101.461699
 30
0.0
 10
364.318215
 20
103.333281
 30
0.0
 10
364.318215
 20
105.358720
 30
0.0
  0
LWPOLYLINE
  5
17d
100
AcDbEntity
  8
02___PRT_ALL_AXES
 62
4
100
AcDbPolyline
 90
1
 70
1
 10
457.835722
 20
152.500832
 30
0.0
  0
SPLINE
  5
17e
100
AcDbEntity
  8
02___PRT_ALL_AXES
 62
4
100
AcDbSpline
 70
8
 71
3
 72
8
 73
4
 74
0
 40
0
 40
0
 40
0
 40
0
 40
1
 40
1
 40
1
 40
1
 10
339.838215
 20
80.878690
 30
0.0
 10
339.838215
 20
82.904128
 30
0.0
 10
338.757656
 20
84.775711
 30
0.0
 10
337.003575
 20
85.788430
 30
0.0
  0
SPLINE
  5
17f
100
AcDbEntity
  8
02___PRT_ALL_AXES
 62
4
100
AcDbSpline
 70
8
 71
3
 72
8
 73
4
 74
0
 40
0
 40
0
 40
0
 40
0
 40
1
 40
1
 40
1
 40
1
 10
337.003575
 20
85.788430
 30
0.0
 10
335.249494
 20
86.801150
 30
0.0
 10
333.088376
 20
86.801150
 30
0.0
 10
331.334295
 20
85.788430
 30
0.0
  0
SPLINE
  5
180
100
AcDbEntity
  8
02___PRT_ALL_AXES
 62
4
100
AcDbSpline
 70
8
 71
3
 72
8
 73
4
 74
0
 40
0
 40
0
 40
0
 40
0
 40
1
 40
1
 40
1
 40
1
 10
331.334295
 20
85.788430
 30
0.0
 10
329.580214
 20
84.775711
 30
0.0
 10
328.499655
 20
82.904128
 30
0.0
 10
328.499655
 20
80.878690
 30
0.0
  0
SPLINE
  5
181
100
AcDbEntity
  8
02___PRT_ALL_AXES
 62
4
100
AcDbSpline
 70
8
 71
3
 72
8
 73
4
 74
0
 40
0
 40
0
 40
0
 40
0
 40
1
 40
1
 40
1
 40
1
 10
328.499655
 20
80.878690
 30
0.0
 10
328.499655
 20
78.853251
 30
0.0
 10
329.580214
 20
76.981669
 30
0.0
 10
331.334295
 20
75.968949
 30
0.0
  0
SPLINE
  5
182
100
AcDbEntity
  8
02___PRT_ALL_AXES
 62
4
100
AcDbSpline
 70
8
 71
3
 72
8
 73
4
 74
0
 40
0
 40
0
 40
0
 40
0
 40
1
 40
1
 40
1
 40
1
 10
331.334295
 20
75.968949
 30
0.0
 10
333.088376
 20
74.956230
 30
0.0
 10
335.249494
 20
74.956230
 30
0.0
 10
337.003575
 20
75.968949
 30
0.0
  0
SPLINE
  5
183
100
AcDbEntity
  8
02___PRT_ALL_AXES
 62
4
100
AcDbSpline
 70
8
 71
3
 72
8
 73
4
 74
0
 40
0
 40
0
 40
0
 40
0
 40
1
 40
1
 40
1
 40
1
 10
337.003575
 20
75.968949
 30
0.0
 10
338.757656
 20
76.981669
 30
0.0
 10
339.838215
 20
78.853251
 30
0.0
 10
339.838215
 20
80.878690
 30
0.0
  0
LWPOLYLINE
  5
184
100
AcDbEntity
  8
02___PRT_ALL_AXES
 62
4
100
AcDbPolyline
 90
1
 70
1
 10
364.318215
 20
105.358720
 30
0.0
  0
SPLINE
  5
185
100
AcDbEntity
  8
02___PRT_ALL_AXES
 62
4
100
AcDbSpline
 70
8
 71
3
 72
8
 73
4
 74
0
 40
0
 40
0
 40
0
 40
0
 40
1
 40
1
 40
1
 40
1
 10
388.798215
 20
80.878690
 30
0.0
 10
388.798215
 20
82.904128
 30
0.0
 10
387.717656
 20
84.775711
 30
0.0
 10
385.963575
 20
85.788430
 30
0.0
  0
SPLINE
  5
186
100
AcDbEntity
  8
02___PRT_ALL_AXES
 62
4
100
AcDbSpline
 70
8
 71
3
 72
8
 73
4
 74
0
 40
0
 40
0
 40
0
 40
0
 40
1
 40
1
 40
1
 40
1
 10
385.963575
 20
85.788430
 30
0.0
 10
384.209494
 20
86.801150
 30
0.0
 10
382.048376
 20
86.801150
 30
0.0
 10
380.294295
 20
85.788430
 30
0.0
  0
SPLINE
  5
187
100
AcDbEntity
  8
02___PRT_ALL_AXES
 62
4
100
AcDbSpline
 70
8
 71
3
 72
8
 73
4
 74
0
 40
0
 40
0
 40
0
 40
0
 40
1
 40
1
 40
1
 40
1
 10
380.294295
 20
85.788430
 30
0.0
 10
378.540214
 20
84.775711
 30
0.0
 10
377.459655
 20
82.904128
 30
0.0
 10
377.459655
 20
80.878690
 30
0.0
  0
SPLINE
  5
188
100
AcDbEntity
  8
02___PRT_ALL_AXES
 62
4
100
AcDbSpline
 70
8
 71
3
 72
8
 73
4
 74
0
 40
0
 40
0
 40
0
 40
0
 40
1
 40
1
 40
1
 40
1
 10
377.459655
 20
80.878690
 30
0.0
 10
377.459655
 20
78.853251
 30
0.0
 10
378.540214
 20
76.981669
 30
0.0
 10
380.294295
 20
75.968949
 30
0.0
  0
SPLINE
  5
189
100
AcDbEntity
  8
02___PRT_ALL_AXES
 62
4
100
AcDbSpline
 70
8
 71
3
 72
8
 73
4
 74
0
 40
0
 40
0
 40
0
 40
0
 40
1
 40
1
 40
1
 40
1
 10
380.294295
 20
75.968949
 30
0.0
 10
382.048376
 20
74.956230
 30
0.0
 10
384.209494
 20
74.956230
 30
0.0
 10
385.963575
 20
75.968949
 30
0.0
  0
SPLINE
  5
18a
100
AcDbEntity
  8
02___PRT_ALL_AXES
 62
4
100
AcDbSpline
 70
8
 71
3
 72
8
 73
4
 74
0
 40
0
 40
0
 40
0
 40
0
 40
1
 40
1
 40
1
 40
1
 10
385.963575
 20
75.968949
 30
0.0
 10
387.717656
 20
76.981669
 30
0.0
 10
388.798215
 20
78.853251
 30
0.0
 10
388.798215
 20
80.878690
 30
0.0
  0
LWPOLYLINE
  5
18b
100
AcDbEntity
  8
02___PRT_ALL_AXES
 62
4
100
AcDbPolyline
 90
1
 70
1
 10
339.838215
 20
80.878690
 30
0.0
  0
SPLINE
  5
18c
100
AcDbEntity
  8
02___PRT_ALL_AXES
 62
4
100
AcDbSpline
 70
8
 71
3
 72
8
 73
4
 74
0
 40
0
 40
0
 40
0
 40
0
 40
1
 40
1
 40
1
 40
1
 10
364.318215
 20
56.398690
 30
0.0
 10
364.318215
 20
58.424128
 30
0.0
 10
363.237656
 20
60.295711
 30
0.0
 10
361.483575
 20
61.308430
 30
0.0
  0
SPLINE
  5
18d
100
AcDbEntity
  8
02___PRT_ALL_AXES
 62
4
100
AcDbSpline
 70
8
 71
3
 72
8
 73
4
 74
0
 40
0
 40
0
 40
0
 40
0
 40
1
 40
1
 40
1
 40
1
 10
361.483575
 20
61.308430
 30
0.0
 10
359.729494
 20
62.321150
 30
0.0
 10
357.568376
 20
62.321150
 30
0.0
 10
355.814295
 20
61.308430
 30
0.0
  0
SPLINE
  5
18e
100
AcDbEntity
  8
02___PRT_ALL_AXES
 62
4
100
AcDbSpline
 70
8
 71
3
 72
8
 73
4
 74
0
 40
0
 40
0
 40
0
 40
0
 40
1
 40
1
 40
1
 40
1
 10
355.814295
 20
61.308430
 30
0.0
 10
354.060214
 20
60.295711
 30
0.0
 10
352.979655
 20
58.424128
 30
0.0
 10
352.979655
 20
56.398690
 30
0.0
  0
SPLINE
  5
18f
100
AcDbEntity
  8
02___PRT_ALL_AXES
 62
4
100
AcDbSpline
 70
8
 71
3
 72
8
 73
4
 74
0
 40
0
 40
0
 40
0
 40
0
 40
1
 40
1
 40
1
 40
1
 10
352.979655
 20
56.398690
 30
0.0
 10
352.979655
 20
54.373251
 30
0.0
 10
354.060214
 20
52.501669
 30
0.0
 10
355.814295
 20
51.488949
 30
0.0
  0
SPLINE
  5
190
100
AcDbEntity
  8
02___PRT_ALL_AXES
 62
4
100
AcDbSpline
 70
8
 71
3
 72
8
 73
4
 74
0
 40
0
 40
0
 40
0
 40
0
 40
1
 40
1
 40
1
 40
1
 10
355.814295
 20
51.488949
 30
0.0
 10
357.568376
 20
50.476230
 30
0.0
 10
359.729494
 20
50.476230
 30
0.0
 10
361.483575
 20
51.488949
 30
0.0
  0
SPLINE
  5
191
100
AcDbEntity
  8
02___PRT_ALL_AXES
 62
4
100
AcDbSpline
 70
8
 71
3
 72
8
 73
4
 74
0
 40
0
 40
0
 40
0
 40
0
 40
1
 40
1
 40
1
 40
1
 10
361.483575
 20
51.488949
 30
0.0
 10
363.237656
 20
52.501669
 30
0.0
 10
364.318215
 20
54.373251
 30
0.0
 10
364.318215
 20
56.398690
 30
0.0
  0
LWPOLYLINE
  5
192
100
AcDbEntity
  8
02___PRT_ALL_AXES
 62
4
100
AcDbPolyline
 90
1
 70
1
 10
388.798215
 20
80.878690
 30
0.0
  0
SPLINE
  5
193
100
AcDbEntity
  8
02___PRT_ALL_AXES
 62
4
100
AcDbSpline
 70
8
 71
3
 72
8
 73
4
 74
0
 40
0
 40
0
 40
0
 40
0
 40
1
 40
1
 40
1
 40
1
 10
367.648935
 20
793.402055
 30
0.0
 10
367.648935
 20
796.617446
 30
0.0
 10
365.933545
 20
799.588589
 30
0.0
 10
363.148935
 20
801.196284
 30
0.0
  0
SPLINE
  5
194
100
AcDbEntity
  8
02___PRT_ALL_AXES
 62
4
100
AcDbSpline
 70
8
 71
3
 72
8
 73
4
 74
0
 40
0
 40
0
 40
0
 40
0
 40
1
 40
1
 40
1
 40
1
 10
363.148935
 20
801.196284
 30
0.0
 10
360.364325
 20
802.803979
 30
0.0
 10
356.933545
 20
802.803979
 30
0.0
 10
354.148935
 20
801.196284
 30
0.0
  0
SPLINE
  5
195
100
AcDbEntity
  8
02___PRT_ALL_AXES
 62
4
100
AcDbSpline
 70
8
 71
3
 72
8
 73
4
 74
0
 40
0
 40
0
 40
0
 40
0
 40
1
 40
1
 40
1
 40
1
 10
354.148935
 20
801.196284
 30
0.0
 10
351.364325
 20
799.588589
 30
0.0
 10
349.648935
 20
796.617446
 30
0.0
 10
349.648935
 20
793.402055
 30
0.0
  0
SPLINE
  5
196
100
AcDbEntity
  8
02___PRT_ALL_AXES
 62
4
100
AcDbSpline
 70
8
 71
3
 72
8
 73
4
 74
0
 40
0
 40
0
 40
0
 40
0
 40
1
 40
1
 40
1
 40
1
 10
349.648935
 20
793.402055
 30
0.0
 10
349.648935
 20
790.186665
 30
0.0
 10
351.364325
 20
787.215522
 30
0.0
 10
354.148935
 20
785.607827
 30
0.0
  0
SPLINE
  5
197
100
AcDbEntity
  8
02___PRT_ALL_AXES
 62
4
100
AcDbSpline
 70
8
 71
3
 72
8
 73
4
 74
0
 40
0
 40
0
 40
0
 40
0
 40
1
 40
1
 40
1
 40
1
 10
354.148935
 20
785.607827
 30
0.0
 10
356.933545
 20
784.000131
 30
0.0
 10
360.364325
 20
784.000131
 30
0.0
 10
363.148935
 20
785.607827
 30
0.0
  0
SPLINE
  5
198
100
AcDbEntity
  8
02___PRT_ALL_AXES
 62
4
100
AcDbSpline
 70
8
 71
3
 72
8
 73
4
 74
0
 40
0
 40
0
 40
0
 40
0
 40
1
 40
1
 40
1
 40
1
 10
363.148935
 20
785.607827
 30
0.0
 10
365.933545
 20
787.215522
 30
0.0
 10
367.648935
 20
790.186665
 30
0.0
 10
367.648935
 20
793.402055
 30
0.0
  0
LWPOLYLINE
  5
199
100
AcDbEntity
  8
02___PRT_ALL_AXES
 62
4
100
AcDbPolyline
 90
1
 70
1
 10
364.318215
 20
56.398690
 30
0.0
  0
SPLINE
  5
19a
100
AcDbEntity
  8
02___PRT_ALL_AXES
 62
4
100
AcDbSpline
 70
8
 71
3
 72
8
 73
4
 74
0
 40
0
 40
0
 40
0
 40
0
 40
1
 40
1
 40
1
 40
1
 10
457.835722
 20
721.779940
 30
0.0
 10
457.835722
 20
724.352252
 30
0.0
 10
456.463410
 20
726.729167
 30
0.0
 10
454.235723
 20
728.015323
 30
0.0
  0
SPLINE
  5
19b
100
AcDbEntity
  8
02___PRT_ALL_AXES
 62
4
100
AcDbSpline
 70
8
 71
3
 72
8
 73
4
 74
0
 40
0
 40
0
 40
0
 40
0
 40
1
 40
1
 40
1
 40
1
 10
454.235723
 20
728.015323
 30
0.0
 10
452.008035
 20
729.301479
 30
0.0
 10
449.263410
 20
729.301479
 30
0.0
 10
447.035723
 20
728.015323
 30
0.0
  0
SPLINE
  5
19c
100
AcDbEntity
  8
02___PRT_ALL_AXES
 62
4
100
AcDbSpline
 70
8
 71
3
 72
8
 73
4
 74
0
 40
0
 40
0
 40
0
 40
0
 40
1
 40
1
 40
1
 40
1
 10
447.035723
 20
728.015323
 30
0.0
 10
444.808035
 20
726.729167
 30
0.0
 10
443.435722
 20
724.352252
 30
0.0
 10
443.435722
 20
721.779940
 30
0.0
  0
SPLINE
  5
19d
100
AcDbEntity
  8
02___PRT_ALL_AXES
 62
4
100
AcDbSpline
 70
8
 71
3
 72
8
 73
4
 74
0
 40
0
 40
0
 40
0
 40
0
 40
1
 40
1
 40
1
 40
1
 10
443.435722
 20
721.779940
 30
0.0
 10
443.435722
 20
719.207628
 30
0.0
 10
444.808035
 20
716.830713
 30
0.0
 10
447.035723
 20
715.544557
 30
0.0
  0
SPLINE
  5
19e
100
AcDbEntity
  8
02___PRT_ALL_AXES
 62
4
100
AcDbSpline
 70
8
 71
3
 72
8
 73
4
 74
0
 40
0
 40
0
 40
0
 40
0
 40
1
 40
1
 40
1
 40
1
 10
447.035723
 20
715.544557
 30
0.0
 10
449.263410
 20
714.258401
 30
0.0
 10
452.008035
 20
714.258401
 30
0.0
 10
454.235723
 20
715.544557
 30
0.0
  0
SPLINE
  5
19f
100
AcDbEntity
  8
02___PRT_ALL_AXES
 62
4
100
AcDbSpline
 70
8
 71
3
 72
8
 73
4
 74
0
 40
0
 40
0
 40
0
 40
0
 40
1
 40
1
 40
1
 40
1
 10
454.235723
 20
715.544557
 30
0.0
 10
456.463410
 20
716.830713
 30
0.0
 10
457.835722
 20
719.207628
 30
0.0
 10
457.835722
 20
721.779940
 30
0.0
  0
LWPOLYLINE
  5
1a0
100
AcDbEntity
  8
02___PRT_ALL_AXES
 62
4
100
AcDbPolyline
 90
1
 70
1
 10
367.648935
 20
793.402055
 30
0.0
  0
SPLINE
  5
1a1
100
AcDbEntity
  8
02___PRT_ALL_AXES
 62
4
100
AcDbSpline
 70
8
 71
3
 72
8
 73
4
 74
0
 40
0
 40
0
 40
0
 40
0
 40
1
 40
1
 40
1
 40
1
 10
437.471047
 20
701.415272
 30
0.0
 10
437.471047
 20
703.987584
 30
0.0
 10
436.098735
 20
706.364499
 30
0.0
 10
433.871048
 20
707.650655
 30
0.0
  0
SPLINE
  5
1a2
100
AcDbEntity
  8
02___PRT_ALL_AXES
 62
4
100
AcDbSpline
 70
8
 71
3
 72
8
 73
4
 74
0
 40
0
 40
0
 40
0
 40
0
 40
1
 40
1
 40
1
 40
1
 10
433.871048
 20
707.650655
 30
0.0
 10
431.643360
 20
708.936811
 30
0.0
 10
428.898735
 20
708.936811
 30
0.0
 10
426.671047
 20
707.650655
 30
0.0
  0
SPLINE
  5
1a3
100
AcDbEntity
  8
02___PRT_ALL_AXES
 62
4
100
AcDbSpline
 70
8
 71
3
 72
8
 73
4
 74
0
 40
0
 40
0
 40
0
 40
0
 40
1
 40
1
 40
1
 40
1
 10
426.671047
 20
707.650655
 30
0.0
 10
424.443360
 20
706.364499
 30
0.0
 10
423.071047
 20
703.987584
 30
0.0
 10
423.071047
 20
701.415272
 30
0.0
  0
SPLINE
  5
1a4
100
AcDbEntity
  8
02___PRT_ALL_AXES
 62
4
100
AcDbSpline
 70
8
 71
3
 72
8
 73
4
 74
0
 40
0
 40
0
 40
0
 40
0
 40
1
 40
1
 40
1
 40
1
 10
423.071047
 20
701.415272
 30
0.0
 10
423.071047
 20
698.842960
 30
0.0
 10
424.443360
 20
696.466045
 30
0.0
 10
426.671047
 20
695.179889
 30
0.0
  0
SPLINE
  5
1a5
100
AcDbEntity
  8
02___PRT_ALL_AXES
 62
4
100
AcDbSpline
 70
8
 71
3
 72
8
 73
4
 74
0
 40
0
 40
0
 40
0
 40
0
 40
1
 40
1
 40
1
 40
1
 10
426.671047
 20
695.179889
 30
0.0
 10
428.898735
 20
693.893733
 30
0.0
 10
431.643360
 20
693.893733
 30
0.0
 10
433.871048
 20
695.179889
 30
0.0
  0
SPLINE
  5
1a6
100
AcDbEntity
  8
02___PRT_ALL_AXES
 62
4
100
AcDbSpline
 70
8
 71
3
 72
8
 73
4
 74
0
 40
0
 40
0
 40
0
 40
0
 40
1
 40
1
 40
1
 40
1
 10
433.871048
 20
695.179889
 30
0.0
 10
436.098735
 20
696.466045
 30
0.0
 10
437.471047
 20
698.842960
 30
0.0
 10
437.471047
 20
701.415272
 30
0.0
  0
LWPOLYLINE
  5
1a7
100
AcDbEntity
  8
02___PRT_ALL_AXES
 62
4
100
AcDbPolyline
 90
1
 70
1
 10
457.835722
 20
721.779940
 30
0.0
  0
SPLINE
  5
1a8
100
AcDbEntity
  8
02___PRT_ALL_AXES
 62
4
100
AcDbSpline
 70
8
 71
3
 72
8
 73
4
 74
0
 40
0
 40
0
 40
0
 40
0
 40
1
 40
1
 40
1
 40
1
 10
364.318215
 20
817.882055
 30
0.0
 10
364.318215
 20
819.907494
 30
0.0
 10
363.237656
 20
821.779076
 30
0.0
 10
361.483575
 20
822.791796
 30
0.0
  0
SPLINE
  5
1a9
100
AcDbEntity
  8
02___PRT_ALL_AXES
 62
4
100
AcDbSpline
 70
8
 71
3
 72
8
 73
4
 74
0
 40
0
 40
0
 40
0
 40
0
 40
1
 40
1
 40
1
 40
1
 10
361.483575
 20
822.791796
 30
0.0
 10
359.729494
 20
823.804515
 30
0.0
 10
357.568376
 20
823.804515
 30
0.0
 10
355.814295
 20
822.791796
 30
0.0
  0
SPLINE
  5
1aa
100
AcDbEntity
  8
02___PRT_ALL_AXES
 62
4
100
AcDbSpline
 70
8
 71
3
 72
8
 73
4
 74
0
 40
0
 40
0
 40
0
 40
0
 40
1
 40
1
 40
1
 40
1
 10
355.814295
 20
822.791796
 30
0.0
 10
354.060214
 20
821.779076
 30
0.0
 10
352.979655
 20
819.907494
 30
0.0
 10
352.979655
 20
817.882055
 30
0.0
  0
SPLINE
  5
1ab
100
AcDbEntity
  8
02___PRT_ALL_AXES
 62
4
100
AcDbSpline
 70
8
 71
3
 72
8
 73
4
 74
0
 40
0
 40
0
 40
0
 40
0
 40
1
 40
1
 40
1
 40
1
 10
352.979655
 20
817.882055
 30
0.0
 10
352.979655
 20
815.856617
 30
0.0
 10
354.060214
 20
813.985034
 30
0.0
 10
355.814295
 20
812.972315
 30
0.0
  0
SPLINE
  5
1ac
100
AcDbEntity
  8
02___PRT_ALL_AXES
 62
4
100
AcDbSpline
 70
8
 71
3
 72
8
 73
4
 74
0
 40
0
 40
0
 40
0
 40
0
 40
1
 40
1
 40
1
 40
1
 10
355.814295
 20
812.972315
 30
0.0
 10
357.568376
 20
811.959595
 30
0.0
 10
359.729494
 20
811.959595
 30
0.0
 10
361.483575
 20
812.972315
 30
0.0
  0
SPLINE
  5
1ad
100
AcDbEntity
  8
02___PRT_ALL_AXES
 62
4
100
AcDbSpline
 70
8
 71
3
 72
8
 73
4
 74
0
 40
0
 40
0
 40
0
 40
0
 40
1
 40
1
 40
1
 40
1
 10
361.483575
 20
812.972315
 30
0.0
 10
363.237656
 20
813.985034
 30
0.0
 10
364.318215
 20
815.856617
 30
0.0
 10
364.318215
 20
817.882055
 30
0.0
  0
LWPOLYLINE
  5
1ae
100
AcDbEntity
  8
02___PRT_ALL_AXES
 62
4
100
AcDbPolyline
 90
1
 70
1
 10
437.471047
 20
701.415272
 30
0.0
  0
SPLINE
  5
1af
100
AcDbEntity
  8
02___PRT_ALL_AXES
 62
4
100
AcDbSpline
 70
8
 71
3
 72
8
 73
4
 74
0
 40
0
 40
0
 40
0
 40
0
 40
1
 40
1
 40
1
 40
1
 10
388.798215
 20
793.402055
 30
0.0
 10
388.798215
 20
795.427494
 30
0.0
 10
387.717656
 20
797.299076
 30
0.0
 10
385.963575
 20
798.311796
 30
0.0
  0
SPLINE
  5
1b0
100
AcDbEntity
  8
02___PRT_ALL_AXES
 62
4
100
AcDbSpline
 70
8
 71
3
 72
8
 73
4
 74
0
 40
0
 40
0
 40
0
 40
0
 40
1
 40
1
 40
1
 40
1
 10
385.963575
 20
798.311796
 30
0.0
 10
384.209494
 20
799.324515
 30
0.0
 10
382.048376
 20
799.324515
 30
0.0
 10
380.294295
 20
798.311796
 30
0.0
  0
SPLINE
  5
1b1
100
AcDbEntity
  8
02___PRT_ALL_AXES
 62
4
100
AcDbSpline
 70
8
 71
3
 72
8
 73
4
 74
0
 40
0
 40
0
 40
0
 40
0
 40
1
 40
1
 40
1
 40
1
 10
380.294295
 20
798.311796
 30
0.0
 10
378.540214
 20
797.299076
 30
0.0
 10
377.459655
 20
795.427494
 30
0.0
 10
377.459655
 20
793.402055
 30
0.0
  0
SPLINE
  5
1b2
100
AcDbEntity
  8
02___PRT_ALL_AXES
 62
4
100
AcDbSpline
 70
8
 71
3
 72
8
 73
4
 74
0
 40
0
 40
0
 40
0
 40
0
 40
1
 40
1
 40
1
 40
1
 10
377.459655
 20
793.402055
 30
0.0
 10
377.459655
 20
791.376617
 30
0.0
 10
378.540214
 20
789.505034
 30
0.0
 10
380.294295
 20
788.492315
 30
0.0
  0
SPLINE
  5
1b3
100
AcDbEntity
  8
02___PRT_ALL_AXES
 62
4
100
AcDbSpline
 70
8
 71
3
 72
8
 73
4
 74
0
 40
0
 40
0
 40
0
 40
0
 40
1
 40
1
 40
1
 40
1
 10
380.294295
 20
788.492315
 30
0.0
 10
382.048376
 20
787.479595
 30
0.0
 10
384.209494
 20
787.479595
 30
0.0
 10
385.963575
 20
788.492315
 30
0.0
  0
SPLINE
  5
1b4
100
AcDbEntity
  8
02___PRT_ALL_AXES
 62
4
100
AcDbSpline
 70
8
 71
3
 72
8
 73
4
 74
0
 40
0
 40
0
 40
0
 40
0
 40
1
 40
1
 40
1
 40
1
 10
385.963575
 20
788.492315
 30
0.0
 10
387.717656
 20
789.505034
 30
0.0
 10
388.798215
 20
791.376617
 30
0.0
 10
388.798215
 20
793.402055
 30
0.0
  0
LWPOLYLINE
  5
1b5
100
AcDbEntity
  8
02___PRT_ALL_AXES
 62
4
100
AcDbPolyline
 90
1
 70
1
 10
364.318215
 20
817.882055
 30
0.0
  0
SPLINE
  5
1b6
100
AcDbEntity
  8
02___PRT_ALL_AXES
 62
4
100
AcDbSpline
 70
8
 71
3
 72
8
 73
4
 74
0
 40
0
 40
0
 40
0
 40
0
 40
1
 40
1
 40
1
 40
1
 10
339.838215
 20
793.402055
 30
0.0
 10
339.838215
 20
795.427494
 30
0.0
 10
338.757656
 20
797.299076
 30
0.0
 10
337.003575
 20
798.311796
 30
0.0
  0
SPLINE
  5
1b7
100
AcDbEntity
  8
02___PRT_ALL_AXES
 62
4
100
AcDbSpline
 70
8
 71
3
 72
8
 73
4
 74
0
 40
0
 40
0
 40
0
 40
0
 40
1
 40
1
 40
1
 40
1
 10
337.003575
 20
798.311796
 30
0.0
 10
335.249494
 20
799.324515
 30
0.0
 10
333.088376
 20
799.324515
 30
0.0
 10
331.334295
 20
798.311796
 30
0.0
  0
SPLINE
  5
1b8
100
AcDbEntity
  8
02___PRT_ALL_AXES
 62
4
100
AcDbSpline
 70
8
 71
3
 72
8
 73
4
 74
0
 40
0
 40
0
 40
0
 40
0
 40
1
 40
1
 40
1
 40
1
 10
331.334295
 20
798.311796
 30
0.0
 10
329.580214
 20
797.299076
 30
0.0
 10
328.499655
 20
795.427494
 30
0.0
 10
328.499655
 20
793.402055
 30
0.0
  0
SPLINE
  5
1b9
100
AcDbEntity
  8
02___PRT_ALL_AXES
 62
4
100
AcDbSpline
 70
8
 71
3
 72
8
 73
4
 74
0
 40
0
 40
0
 40
0
 40
0
 40
1
 40
1
 40
1
 40
1
 10
328.499655
 20
793.402055
 30
0.0
 10
328.499655
 20
791.376617
 30
0.0
 10
329.580214
 20
789.505034
 30
0.0
 10
331.334295
 20
788.492315
 30
0.0
  0
SPLINE
  5
1ba
100
AcDbEntity
  8
02___PRT_ALL_AXES
 62
4
100
AcDbSpline
 70
8
 71
3
 72
8
 73
4
 74
0
 40
0
 40
0
 40
0
 40
0
 40
1
 40
1
 40
1
 40
1
 10
331.334295
 20
788.492315
 30
0.0
 10
333.088376
 20
787.479595
 30
0.0
 10
335.249494
 20
787.479595
 30
0.0
 10
337.003575
 20
788.492315
 30
0.0
  0
SPLINE
  5
1bb
100
AcDbEntity
  8
02___PRT_ALL_AXES
 62
4
100
AcDbSpline
 70
8
 71
3
 72
8
 73
4
 74
0
 40
0
 40
0
 40
0
 40
0
 40
1
 40
1
 40
1
 40
1
 10
337.003575
 20
788.492315
 30
0.0
 10
338.757656
 20
789.505034
 30
0.0
 10
339.838215
 20
791.376617
 30
0.0
 10
339.838215
 20
793.402055
 30
0.0
  0
LWPOLYLINE
  5
1bc
100
AcDbEntity
  8
02___PRT_ALL_AXES
 62
4
100
AcDbPolyline
 90
1
 70
1
 10
388.798215
 20
793.402055
 30
0.0
  0
SPLINE
  5
1bd
100
AcDbEntity
  8
02___PRT_ALL_AXES
 62
4
100
AcDbSpline
 70
8
 71
3
 72
8
 73
4
 74
0
 40
0
 40
0
 40
0
 40
0
 40
1
 40
1
 40
1
 40
1
 10
364.318215
 20
768.964445
 30
0.0
 10
364.318215
 20
770.989884
 30
0.0
 10
363.237656
 20
772.861466
 30
0.0
 10
361.483575
 20
773.874186
 30
0.0
  0
SPLINE
  5
1be
100
AcDbEntity
  8
02___PRT_ALL_AXES
 62
4
100
AcDbSpline
 70
8
 71
3
 72
8
 73
4
 74
0
 40
0
 40
0
 40
0
 40
0
 40
1
 40
1
 40
1
 40
1
 10
361.483575
 20
773.874186
 30
0.0
 10
359.729494
 20
774.886905
 30
0.0
 10
357.568376
 20
774.886905
 30
0.0
 10
355.814295
 20
773.874186
 30
0.0
  0
SPLINE
  5
1bf
100
AcDbEntity
  8
02___PRT_ALL_AXES
 62
4
100
AcDbSpline
 70
8
 71
3
 72
8
 73
4
 74
0
 40
0
 40
0
 40
0
 40
0
 40
1
 40
1
 40
1
 40
1
 10
355.814295
 20
773.874186
 30
0.0
 10
354.060214
 20
772.861466
 30
0.0
 10
352.979655
 20
770.989884
 30
0.0
 10
352.979655
 20
768.964445
 30
0.0
  0
SPLINE
  5
1c0
100
AcDbEntity
  8
02___PRT_ALL_AXES
 62
4
100
AcDbSpline
 70
8
 71
3
 72
8
 73
4
 74
0
 40
0
 40
0
 40
0
 40
0
 40
1
 40
1
 40
1
 40
1
 10
352.979655
 20
768.964445
 30
0.0
 10
352.979655
 20
766.939007
 30
0.0
 10
354.060214
 20
765.067424
 30
0.0
 10
355.814295
 20
764.054705
 30
0.0
  0
SPLINE
  5
1c1
100
AcDbEntity
  8
02___PRT_ALL_AXES
 62
4
100
AcDbSpline
 70
8
 71
3
 72
8
 73
4
 74
0
 40
0
 40
0
 40
0
 40
0
 40
1
 40
1
 40
1
 40
1
 10
355.814295
 20
764.054705
 30
0.0
 10
357.568376
 20
763.041985
 30
0.0
 10
359.729494
 20
763.041985
 30
0.0
 10
361.483575
 20
764.054705
 30
0.0
  0
SPLINE
  5
1c2
100
AcDbEntity
  8
02___PRT_ALL_AXES
 62
4
100
AcDbSpline
 70
8
 71
3
 72
8
 73
4
 74
0
 40
0
 40
0
 40
0
 40
0
 40
1
 40
1
 40
1
 40
1
 10
361.483575
 20
764.054705
 30
0.0
 10
363.237656
 20
765.067424
 30
0.0
 10
364.318215
 20
766.939007
 30
0.0
 10
364.318215
 20
768.964445
 30
0.0
  0
LWPOLYLINE
  5
1c3
100
AcDbEntity
  8
02___PRT_ALL_AXES
 62
4
100
AcDbPolyline
 90
1
 70
1
 10
339.838215
 20
793.402055
 30
0.0
  0
SPLINE
  5
1c4
100
AcDbEntity
  8
02___PRT_ALL_AXES
 62
4
100
AcDbSpline
 70
8
 71
3
 72
8
 73
4
 74
0
 40
0
 40
0
 40
0
 40
0
 40
1
 40
1
 40
1
 40
1
 10
1080.172275
 20
80.878690
 30
0.0
 10
1080.172275
 20
84.094080
 30
0.0
 10
1078.456885
 20
87.065223
 30
0.0
 10
1075.672275
 20
88.672918
 30
0.0
  0
SPLINE
  5
1c5
100
AcDbEntity
  8
02___PRT_ALL_AXES
 62
4
100
AcDbSpline
 70
8
 71
3
 72
8
 73
4
 74
0
 40
0
 40
0
 40
0
 40
0
 40
1
 40
1
 40
1
 40
1
 10
1075.672275
 20
88.672918
 30
0.0
 10
1072.887665
 20
90.280614
 30
0.0
 10
1069.456885
 20
90.280614
 30
0.0
 10
1066.672275
 20
88.672918
 30
0.0
  0
SPLINE
  5
1c6
100
AcDbEntity
  8
02___PRT_ALL_AXES
 62
4
100
AcDbSpline
 70
8
 71
3
 72
8
 73
4
 74
0
 40
0
 40
0
 40
0
 40
0
 40
1
 40
1
 40
1
 40
1
 10
1066.672275
 20
88.672918
 30
0.0
 10
1063.887665
 20
87.065223
 30
0.0
 10
1062.172275
 20
84.094080
 30
0.0
 10
1062.172275
 20
80.878690
 30
0.0
  0
SPLINE
  5
1c7
100
AcDbEntity
  8
02___PRT_ALL_AXES
 62
4
100
AcDbSpline
 70
8
 71
3
 72
8
 73
4
 74
0
 40
0
 40
0
 40
0
 40
0
 40
1
 40
1
 40
1
 40
1
 10
1062.172275
 20
80.878690
 30
0.0
 10
1062.172275
 20
77.663299
 30
0.0
 10
1063.887665
 20
74.692156
 30
0.0
 10
1066.672275
 20
73.084461
 30
0.0
  0
SPLINE
  5
1c8
100
AcDbEntity
  8
02___PRT_ALL_AXES
 62
4
100
AcDbSpline
 70
8
 71
3
 72
8
 73
4
 74
0
 40
0
 40
0
 40
0
 40
0
 40
1
 40
1
 40
1
 40
1
 10
1066.672275
 20
73.084461
 30
0.0
 10
1069.456885
 20
71.476766
 30
0.0
 10
1072.887665
 20
71.476766
 30
0.0
 10
1075.672275
 20
73.084461
 30
0.0
  0
SPLINE
  5
1c9
100
AcDbEntity
  8
02___PRT_ALL_AXES
 62
4
100
AcDbSpline
 70
8
 71
3
 72
8
 73
4
 74
0
 40
0
 40
0
 40
0
 40
0
 40
1
 40
1
 40
1
 40
1
 10
1075.672275
 20
73.084461
 30
0.0
 10
1078.456885
 20
74.692156
 30
0.0
 10
1080.172275
 20
77.663299
 30
0.0
 10
1080.172275
 20
80.878690
 30
0.0
  0
LWPOLYLINE
  5
1ca
100
AcDbEntity
  8
02___PRT_ALL_AXES
 62
4
100
AcDbPolyline
 90
1
 70
1
 10
364.318215
 20
768.964445
 30
0.0
  0
SPLINE
  5
1cb
100
AcDbEntity
  8
02___PRT_ALL_AXES
 62
4
100
AcDbSpline
 70
8
 71
3
 72
8
 73
4
 74
0
 40
0
 40
0
 40
0
 40
0
 40
1
 40
1
 40
1
 40
1
 10
986.385525
 20
152.500832
 30
0.0
 10
986.385525
 20
155.073144
 30
0.0
 10
985.013213
 20
157.450059
 30
0.0
 10
982.785525
 20
158.736215
 30
0.0
  0
SPLINE
  5
1cc
100
AcDbEntity
  8
02___PRT_ALL_AXES
 62
4
100
AcDbSpline
 70
8
 71
3
 72
8
 73
4
 74
0
 40
0
 40
0
 40
0
 40
0
 40
1
 40
1
 40
1
 40
1
 10
982.785525
 20
158.736215
 30
0.0
 10
980.557837
 20
160.022371
 30
0.0
 10
977.813213
 20
160.022371
 30
0.0
 10
975.585525
 20
158.736215
 30
0.0
  0
SPLINE
  5
1cd
100
AcDbEntity
  8
02___PRT_ALL_AXES
 62
4
100
AcDbSpline
 70
8
 71
3
 72
8
 73
4
 74
0
 40
0
 40
0
 40
0
 40
0
 40
1
 40
1
 40
1
 40
1
 10
975.585525
 20
158.736215
 30
0.0
 10
973.357837
 20
157.450059
 30
0.0
 10
971.985525
 20
155.073144
 30
0.0
 10
971.985525
 20
152.500832
 30
0.0
  0
SPLINE
  5
1ce
100
AcDbEntity
  8
02___PRT_ALL_AXES
 62
4
100
AcDbSpline
 70
8
 71
3
 72
8
 73
4
 74
0
 40
0
 40
0
 40
0
 40
0
 40
1
 40
1
 40
1
 40
1
 10
971.985525
 20
152.500832
 30
0.0
 10
971.985525
 20
149.928520
 30
0.0
 10
973.357837
 20
147.551605
 30
0.0
 10
975.585525
 20
146.265449
 30
0.0
  0
SPLINE
  5
1cf
100
AcDbEntity
  8
02___PRT_ALL_AXES
 62
4
100
AcDbSpline
 70
8
 71
3
 72
8
 73
4
 74
0
 40
0
 40
0
 40
0
 40
0
 40
1
 40
1
 40
1
 40
1
 10
975.585525
 20
146.265449
 30
0.0
 10
977.813213
 20
144.979293
 30
0.0
 10
980.557837
 20
144.979293
 30
0.0
 10
982.785525
 20
146.265449
 30
0.0
  0
SPLINE
  5
1d0
100
AcDbEntity
  8
02___PRT_ALL_AXES
 62
4
100
AcDbSpline
 70
8
 71
3
 72
8
 73
4
 74
0
 40
0
 40
0
 40
0
 40
0
 40
1
 40
1
 40
1
 40
1
 10
982.785525
 20
146.265449
 30
0.0
 10
985.013213
 20
147.551605
 30
0.0
 10
986.385525
 20
149.928520
 30
0.0
 10
986.385525
 20
152.500832
 30
0.0
  0
LWPOLYLINE
  5
1d1
100
AcDbEntity
  8
02___PRT_ALL_AXES
 62
4
100
AcDbPolyline
 90
1
 70
1
 10
1080.172275
 20
80.878690
 30
0.0
  0
SPLINE
  5
1d2
100
AcDbEntity
  8
02___PRT_ALL_AXES
 62
4
100
AcDbSpline
 70
8
 71
3
 72
8
 73
4
 74
0
 40
0
 40
0
 40
0
 40
0
 40
1
 40
1
 40
1
 40
1
 10
1006.750200
 20
172.865507
 30
0.0
 10
1006.750200
 20
175.437819
 30
0.0
 10
1005.377888
 20
177.814734
 30
0.0
 10
1003.150200
 20
179.100890
 30
0.0
  0
SPLINE
  5
1d3
100
AcDbEntity
  8
02___PRT_ALL_AXES
 62
4
100
AcDbSpline
 70
8
 71
3
 72
8
 73
4
 74
0
 40
0
 40
0
 40
0
 40
0
 40
1
 40
1
 40
1
 40
1
 10
1003.150200
 20
179.100890
 30
0.0
 10
1000.922512
 20
180.387046
 30
0.0
 10
998.177888
 20
180.387046
 30
0.0
 10
995.950200
 20
179.100890
 30
0.0
  0
SPLINE
  5
1d4
100
AcDbEntity
  8
02___PRT_ALL_AXES
 62
4
100
AcDbSpline
 70
8
 71
3
 72
8
 73
4
 74
0
 40
0
 40
0
 40
0
 40
0
 40
1
 40
1
 40
1
 40
1
 10
995.950200
 20
179.100890
 30
0.0
 10
993.722512
 20
177.814734
 30
0.0
 10
992.350200
 20
175.437819
 30
0.0
 10
992.350200
 20
172.865507
 30
0.0
  0
SPLINE
  5
1d5
100
AcDbEntity
  8
02___PRT_ALL_AXES
 62
4
100
AcDbSpline
 70
8
 71
3
 72
8
 73
4
 74
0
 40
0
 40
0
 40
0
 40
0
 40
1
 40
1
 40
1
 40
1
 10
992.350200
 20
172.865507
 30
0.0
 10
992.350200
 20
170.293195
 30
0.0
 10
993.722512
 20
167.916280
 30
0.0
 10
995.950200
 20
166.630124
 30
0.0
  0
SPLINE
  5
1d6
100
AcDbEntity
  8
02___PRT_ALL_AXES
 62
4
100
AcDbSpline
 70
8
 71
3
 72
8
 73
4
 74
0
 40
0
 40
0
 40
0
 40
0
 40
1
 40
1
 40
1
 40
1
 10
995.950200
 20
166.630124
 30
0.0
 10
998.177888
 20
165.343968
 30
0.0
 10
1000.922512
 20
165.343968
 30
0.0
 10
1003.150200
 20
166.630124
 30
0.0
  0
SPLINE
  5
1d7
100
AcDbEntity
  8
02___PRT_ALL_AXES
 62
4
100
AcDbSpline
 70
8
 71
3
 72
8
 73
4
 74
0
 40
0
 40
0
 40
0
 40
0
 40
1
 40
1
 40
1
 40
1
 10
1003.150200
 20
166.630124
 30
0.0
 10
1005.377888
 20
167.916280
 30
0.0
 10
1006.750200
 20
170.293195
 30
0.0
 10
1006.750200
 20
172.865507
 30
0.0
  0
LWPOLYLINE
  5
1d8
100
AcDbEntity
  8
02___PRT_ALL_AXES
 62
4
100
AcDbPolyline
 90
1
 70
1
 10
986.385525
 20
152.500832
 30
0.0
  0
SPLINE
  5
1d9
100
AcDbEntity
  8
02___PRT_ALL_AXES
 62
4
100
AcDbSpline
 70
8
 71
3
 72
8
 73
4
 74
0
 40
0
 40
0
 40
0
 40
0
 40
1
 40
1
 40
1
 40
1
 10
1076.841600
 20
105.358720
 30
0.0
 10
1076.841600
 20
107.384161
 30
0.0
 10
1075.761040
 20
109.255747
 30
0.0
 10
1074.006957
 20
110.268468
 30
0.0
  0
SPLINE
  5
1da
100
AcDbEntity
  8
02___PRT_ALL_AXES
 62
4
100
AcDbSpline
 70
8
 71
3
 72
8
 73
4
 74
0
 40
0
 40
0
 40
0
 40
0
 40
1
 40
1
 40
1
 40
1
 10
1074.006957
 20
110.268468
 30
0.0
 10
1072.252873
 20
111.281188
 30
0.0
 10
1070.091752
 20
111.281188
 30
0.0
 10
1068.337668
 20
110.268468
 30
0.0
  0
SPLINE
  5
1db
100
AcDbEntity
  8
02___PRT_ALL_AXES
 62
4
100
AcDbSpline
 70
8
 71
3
 72
8
 73
4
 74
0
 40
0
 40
0
 40
0
 40
0
 40
1
 40
1
 40
1
 40
1
 10
1068.337668
 20
110.268468
 30
0.0
 10
1066.583585
 20
109.255747
 30
0.0
 10
1065.503025
 20
107.384161
 30
0.0
 10
1065.503025
 20
105.358720
 30
0.0
  0
SPLINE
  5
1dc
100
AcDbEntity
  8
02___PRT_ALL_AXES
 62
4
100
AcDbSpline
 70
8
 71
3
 72
8
 73
4
 74
0
 40
0
 40
0
 40
0
 40
0
 40
1
 40
1
 40
1
 40
1
 10
1065.503025
 20
105.358720
 30
0.0
 10
1065.503025
 20
103.333278
 30
0.0
 10
1066.583585
 20
101.461693
 30
0.0
 10
1068.337669
 20
100.448973
 30
0.0
  0
SPLINE
  5
1dd
100
AcDbEntity
  8
02___PRT_ALL_AXES
 62
4
100
AcDbSpline
 70
8
 71
3
 72
8
 73
4
 74
0
 40
0
 40
0
 40
0
 40
0
 40
1
 40
1
 40
1
 40
1
 10
1068.337669
 20
100.448973
 30
0.0
 10
1070.091752
 20
99.436252
 30
0.0
 10
1072.252873
 20
99.436252
 30
0.0
 10
1074.006956
 20
100.448973
 30
0.0
  0
SPLINE
  5
1de
100
AcDbEntity
  8
02___PRT_ALL_AXES
 62
4
100
AcDbSpline
 70
8
 71
3
 72
8
 73
4
 74
0
 40
0
 40
0
 40
0
 40
0
 40
1
 40
1
 40
1
 40
1
 10
1074.006956
 20
100.448973
 30
0.0
 10
1075.761040
 20
101.461693
 30
0.0
 10
1076.841600
 20
103.333278
 30
0.0
 10
1076.841600
 20
105.358720
 30
0.0
  0
LWPOLYLINE
  5
1df
100
AcDbEntity
  8
02___PRT_ALL_AXES
 62
4
100
AcDbPolyline
 90
1
 70
1
 10
1006.750200
 20
172.865507
 30
0.0
  0
SPLINE
  5
1e0
100
AcDbEntity
  8
02___PRT_ALL_AXES
 62
4
100
AcDbSpline
 70
8
 71
3
 72
8
 73
4
 74
0
 40
0
 40
0
 40
0
 40
0
 40
1
 40
1
 40
1
 40
1
 10
1101.321600
 20
80.878690
 30
0.0
 10
1101.321600
 20
82.904131
 30
0.0
 10
1100.241040
 20
84.775716
 30
0.0
 10
1098.486956
 20
85.788437
 30
0.0
  0
SPLINE
  5
1e1
100
AcDbEntity
  8
02___PRT_ALL_AXES
 62
4
100
AcDbSpline
 70
8
 71
3
 72
8
 73
4
 74
0
 40
0
 40
0
 40
0
 40
0
 40
1
 40
1
 40
1
 40
1
 10
1098.486956
 20
85.788437
 30
0.0
 10
1096.732873
 20
86.801157
 30
0.0
 10
1094.571752
 20
86.801157
 30
0.0
 10
1092.817669
 20
85.788437
 30
0.0
  0
SPLINE
  5
1e2
100
AcDbEntity
  8
02___PRT_ALL_AXES
 62
4
100
AcDbSpline
 70
8
 71
3
 72
8
 73
4
 74
0
 40
0
 40
0
 40
0
 40
0
 40
1
 40
1
 40
1
 40
1
 10
1092.817669
 20
85.788437
 30
0.0
 10
1091.063585
 20
84.775716
 30
0.0
 10
1089.983025
 20
82.904131
 30
0.0
 10
1089.983025
 20
80.878690
 30
0.0
  0
SPLINE
  5
1e3
100
AcDbEntity
  8
02___PRT_ALL_AXES
 62
4
100
AcDbSpline
 70
8
 71
3
 72
8
 73
4
 74
0
 40
0
 40
0
 40
0
 40
0
 40
1
 40
1
 40
1
 40
1
 10
1089.983025
 20
80.878690
 30
0.0
 10
1089.983025
 20
78.853248
 30
0.0
 10
1091.063585
 20
76.981663
 30
0.0
 10
1092.817669
 20
75.968943
 30
0.0
  0
SPLINE
  5
1e4
100
AcDbEntity
  8
02___PRT_ALL_AXES
 62
4
100
AcDbSpline
 70
8
 71
3
 72
8
 73
4
 74
0
 40
0
 40
0
 40
0
 40
0
 40
1
 40
1
 40
1
 40
1
 10
1092.817669
 20
75.968943
 30
0.0
 10
1094.571752
 20
74.956222
 30
0.0
 10
1096.732873
 20
74.956222
 30
0.0
 10
1098.486956
 20
75.968943
 30
0.0
  0
SPLINE
  5
1e5
100
AcDbEntity
  8
02___PRT_ALL_AXES
 62
4
100
AcDbSpline
 70
8
 71
3
 72
8
 73
4
 74
0
 40
0
 40
0
 40
0
 40
0
 40
1
 40
1
 40
1
 40
1
 10
1098.486956
 20
75.968943
 30
0.0
 10
1100.241040
 20
76.981663
 30
0.0
 10
1101.321600
 20
78.853248
 30
0.0
 10
1101.321600
 20
80.878690
 30
0.0
  0
LWPOLYLINE
  5
1e6
100
AcDbEntity
  8
02___PRT_ALL_AXES
 62
4
100
AcDbPolyline
 90
1
 70
1
 10
1076.841600
 20
105.358720
 30
0.0
  0
SPLINE
  5
1e7
100
AcDbEntity
  8
02___PRT_ALL_AXES
 62
4
100
AcDbSpline
 70
8
 71
3
 72
8
 73
4
 74
0
 40
0
 40
0
 40
0
 40
0
 40
1
 40
1
 40
1
 40
1
 10
1076.841600
 20
56.398690
 30
0.0
 10
1076.841600
 20
58.424131
 30
0.0
 10
1075.761040
 20
60.295717
 30
0.0
 10
1074.006957
 20
61.308438
 30
0.0
  0
SPLINE
  5
1e8
100
AcDbEntity
  8
02___PRT_ALL_AXES
 62
4
100
AcDbSpline
 70
8
 71
3
 72
8
 73
4
 74
0
 40
0
 40
0
 40
0
 40
0
 40
1
 40
1
 40
1
 40
1
 10
1074.006957
 20
61.308438
 30
0.0
 10
1072.252873
 20
62.321158
 30
0.0
 10
1070.091752
 20
62.321158
 30
0.0
 10
1068.337668
 20
61.308438
 30
0.0
  0
SPLINE
  5
1e9
100
AcDbEntity
  8
02___PRT_ALL_AXES
 62
4
100
AcDbSpline
 70
8
 71
3
 72
8
 73
4
 74
0
 40
0
 40
0
 40
0
 40
0
 40
1
 40
1
 40
1
 40
1
 10
1068.337668
 20
61.308438
 30
0.0
 10
1066.583585
 20
60.295717
 30
0.0
 10
1065.503025
 20
58.424131
 30
0.0
 10
1065.503025
 20
56.398690
 30
0.0
  0
SPLINE
  5
1ea
100
AcDbEntity
  8
02___PRT_ALL_AXES
 62
4
100
AcDbSpline
 70
8
 71
3
 72
8
 73
4
 74
0
 40
0
 40
0
 40
0
 40
0
 40
1
 40
1
 40
1
 40
1
 10
1065.503025
 20
56.398690
 30
0.0
 10
1065.503025
 20
54.373248
 30
0.0
 10
1066.583585
 20
52.501663
 30
0.0
 10
1068.337669
 20
51.488943
 30
0.0
  0
SPLINE
  5
1eb
100
AcDbEntity
  8
02___PRT_ALL_AXES
 62
4
100
AcDbSpline
 70
8
 71
3
 72
8
 73
4
 74
0
 40
0
 40
0
 40
0
 40
0
 40
1
 40
1
 40
1
 40
1
 10
1068.337669
 20
51.488943
 30
0.0
 10
1070.091752
 20
50.476222
 30
0.0
 10
1072.252873
 20
50.476222
 30
0.0
 10
1074.006956
 20
51.488943
 30
0.0
  0
SPLINE
  5
1ec
100
AcDbEntity
  8
02___PRT_ALL_AXES
 62
4
100
AcDbSpline
 70
8
 71
3
 72
8
 73
4
 74
0
 40
0
 40
0
 40
0
 40
0
 40
1
 40
1
 40
1
 40
1
 10
1074.006956
 20
51.488943
 30
0.0
 10
1075.761040
 20
52.501663
 30
0.0
 10
1076.841600
 20
54.373248
 30
0.0
 10
1076.841600
 20
56.398690
 30
0.0
  0
LWPOLYLINE
  5
1ed
100
AcDbEntity
  8
02___PRT_ALL_AXES
 62
4
100
AcDbPolyline
 90
1
 70
1
 10
1101.321600
 20
80.878690
 30
0.0
  0
SPLINE
  5
1ee
100
AcDbEntity
  8
02___PRT_ALL_AXES
 62
4
100
AcDbSpline
 70
8
 71
3
 72
8
 73
4
 74
0
 40
0
 40
0
 40
0
 40
0
 40
1
 40
1
 40
1
 40
1
 10
1052.361600
 20
80.878690
 30
0.0
 10
1052.361600
 20
82.904131
 30
0.0
 10
1051.281040
 20
84.775716
 30
0.0
 10
1049.526956
 20
85.788437
 30
0.0
  0
SPLINE
  5
1ef
100
AcDbEntity
  8
02___PRT_ALL_AXES
 62
4
100
AcDbSpline
 70
8
 71
3
 72
8
 73
4
 74
0
 40
0
 40
0
 40
0
 40
0
 40
1
 40
1
 40
1
 40
1
 10
1049.526956
 20
85.788437
 30
0.0
 10
1047.772873
 20
86.801157
 30
0.0
 10
1045.611752
 20
86.801157
 30
0.0
 10
1043.857669
 20
85.788437
 30
0.0
  0
SPLINE
  5
1f0
100
AcDbEntity
  8
02___PRT_ALL_AXES
 62
4
100
AcDbSpline
 70
8
 71
3
 72
8
 73
4
 74
0
 40
0
 40
0
 40
0
 40
0
 40
1
 40
1
 40
1
 40
1
 10
1043.857669
 20
85.788437
 30
0.0
 10
1042.103585
 20
84.775716
 30
0.0
 10
1041.023025
 20
82.904131
 30
0.0
 10
1041.023025
 20
80.878690
 30
0.0
  0
SPLINE
  5
1f1
100
AcDbEntity
  8
02___PRT_ALL_AXES
 62
4
100
AcDbSpline
 70
8
 71
3
 72
8
 73
4
 74
0
 40
0
 40
0
 40
0
 40
0
 40
1
 40
1
 40
1
 40
1
 10
1041.023025
 20
80.878690
 30
0.0
 10
1041.023025
 20
78.853248
 30
0.0
 10
1042.103585
 20
76.981663
 30
0.0
 10
1043.857669
 20
75.968943
 30
0.0
  0
SPLINE
  5
1f2
100
AcDbEntity
  8
02___PRT_ALL_AXES
 62
4
100
AcDbSpline
 70
8
 71
3
 72
8
 73
4
 74
0
 40
0
 40
0
 40
0
 40
0
 40
1
 40
1
 40
1
 40
1
 10
1043.857669
 20
75.968943
 30
0.0
 10
1045.611752
 20
74.956222
 30
0.0
 10
1047.772873
 20
74.956222
 30
0.0
 10
1049.526956
 20
75.968943
 30
0.0
  0
SPLINE
  5
1f3
100
AcDbEntity
  8
02___PRT_ALL_AXES
 62
4
100
AcDbSpline
 70
8
 71
3
 72
8
 73
4
 74
0
 40
0
 40
0
 40
0
 40
0
 40
1
 40
1
 40
1
 40
1
 10
1049.526956
 20
75.968943
 30
0.0
 10
1051.281040
 20
76.981663
 30
0.0
 10
1052.361600
 20
78.853248
 30
0.0
 10
1052.361600
 20
80.878690
 30
0.0
  0
LWPOLYLINE
  5
1f4
100
AcDbEntity
  8
02___PRT_ALL_AXES
 62
4
100
AcDbPolyline
 90
1
 70
1
 10
1076.841600
 20
56.398690
 30
0.0
  0
SPLINE
  5
1f5
100
AcDbEntity
  8
02___PRT_ALL_AXES
 62
4
100
AcDbSpline
 70
8
 71
3
 72
8
 73
4
 74
0
 40
0
 40
0
 40
0
 40
0
 40
1
 40
1
 40
1
 40
1
 10
1080.172275
 20
793.402055
 30
0.0
 10
1080.172275
 20
796.617446
 30
0.0
 10
1078.456885
 20
799.588589
 30
0.0
 10
1075.672275
 20
801.196284
 30
0.0
  0
SPLINE
  5
1f6
100
AcDbEntity
  8
02___PRT_ALL_AXES
 62
4
100
AcDbSpline
 70
8
 71
3
 72
8
 73
4
 74
0
 40
0
 40
0
 40
0
 40
0
 40
1
 40
1
 40
1
 40
1
 10
1075.672275
 20
801.196284
 30
0.0
 10
1072.887665
 20
802.803979
 30
0.0
 10
1069.456885
 20
802.803979
 30
0.0
 10
1066.672275
 20
801.196284
 30
0.0
  0
SPLINE
  5
1f7
100
AcDbEntity
  8
02___PRT_ALL_AXES
 62
4
100
AcDbSpline
 70
8
 71
3
 72
8
 73
4
 74
0
 40
0
 40
0
 40
0
 40
0
 40
1
 40
1
 40
1
 40
1
 10
1066.672275
 20
801.196284
 30
0.0
 10
1063.887665
 20
799.588589
 30
0.0
 10
1062.172275
 20
796.617446
 30
0.0
 10
1062.172275
 20
793.402055
 30
0.0
  0
SPLINE
  5
1f8
100
AcDbEntity
  8
02___PRT_ALL_AXES
 62
4
100
AcDbSpline
 70
8
 71
3
 72
8
 73
4
 74
0
 40
0
 40
0
 40
0
 40
0
 40
1
 40
1
 40
1
 40
1
 10
1062.172275
 20
793.402055
 30
0.0
 10
1062.172275
 20
790.186665
 30
0.0
 10
1063.887665
 20
787.215522
 30
0.0
 10
1066.672275
 20
785.607827
 30
0.0
  0
SPLINE
  5
1f9
100
AcDbEntity
  8
02___PRT_ALL_AXES
 62
4
100
AcDbSpline
 70
8
 71
3
 72
8
 73
4
 74
0
 40
0
 40
0
 40
0
 40
0
 40
1
 40
1
 40
1
 40
1
 10
1066.672275
 20
785.607827
 30
0.0
 10
1069.456885
 20
784.000131
 30
0.0
 10
1072.887665
 20
784.000131
 30
0.0
 10
1075.672275
 20
785.607827
 30
0.0
  0
SPLINE
  5
1fa
100
AcDbEntity
  8
02___PRT_ALL_AXES
 62
4
100
AcDbSpline
 70
8
 71
3
 72
8
 73
4
 74
0
 40
0
 40
0
 40
0
 40
0
 40
1
 40
1
 40
1
 40
1
 10
1075.672275
 20
785.607827
 30
0.0
 10
1078.456885
 20
787.215522
 30
0.0
 10
1080.172275
 20
790.186665
 30
0.0
 10
1080.172275
 20
793.402055
 30
0.0
  0
LWPOLYLINE
  5
1fb
100
AcDbEntity
  8
02___PRT_ALL_AXES
 62
4
100
AcDbPolyline
 90
1
 70
1
 10
1052.361600
 20
80.878690
 30
0.0
  0
SPLINE
  5
1fc
100
AcDbEntity
  8
02___PRT_ALL_AXES
 62
4
100
AcDbSpline
 70
8
 71
3
 72
8
 73
4
 74
0
 40
0
 40
0
 40
0
 40
0
 40
1
 40
1
 40
1
 40
1
 10
1006.750200
 20
701.415272
 30
0.0
 10
1006.750200
 20
703.987584
 30
0.0
 10
1005.377888
 20
706.364499
 30
0.0
 10
1003.150200
 20
707.650655
 30
0.0
  0
SPLINE
  5
1fd
100
AcDbEntity
  8
02___PRT_ALL_AXES
 62
4
100
AcDbSpline
 70
8
 71
3
 72
8
 73
4
 74
0
 40
0
 40
0
 40
0
 40
0
 40
1
 40
1
 40
1
 40
1
 10
1003.150200
 20
707.650655
 30
0.0
 10
1000.922512
 20
708.936811
 30
0.0
 10
998.177888
 20
708.936811
 30
0.0
 10
995.950200
 20
707.650655
 30
0.0
  0
SPLINE
  5
1fe
100
AcDbEntity
  8
02___PRT_ALL_AXES
 62
4
100
AcDbSpline
 70
8
 71
3
 72
8
 73
4
 74
0
 40
0
 40
0
 40
0
 40
0
 40
1
 40
1
 40
1
 40
1
 10
995.950200
 20
707.650655
 30
0.0
 10
993.722512
 20
706.364499
 30
0.0
 10
992.350200
 20
703.987584
 30
0.0
 10
992.350200
 20
701.415272
 30
0.0
  0
SPLINE
  5
1ff
100
AcDbEntity
  8
02___PRT_ALL_AXES
 62
4
100
AcDbSpline
 70
8
 71
3
 72
8
 73
4
 74
0
 40
0
 40
0
 40
0
 40
0
 40
1
 40
1
 40
1
 40
1
 10
992.350200
 20
701.415272
 30
0.0
 10
992.350200
 20
698.842960
 30
0.0
 10
993.722512
 20
696.466045
 30
0.0
 10
995.950200
 20
695.179889
 30
0.0
  0
SPLINE
  5
200
100
AcDbEntity
  8
02___PRT_ALL_AXES
 62
4
100
AcDbSpline
 70
8
 71
3
 72
8
 73
4
 74
0
 40
0
 40
0
 40
0
 40
0
 40
1
 40
1
 40
1
 40
1
 10
995.950200
 20
695.179889
 30
0.0
 10
998.177888
 20
693.893733
 30
0.0
 10
1000.922512
 20
693.893733
 30
0.0
 10
1003.150200
 20
695.179889
 30
0.0
  0
SPLINE
  5
201
100
AcDbEntity
  8
02___PRT_ALL_AXES
 62
4
100
AcDbSpline
 70
8
 71
3
 72
8
 73
4
 74
0
 40
0
 40
0
 40
0
 40
0
 40
1
 40
1
 40
1
 40
1
 10
1003.150200
 20
695.179889
 30
0.0
 10
1005.377888
 20
696.466045
 30
0.0
 10
1006.750200
 20
698.842960
 30
0.0
 10
1006.750200
 20
701.415272
 30
0.0
  0
LWPOLYLINE
  5
202
100
AcDbEntity
  8
02___PRT_ALL_AXES
 62
4
100
AcDbPolyline
 90
1
 70
1
 10
1080.172275
 20
793.402055
 30
0.0
  0
SPLINE
  5
203
100
AcDbEntity
  8
02___PRT_ALL_AXES
 62
4
100
AcDbSpline
 70
8
 71
3
 72
8
 73
4
 74
0
 40
0
 40
0
 40
0
 40
0
 40
1
 40
1
 40
1
 40
1
 10
986.385525
 20
721.779940
 30
0.0
 10
986.385525
 20
724.352252
 30
0.0
 10
985.013213
 20
726.729167
 30
0.0
 10
982.785525
 20
728.015323
 30
0.0
  0
SPLINE
  5
204
100
AcDbEntity
  8
02___PRT_ALL_AXES
 62
4
100
AcDbSpline
 70
8
 71
3
 72
8
 73
4
 74
0
 40
0
 40
0
 40
0
 40
0
 40
1
 40
1
 40
1
 40
1
 10
982.785525
 20
728.015323
 30
0.0
 10
980.557837
 20
729.301479
 30
0.0
 10
977.813213
 20
729.301479
 30
0.0
 10
975.585525
 20
728.015323
 30
0.0
  0
SPLINE
  5
205
100
AcDbEntity
  8
02___PRT_ALL_AXES
 62
4
100
AcDbSpline
 70
8
 71
3
 72
8
 73
4
 74
0
 40
0
 40
0
 40
0
 40
0
 40
1
 40
1
 40
1
 40
1
 10
975.585525
 20
728.015323
 30
0.0
 10
973.357837
 20
726.729167
 30
0.0
 10
971.985525
 20
724.352252
 30
0.0
 10
971.985525
 20
721.779940
 30
0.0
  0
SPLINE
  5
206
100
AcDbEntity
  8
02___PRT_ALL_AXES
 62
4
100
AcDbSpline
 70
8
 71
3
 72
8
 73
4
 74
0
 40
0
 40
0
 40
0
 40
0
 40
1
 40
1
 40
1
 40
1
 10
971.985525
 20
721.779940
 30
0.0
 10
971.985525
 20
719.207628
 30
0.0
 10
973.357837
 20
716.830713
 30
0.0
 10
975.585525
 20
715.544557
 30
0.0
  0
SPLINE
  5
207
100
AcDbEntity
  8
02___PRT_ALL_AXES
 62
4
100
AcDbSpline
 70
8
 71
3
 72
8
 73
4
 74
0
 40
0
 40
0
 40
0
 40
0
 40
1
 40
1
 40
1
 40
1
 10
975.585525
 20
715.544557
 30
0.0
 10
977.813213
 20
714.258401
 30
0.0
 10
980.557837
 20
714.258401
 30
0.0
 10
982.785525
 20
715.544557
 30
0.0
  0
SPLINE
  5
208
100
AcDbEntity
  8
02___PRT_ALL_AXES
 62
4
100
AcDbSpline
 70
8
 71
3
 72
8
 73
4
 74
0
 40
0
 40
0
 40
0
 40
0
 40
1
 40
1
 40
1
 40
1
 10
982.785525
 20
715.544557
 30
0.0
 10
985.013213
 20
716.830713
 30
0.0
 10
986.385525
 20
719.207628
 30
0.0
 10
986.385525
 20
721.779940
 30
0.0
  0
LWPOLYLINE
  5
209
100
AcDbEntity
  8
02___PRT_ALL_AXES
 62
4
100
AcDbPolyline
 90
1
 70
1
 10
1006.750200
 20
701.415272
 30
0.0
  0
SPLINE
  5
20a
100
AcDbEntity
  8
02___PRT_ALL_AXES
 62
4
100
AcDbSpline
 70
8
 71
3
 72
8
 73
4
 74
0
 40
0
 40
0
 40
0
 40
0
 40
1
 40
1
 40
1
 40
1
 10
1076.841600
 20
817.882055
 30
0.0
 10
1076.841600
 20
819.907497
 30
0.0
 10
1075.761040
 20
821.779082
 30
0.0
 10
1074.006957
 20
822.791803
 30
0.0
  0
SPLINE
  5
20b
100
AcDbEntity
  8
02___PRT_ALL_AXES
 62
4
100
AcDbSpline
 70
8
 71
3
 72
8
 73
4
 74
0
 40
0
 40
0
 40
0
 40
0
 40
1
 40
1
 40
1
 40
1
 10
1074.006957
 20
822.791803
 30
0.0
 10
1072.252873
 20
823.804524
 30
0.0
 10
1070.091752
 20
823.804524
 30
0.0
 10
1068.337668
 20
822.791803
 30
0.0
  0
SPLINE
  5
20c
100
AcDbEntity
  8
02___PRT_ALL_AXES
 62
4
100
AcDbSpline
 70
8
 71
3
 72
8
 73
4
 74
0
 40
0
 40
0
 40
0
 40
0
 40
1
 40
1
 40
1
 40
1
 10
1068.337668
 20
822.791803
 30
0.0
 10
1066.583585
 20
821.779082
 30
0.0
 10
1065.503025
 20
819.907497
 30
0.0
 10
1065.503025
 20
817.882055
 30
0.0
  0
SPLINE
  5
20d
100
AcDbEntity
  8
02___PRT_ALL_AXES
 62
4
100
AcDbSpline
 70
8
 71
3
 72
8
 73
4
 74
0
 40
0
 40
0
 40
0
 40
0
 40
1
 40
1
 40
1
 40
1
 10
1065.503025
 20
817.882055
 30
0.0
 10
1065.503025
 20
815.856614
 30
0.0
 10
1066.583585
 20
813.985029
 30
0.0
 10
1068.337669
 20
812.972308
 30
0.0
  0
SPLINE
  5
20e
100
AcDbEntity
  8
02___PRT_ALL_AXES
 62
4
100
AcDbSpline
 70
8
 71
3
 72
8
 73
4
 74
0
 40
0
 40
0
 40
0
 40
0
 40
1
 40
1
 40
1
 40
1
 10
1068.337669
 20
812.972308
 30
0.0
 10
1070.091752
 20
811.959588
 30
0.0
 10
1072.252873
 20
811.959588
 30
0.0
 10
1074.006956
 20
812.972308
 30
0.0
  0
SPLINE
  5
20f
100
AcDbEntity
  8
02___PRT_ALL_AXES
 62
4
100
AcDbSpline
 70
8
 71
3
 72
8
 73
4
 74
0
 40
0
 40
0
 40
0
 40
0
 40
1
 40
1
 40
1
 40
1
 10
1074.006956
 20
812.972308
 30
0.0
 10
1075.761040
 20
813.985029
 30
0.0
 10
1076.841600
 20
815.856614
 30
0.0
 10
1076.841600
 20
817.882055
 30
0.0
  0
LWPOLYLINE
  5
210
100
AcDbEntity
  8
02___PRT_ALL_AXES
 62
4
100
AcDbPolyline
 90
1
 70
1
 10
986.385525
 20
721.779940
 30
0.0
  0
SPLINE
  5
211
100
AcDbEntity
  8
02___PRT_ALL_AXES
 62
4
100
AcDbSpline
 70
8
 71
3
 72
8
 73
4
 74
0
 40
0
 40
0
 40
0
 40
0
 40
1
 40
1
 40
1
 40
1
 10
1101.321600
 20
793.402055
 30
0.0
 10
1101.321600
 20
795.427497
 30
0.0
 10
1100.241040
 20
797.299082
 30
0.0
 10
1098.486956
 20
798.311802
 30
0.0
  0
SPLINE
  5
212
100
AcDbEntity
  8
02___PRT_ALL_AXES
 62
4
100
AcDbSpline
 70
8
 71
3
 72
8
 73
4
 74
0
 40
0
 40
0
 40
0
 40
0
 40
1
 40
1
 40
1
 40
1
 10
1098.486956
 20
798.311802
 30
0.0
 10
1096.732873
 20
799.324523
 30
0.0
 10
1094.571752
 20
799.324523
 30
0.0
 10
1092.817669
 20
798.311802
 30
0.0
  0
SPLINE
  5
213
100
AcDbEntity
  8
02___PRT_ALL_AXES
 62
4
100
AcDbSpline
 70
8
 71
3
 72
8
 73
4
 74
0
 40
0
 40
0
 40
0
 40
0
 40
1
 40
1
 40
1
 40
1
 10
1092.817669
 20
798.311802
 30
0.0
 10
1091.063585
 20
797.299082
 30
0.0
 10
1089.983025
 20
795.427497
 30
0.0
 10
1089.983025
 20
793.402055
 30
0.0
  0
SPLINE
  5
214
100
AcDbEntity
  8
02___PRT_ALL_AXES
 62
4
100
AcDbSpline
 70
8
 71
3
 72
8
 73
4
 74
0
 40
0
 40
0
 40
0
 40
0
 40
1
 40
1
 40
1
 40
1
 10
1089.983025
 20
793.402055
 30
0.0
 10
1089.983025
 20
791.376614
 30
0.0
 10
1091.063585
 20
789.505029
 30
0.0
 10
1092.817669
 20
788.492308
 30
0.0
  0
SPLINE
  5
215
100
AcDbEntity
  8
02___PRT_ALL_AXES
 62
4
100
AcDbSpline
 70
8
 71
3
 72
8
 73
4
 74
0
 40
0
 40
0
 40
0
 40
0
 40
1
 40
1
 40
1
 40
1
 10
1092.817669
 20
788.492308
 30
0.0
 10
1094.571752
 20
787.479588
 30
0.0
 10
1096.732873
 20
787.479588
 30
0.0
 10
1098.486956
 20
788.492308
 30
0.0
  0
SPLINE
  5
216
100
AcDbEntity
  8
02___PRT_ALL_AXES
 62
4
100
AcDbSpline
 70
8
 71
3
 72
8
 73
4
 74
0
 40
0
 40
0
 40
0
 40
0
 40
1
 40
1
 40
1
 40
1
 10
1098.486956
 20
788.492308
 30
0.0
 10
1100.241040
 20
789.505029
 30
0.0
 10
1101.321600
 20
791.376614
 30
0.0
 10
1101.321600
 20
793.402055
 30
0.0
  0
LWPOLYLINE
  5
217
100
AcDbEntity
  8
02___PRT_ALL_AXES
 62
4
100
AcDbPolyline
 90
1
 70
1
 10
1076.841600
 20
817.882055
 30
0.0
  0
SPLINE
  5
218
100
AcDbEntity
  8
02___PRT_ALL_AXES
 62
4
100
AcDbSpline
 70
8
 71
3
 72
8
 73
4
 74
0
 40
0
 40
0
 40
0
 40
0
 40
1
 40
1
 40
1
 40
1
 10
1052.361600
 20
793.402055
 30
0.0
 10
1052.361600
 20
795.427497
 30
0.0
 10
1051.281040
 20
797.299082
 30
0.0
 10
1049.526956
 20
798.311802
 30
0.0
  0
SPLINE
  5
219
100
AcDbEntity
  8
02___PRT_ALL_AXES
 62
4
100
AcDbSpline
 70
8
 71
3
 72
8
 73
4
 74
0
 40
0
 40
0
 40
0
 40
0
 40
1
 40
1
 40
1
 40
1
 10
1049.526956
 20
798.311802
 30
0.0
 10
1047.772873
 20
799.324523
 30
0.0
 10
1045.611752
 20
799.324523
 30
0.0
 10
1043.857669
 20
798.311802
 30
0.0
  0
SPLINE
  5
21a
100
AcDbEntity
  8
02___PRT_ALL_AXES
 62
4
100
AcDbSpline
 70
8
 71
3
 72
8
 73
4
 74
0
 40
0
 40
0
 40
0
 40
0
 40
1
 40
1
 40
1
 40
1
 10
1043.857669
 20
798.311802
 30
0.0
 10
1042.103585
 20
797.299082
 30
0.0
 10
1041.023025
 20
795.427497
 30
0.0
 10
1041.023025
 20
793.402055
 30
0.0
  0
SPLINE
  5
21b
100
AcDbEntity
  8
02___PRT_ALL_AXES
 62
4
100
AcDbSpline
 70
8
 71
3
 72
8
 73
4
 74
0
 40
0
 40
0
 40
0
 40
0
 40
1
 40
1
 40
1
 40
1
 10
1041.023025
 20
793.402055
 30
0.0
 10
1041.023025
 20
791.376614
 30
0.0
 10
1042.103585
 20
789.505029
 30
0.0
 10
1043.857669
 20
788.492308
 30
0.0
  0
SPLINE
  5
21c
100
AcDbEntity
  8
02___PRT_ALL_AXES
 62
4
100
AcDbSpline
 70
8
 71
3
 72
8
 73
4
 74
0
 40
0
 40
0
 40
0
 40
0
 40
1
 40
1
 40
1
 40
1
 10
1043.857669
 20
788.492308
 30
0.0
 10
1045.611752
 20
787.479588
 30
0.0
 10
1047.772873
 20
787.479588
 30
0.0
 10
1049.526956
 20
788.492308
 30
0.0
  0
SPLINE
  5
21d
100
AcDbEntity
  8
02___PRT_ALL_AXES
 62
4
100
AcDbSpline
 70
8
 71
3
 72
8
 73
4
 74
0
 40
0
 40
0
 40
0
 40
0
 40
1
 40
1
 40
1
 40
1
 10
1049.526956
 20
788.492308
 30
0.0
 10
1051.281040
 20
789.505029
 30
0.0
 10
1052.361600
 20
791.376614
 30
0.0
 10
1052.361600
 20
793.402055
 30
0.0
  0
LWPOLYLINE
  5
21e
100
AcDbEntity
  8
02___PRT_ALL_AXES
 62
4
100
AcDbPolyline
 90
1
 70
1
 10
1101.321600
 20
793.402055
 30
0.0
  0
SPLINE
  5
21f
100
AcDbEntity
  8
02___PRT_ALL_AXES
 62
4
100
AcDbSpline
 70
8
 71
3
 72
8
 73
4
 74
0
 40
0
 40
0
 40
0
 40
0
 40
1
 40
1
 40
1
 40
1
 10
1076.841600
 20
768.922055
 30
0.0
 10
1076.841600
 20
770.947497
 30
0.0
 10
1075.761040
 20
772.819082
 30
0.0
 10
1074.006957
 20
773.831803
 30
0.0
  0
SPLINE
  5
220
100
AcDbEntity
  8
02___PRT_ALL_AXES
 62
4
100
AcDbSpline
 70
8
 71
3
 72
8
 73
4
 74
0
 40
0
 40
0
 40
0
 40
0
 40
1
 40
1
 40
1
 40
1
 10
1074.006957
 20
773.831803
 30
0.0
 10
1072.252873
 20
774.844524
 30
0.0
 10
1070.091752
 20
774.844524
 30
0.0
 10
1068.337668
 20
773.831803
 30
0.0
  0
SPLINE
  5
221
100
AcDbEntity
  8
02___PRT_ALL_AXES
 62
4
100
AcDbSpline
 70
8
 71
3
 72
8
 73
4
 74
0
 40
0
 40
0
 40
0
 40
0
 40
1
 40
1
 40
1
 40
1
 10
1068.337668
 20
773.831803
 30
0.0
 10
1066.583585
 20
772.819082
 30
0.0
 10
1065.503025
 20
770.947497
 30
0.0
 10
1065.503025
 20
768.922055
 30
0.0
  0
SPLINE
  5
222
100
AcDbEntity
  8
02___PRT_ALL_AXES
 62
4
100
AcDbSpline
 70
8
 71
3
 72
8
 73
4
 74
0
 40
0
 40
0
 40
0
 40
0
 40
1
 40
1
 40
1
 40
1
 10
1065.503025
 20
768.922055
 30
0.0
 10
1065.503025
 20
766.896614
 30
0.0
 10
1066.583585
 20
765.025029
 30
0.0
 10
1068.337669
 20
764.012308
 30
0.0
  0
SPLINE
  5
223
100
AcDbEntity
  8
02___PRT_ALL_AXES
 62
4
100
AcDbSpline
 70
8
 71
3
 72
8
 73
4
 74
0
 40
0
 40
0
 40
0
 40
0
 40
1
 40
1
 40
1
 40
1
 10
1068.337669
 20
764.012308
 30
0.0
 10
1070.091752
 20
762.999588
 30
0.0
 10
1072.252873
 20
762.999588
 30
0.0
 10
1074.006956
 20
764.012308
 30
0.0
  0
SPLINE
  5
224
100
AcDbEntity
  8
02___PRT_ALL_AXES
 62
4
100
AcDbSpline
 70
8
 71
3
 72
8
 73
4
 74
0
 40
0
 40
0
 40
0
 40
0
 40
1
 40
1
 40
1
 40
1
 10
1074.006956
 20
764.012308
 30
0.0
 10
1075.761040
 20
765.025029
 30
0.0
 10
1076.841600
 20
766.896614
 30
0.0
 10
1076.841600
 20
768.922055
 30
0.0
  0
LWPOLYLINE
  5
225
100
AcDbEntity
  8
02___PRT_ALL_AXES
 62
4
100
AcDbPolyline
 90
1
 70
1
 10
1052.361600
 20
793.402055
 30
0.0
  0
LWPOLYLINE
  5
226
100
AcDbEntity
  8
02___PRT_ALL_AXES
 62
4
100
AcDbPolyline
 90
1
 70
1
 10
1076.841600
 20
768.922055
 30
0.0
  0
ENDSEC
  0
SECTION
  2
OBJECTS
  0
DICTIONARY
  5
C
330
0
100
AcDbDictionary
  3
ACAD_GROUP
350
D
  3
ACAD_MLINESTYLE
350
17
  0
DICTIONARY
  5
D
330
C
100
AcDbDictionary
  0
DICTIONARY
  5
1A
330
C
100
AcDbDictionary
  0
DICTIONARY
  5
17
330
C
100
AcDbDictionary
  3
STANDARD
350
18
  0
DICTIONARY
  5
19
330
C
100
AcDbDictionary
  0
ENDSEC
  0
EOF
