  0
SECTION
  2
HEADER
  9
$ACADVER
  1
AC1014
  9
$HANDSEED
  5
FFFF
  9
$MEASUREMENT
 70
     1
  0
ENDSEC
  0
SECTION
  2
TABLES
  0
TABLE
  2
VPORT
  5
8
330
0
100
AcDbSymbolTable
 70
     4
  0
VPORT
  5
2E
330
8
100
AcDbSymbolTableRecord
100
AcDbViewportTableRecord
  2
*ACTIVE
 70
     0
 10
0.0
 20
0.0
 11
1.0
 21
1.0
 12
210.0
 22
148.5
 13
0.0
 23
0.0
 14
10.0
 24
10.0
 15
10.0
 25
10.0
 16
0.0
 26
0.0
 36
1.0
 17
0.0
 27
0.0
 37
0.0
 40
341.0
 41
1.24
 42
50.0
 43
0.0
 44
0.0
 50
0.0
 51
0.0
 71
     0
 72
   100
 73
     1
 74
     3
 75
     0
 76
     0
 77
     0
 78
     0
  0
ENDTAB
  0
TABLE
  2
LTYPE
  5
5
330
0
100
AcDbSymbolTable
 70
     1
  0
LTYPE
  5
14
330
5
100
AcDbSymbolTableRecord
100
AcDbLinetypeTableRecord
  2
BYBLOCK
 70
     0
  3

 72
    65
 73
     0
 40
0.0
  0
LTYPE
  5
15
330
5
100
AcDbSymbolTableRecord
100
AcDbLinetypeTableRecord
  2
BYLAYER
 70
     0
  3

 72
    65
 73
     0
 40
0.0
  0
LTYPE
  5
16
330
5
100
AcDbSymbolTableRecord
100
AcDbLinetypeTableRecord
  2
CONTINUOUS
 70
     0
  3
Solid line
 72
    65
 73
     0
 40
0.0
  0
ENDTAB
  0
TABLE
  2
LAYER
  5
2
100
AcDbSymbolTable
 70
12
  0
LAYER
  5
50
100
AcDbSymbolTableRecord
100
AcDbLayerTableRecord
  2
0
 70
0
  6
CONTINUOUS
  0
LAYER
  5
51
100
AcDbSymbolTableRecord
100
AcDbLayerTableRecord
  2
DEFAULT_1
 70
0
  6
CONTINUOUS
  0
LAYER
  5
52
100
AcDbSymbolTableRecord
100
AcDbLayerTableRecord
  2
DEFAULT_2
 70
0
  6
CONTINUOUS
  0
LAYER
  5
53
100
AcDbSymbolTableRecord
100
AcDbLayerTableRecord
  2
DEFAULT_3
 70
0
  6
CONTINUOUS
  0
LAYER
  5
54
100
AcDbSymbolTableRecord
100
AcDbLayerTableRecord
  2
01___PRT_ALL_DTM_PLN
 70
0
  6
CONTINUOUS
  0
LAYER
  5
55
100
AcDbSymbolTableRecord
100
AcDbLayerTableRecord
  2
01___PRT_DEF_DTM_PLN
 70
0
  6
CONTINUOUS
  0
LAYER
  5
56
100
AcDbSymbolTableRecord
100
AcDbLayerTableRecord
  2
02___PRT_ALL_AXES
 70
0
  6
CONTINUOUS
  0
LAYER
  5
57
100
AcDbSymbolTableRecord
100
AcDbLayerTableRecord
  2
03___PRT_ALL_CURVES
 70
0
  6
CONTINUOUS
  0
LAYER
  5
58
100
AcDbSymbolTableRecord
100
AcDbLayerTableRecord
  2
04___PRT_ALL_DTM_PNT
 70
0
  6
CONTINUOUS
  0
LAYER
  5
59
100
AcDbSymbolTableRecord
100
AcDbLayerTableRecord
  2
05___PRT_ALL_DTM_CSYS
 70
0
  6
CONTINUOUS
  0
LAYER
  5
5a
100
AcDbSymbolTableRecord
100
AcDbLayerTableRecord
  2
05___PRT_DEF_DTM_CSYS
 70
0
  6
CONTINUOUS
  0
LAYER
  5
5b
100
AcDbSymbolTableRecord
100
AcDbLayerTableRecord
  2
06___PRT_ALL_SURFS
 70
0
  6
CONTINUOUS
  0
ENDTAB
  0
TABLE
  2
STYLE
  5
3
330
0
100
AcDbSymbolTable
 70
     1
  0
STYLE
  5
11
330
3
100
AcDbSymbolTableRecord
100
AcDbTextStyleTableRecord
  2
STANDARD
 70
     0
 40
0.0
 41
1.0
 50
0.0
 71
     0
 42
2.5
  3
txt
  4

  0
ENDTAB
  0
TABLE
  2
VIEW
  5
6
330
0
100
AcDbSymbolTable
 70
     0
  0
ENDTAB
  0
TABLE
  2
UCS
  5
7
330
0
100
AcDbSymbolTable
 70
     0
  0
ENDTAB
  0
TABLE
  2
APPID
  5
9
330
0
100
AcDbSymbolTable
 70
     2
  0
APPID
  5
12
330
9
100
AcDbSymbolTableRecord
100
AcDbRegAppTableRecord
  2
ACAD
 70
     0
  0
ENDTAB
  0
TABLE
  2
DIMSTYLE
  5
A
330
0
100
AcDbSymbolTable
 70
     1
  0
DIMSTYLE
105
27
330
A
100
AcDbSymbolTableRecord
100
AcDbDimStyleTableRecord
  2
ISO-25
 70
     0
  3

  4

  5

  6

  7

 40
1.0
 41
2.5
 42
0.625
 43
3.75
 44
1.25
 45
0.0
 46
0.0
 47
0.0
 48
0.0
140
2.5
141
2.5
142
0.0
143
0.03937007874016
144
1.0
145
0.0
146
1.0
147
0.625
 71
     0
 72
     0
 73
     0
 74
     0
 75
     0
 76
     0
 77
     1
 78
     8
170
     0
171
     3
172
     1
173
     0
174
     0
175
     0
176
     0
177
     0
178
     0
270
     2
271
     2
272
     2
273
     2
274
     3
340
11
275
     0
280
     0
281
     0
282
     0
283
     0
284
     8
285
     0
286
     0
287
     3
288
     0
  0
ENDTAB
  0
TABLE
  2
BLOCK_RECORD
  5
1
330
0
100
AcDbSymbolTable
 70
     1
  0
BLOCK_RECORD
  5
1F
330
1
100
AcDbSymbolTableRecord
100
AcDbBlockTableRecord
  2
*MODEL_SPACE
  0
BLOCK_RECORD
  5
1B
330
1
100
AcDbSymbolTableRecord
100
AcDbBlockTableRecord
  2
*PAPER_SPACE
  0
ENDTAB
  0
ENDSEC
  0
SECTION
  2
BLOCKS
  0
BLOCK
  5
20
330
1F
100
AcDbEntity
  8
0
100
AcDbBlockBegin
  2
*MODEL_SPACE
 70
     0
 10
0.0
 20
0.0
 30
0.0
  3
*MODEL_SPACE
  1

  0
ENDBLK
  5
21
330
1F
100
AcDbEntity
  8
0
100
AcDbBlockEnd
  0
BLOCK
  5
1C
330
1B
100
AcDbEntity
 67
     1
  8
0
100
AcDbBlockBegin
  2
*PAPER_SPACE
  1

  0
ENDBLK
  5
1D
330
1B
100
AcDbEntity
 67
     1
  8
0
100
AcDbBlockEnd
  0
ENDSEC
  0
SECTION
  2
ENTITIES
  0
LWPOLYLINE
  5
100
100
AcDbEntity
  8
0
 62
1
100
AcDbPolyline
 90
2
 70
0
 10
747.777128
 20
221.301857
 30
0.0
 10
477.247222
 20
221.301857
 30
0.0
  0
LWPOLYLINE
  5
101
100
AcDbEntity
  8
0
 62
4
100
AcDbPolyline
 90
2
 70
0
 10
713.312152
 20
257.301857
 30
0.0
 10
695.312152
 20
257.301857
 30
0.0
  0
LWPOLYLINE
  5
102
100
AcDbEntity
  8
0
 62
4
100
AcDbPolyline
 90
2
 70
0
 10
529.712153
 20
257.301857
 30
0.0
 10
511.712153
 20
257.301857
 30
0.0
  0
LWPOLYLINE
  5
103
100
AcDbEntity
  8
0
 62
4
100
AcDbPolyline
 90
2
 70
0
 10
540.512152
 20
264.501857
 30
0.0
 10
558.512152
 20
264.501857
 30
0.0
  0
LWPOLYLINE
  5
104
100
AcDbEntity
  8
0
 62
4
100
AcDbPolyline
 90
2
 70
0
 10
666.512152
 20
264.501857
 30
0.0
 10
684.512152
 20
264.501857
 30
0.0
  0
LWPOLYLINE
  5
105
100
AcDbEntity
  8
0
 62
4
100
AcDbPolyline
 90
2
 70
0
 10
648.512152
 20
283.941857
 30
0.0
 10
576.512152
 20
283.941857
 30
0.0
  0
LWPOLYLINE
  5
106
100
AcDbEntity
  8
0
 62
4
100
AcDbPolyline
 90
2
 70
0
 10
684.512152
 20
286.101857
 30
0.0
 10
666.512152
 20
286.101857
 30
0.0
  0
LWPOLYLINE
  5
107
100
AcDbEntity
  8
0
 62
4
100
AcDbPolyline
 90
2
 70
0
 10
558.512152
 20
286.101857
 30
0.0
 10
540.512152
 20
286.101857
 30
0.0
  0
LWPOLYLINE
  5
108
100
AcDbEntity
  8
0
 62
4
100
AcDbPolyline
 90
2
 70
0
 10
576.512152
 20
301.941857
 30
0.0
 10
648.512152
 20
301.941857
 30
0.0
  0
LWPOLYLINE
  5
109
100
AcDbEntity
  8
0
 62
1
100
AcDbPolyline
 90
2
 70
0
 10
504.512152
 20
464.566795
 30
0.0
 10
504.512152
 20
410.036927
 30
0.0
  0
LWPOLYLINE
  5
10a
100
AcDbEntity
  8
0
 62
4
100
AcDbPolyline
 90
2
 70
0
 10
511.712153
 20
257.301857
 30
0.0
 10
511.712153
 20
329.301857
 30
0.0
  0
LWPOLYLINE
  5
10b
100
AcDbEntity
  8
0
 62
4
100
AcDbPolyline
 90
2
 70
0
 10
511.712153
 20
545.301857
 30
0.0
 10
511.712153
 20
617.301857
 30
0.0
  0
LWPOLYLINE
  5
10c
100
AcDbEntity
  8
0
 62
4
100
AcDbPolyline
 90
2
 70
0
 10
517.112153
 20
509.301857
 30
0.0
 10
517.112153
 20
473.301857
 30
0.0
  0
LWPOLYLINE
  5
10d
100
AcDbEntity
  8
0
 62
4
100
AcDbPolyline
 90
2
 70
0
 10
517.112153
 20
401.301857
 30
0.0
 10
517.112153
 20
365.301857
 30
0.0
  0
LWPOLYLINE
  5
10e
100
AcDbEntity
  8
0
 62
4
100
AcDbPolyline
 90
2
 70
0
 10
529.712153
 20
617.301857
 30
0.0
 10
529.712153
 20
545.301857
 30
0.0
  0
LWPOLYLINE
  5
10f
100
AcDbEntity
  8
0
 62
4
100
AcDbPolyline
 90
2
 70
0
 10
529.712153
 20
329.301857
 30
0.0
 10
529.712153
 20
257.301857
 30
0.0
  0
LWPOLYLINE
  5
110
100
AcDbEntity
  8
0
 62
4
100
AcDbPolyline
 90
2
 70
0
 10
535.112153
 20
365.301857
 30
0.0
 10
535.112153
 20
401.301857
 30
0.0
  0
LWPOLYLINE
  5
111
100
AcDbEntity
  8
0
 62
4
100
AcDbPolyline
 90
2
 70
0
 10
535.112153
 20
473.301857
 30
0.0
 10
535.112153
 20
509.301857
 30
0.0
  0
LWPOLYLINE
  5
112
100
AcDbEntity
  8
0
 62
4
100
AcDbPolyline
 90
2
 70
0
 10
540.512152
 20
286.101857
 30
0.0
 10
540.512152
 20
264.501857
 30
0.0
  0
LWPOLYLINE
  5
113
100
AcDbEntity
  8
0
 62
4
100
AcDbPolyline
 90
2
 70
0
 10
511.712153
 20
329.301857
 30
0.0
 10
529.712153
 20
329.301857
 30
0.0
  0
LWPOLYLINE
  5
114
100
AcDbEntity
  8
0
 62
4
100
AcDbPolyline
 90
2
 70
0
 10
695.312152
 20
329.301857
 30
0.0
 10
713.312152
 20
329.301857
 30
0.0
  0
LWPOLYLINE
  5
115
100
AcDbEntity
  8
0
 62
4
100
AcDbPolyline
 90
2
 70
0
 10
517.112153
 20
365.301857
 30
0.0
 10
535.112153
 20
365.301857
 30
0.0
  0
LWPOLYLINE
  5
116
100
AcDbEntity
  8
0
 62
4
100
AcDbPolyline
 90
2
 70
0
 10
689.800328
 20
365.301857
 30
0.0
 10
707.912153
 20
365.301857
 30
0.0
  0
LWPOLYLINE
  5
117
100
AcDbEntity
  8
0
 62
4
100
AcDbPolyline
 90
2
 70
0
 10
558.512152
 20
264.501857
 30
0.0
 10
558.512152
 20
286.101857
 30
0.0
  0
LWPOLYLINE
  5
118
100
AcDbEntity
  8
0
 62
4
100
AcDbPolyline
 90
2
 70
0
 10
576.512152
 20
283.941857
 30
0.0
 10
576.512152
 20
301.941857
 30
0.0
  0
LWPOLYLINE
  5
119
100
AcDbEntity
  8
0
 62
1
100
AcDbPolyline
 90
2
 70
0
 10
924.338325
 20
800.039671
 30
0.0
 10
798.688800
 20
674.390170
 30
0.0
  0
LWPOLYLINE
  5
11a
100
AcDbEntity
  8
0
 62
1
100
AcDbPolyline
 90
2
 70
0
 10
483.423840
 20
359.125232
 30
0.0
 10
249.774345
 20
125.475737
 30
0.0
  0
LWPOLYLINE
  5
11b
100
AcDbEntity
  8
0
 62
4
100
AcDbPolyline
 90
2
 70
0
 10
707.912153
 20
401.301857
 30
0.0
 10
689.800328
 20
401.301857
 30
0.0
  0
LWPOLYLINE
  5
11c
100
AcDbEntity
  8
0
 62
4
100
AcDbPolyline
 90
2
 70
0
 10
535.112153
 20
401.301857
 30
0.0
 10
517.112153
 20
401.301857
 30
0.0
  0
LWPOLYLINE
  5
11d
100
AcDbEntity
  8
0
 62
1
100
AcDbPolyline
 90
2
 70
0
 10
249.774345
 20
749.127985
 30
0.0
 10
483.423840
 20
515.478482
 30
0.0
  0
LWPOLYLINE
  5
11e
100
AcDbEntity
  8
0
 62
1
100
AcDbPolyline
 90
2
 70
0
 10
798.688800
 20
200.213545
 30
0.0
 10
924.338325
 20
74.564065
 30
0.0
  0
LWPOLYLINE
  5
11f
100
AcDbEntity
  8
0
 62
4
100
AcDbPolyline
 90
2
 70
0
 10
648.512152
 20
301.941857
 30
0.0
 10
648.512152
 20
283.941857
 30
0.0
  0
LWPOLYLINE
  5
120
100
AcDbEntity
  8
0
 62
1
100
AcDbPolyline
 90
2
 70
0
 10
300.686033
 20
74.564065
 30
0.0
 10
426.335535
 20
200.213545
 30
0.0
  0
LWPOLYLINE
  5
121
100
AcDbEntity
  8
0
 62
1
100
AcDbPolyline
 90
2
 70
0
 10
741.600502
 20
515.478482
 30
0.0
 10
975.249975
 20
749.127985
 30
0.0
  0
LWPOLYLINE
  5
122
100
AcDbEntity
  8
0
 62
4
100
AcDbPolyline
 90
2
 70
0
 10
517.112153
 20
473.301857
 30
0.0
 10
535.112153
 20
473.301857
 30
0.0
  0
LWPOLYLINE
  5
123
100
AcDbEntity
  8
0
 62
4
100
AcDbPolyline
 90
2
 70
0
 10
689.912153
 20
473.301857
 30
0.0
 10
707.912153
 20
473.301857
 30
0.0
  0
LWPOLYLINE
  5
124
100
AcDbEntity
  8
0
 62
1
100
AcDbPolyline
 90
2
 70
0
 10
975.249975
 20
125.475737
 30
0.0
 10
741.600502
 20
359.125232
 30
0.0
  0
LWPOLYLINE
  5
125
100
AcDbEntity
  8
0
 62
1
100
AcDbPolyline
 90
2
 70
0
 10
426.335535
 20
674.390170
 30
0.0
 10
300.686033
 20
800.039671
 30
0.0
  0
LWPOLYLINE
  5
126
100
AcDbEntity
  8
0
 62
4
100
AcDbPolyline
 90
2
 70
0
 10
666.512152
 20
286.101857
 30
0.0
 10
666.512152
 20
264.501857
 30
0.0
  0
LWPOLYLINE
  5
127
100
AcDbEntity
  8
0
 62
4
100
AcDbPolyline
 90
2
 70
0
 10
684.512152
 20
264.501857
 30
0.0
 10
684.512152
 20
286.101857
 30
0.0
  0
LWPOLYLINE
  5
128
100
AcDbEntity
  8
0
 62
4
100
AcDbPolyline
 90
2
 70
0
 10
689.800328
 20
401.301857
 30
0.0
 10
689.800328
 20
365.301857
 30
0.0
  0
LWPOLYLINE
  5
129
100
AcDbEntity
  8
0
 62
4
100
AcDbPolyline
 90
2
 70
0
 10
689.912153
 20
509.301857
 30
0.0
 10
689.912153
 20
473.301857
 30
0.0
  0
LWPOLYLINE
  5
12a
100
AcDbEntity
  8
0
 62
4
100
AcDbPolyline
 90
2
 70
0
 10
707.912153
 20
509.301857
 30
0.0
 10
689.912153
 20
509.301857
 30
0.0
  0
LWPOLYLINE
  5
12b
100
AcDbEntity
  8
0
 62
4
100
AcDbPolyline
 90
2
 70
0
 10
535.112153
 20
509.301857
 30
0.0
 10
517.112153
 20
509.301857
 30
0.0
  0
LWPOLYLINE
  5
12c
100
AcDbEntity
  8
0
 62
4
100
AcDbPolyline
 90
2
 70
0
 10
695.312152
 20
257.301857
 30
0.0
 10
695.312152
 20
329.301857
 30
0.0
  0
LWPOLYLINE
  5
12d
100
AcDbEntity
  8
0
 62
4
100
AcDbPolyline
 90
2
 70
0
 10
695.312152
 20
545.301857
 30
0.0
 10
695.312152
 20
617.301857
 30
0.0
  0
LWPOLYLINE
  5
12e
100
AcDbEntity
  8
0
 62
4
100
AcDbPolyline
 90
2
 70
0
 10
707.912153
 20
365.301857
 30
0.0
 10
707.912153
 20
401.301857
 30
0.0
  0
LWPOLYLINE
  5
12f
100
AcDbEntity
  8
0
 62
4
100
AcDbPolyline
 90
2
 70
0
 10
707.912153
 20
473.301857
 30
0.0
 10
707.912153
 20
509.301857
 30
0.0
  0
LWPOLYLINE
  5
130
100
AcDbEntity
  8
0
 62
4
100
AcDbPolyline
 90
2
 70
0
 10
713.312152
 20
617.301857
 30
0.0
 10
713.312152
 20
545.301857
 30
0.0
  0
LWPOLYLINE
  5
131
100
AcDbEntity
  8
0
 62
4
100
AcDbPolyline
 90
2
 70
0
 10
713.312152
 20
329.301857
 30
0.0
 10
713.312152
 20
257.301857
 30
0.0
  0
LWPOLYLINE
  5
132
100
AcDbEntity
  8
0
 62
1
100
AcDbPolyline
 90
2
 70
0
 10
720.512152
 20
410.036927
 30
0.0
 10
720.512152
 20
464.566795
 30
0.0
  0
LWPOLYLINE
  5
133
100
AcDbEntity
  8
0
 62
4
100
AcDbPolyline
 90
2
 70
0
 10
713.312152
 20
545.301857
 30
0.0
 10
695.312152
 20
545.301857
 30
0.0
  0
LWPOLYLINE
  5
134
100
AcDbEntity
  8
0
 62
4
100
AcDbPolyline
 90
2
 70
0
 10
529.712153
 20
545.301857
 30
0.0
 10
511.712153
 20
545.301857
 30
0.0
  0
LWPOLYLINE
  5
135
100
AcDbEntity
  8
0
 62
4
100
AcDbPolyline
 90
2
 70
0
 10
511.712153
 20
617.301857
 30
0.0
 10
529.712153
 20
617.301857
 30
0.0
  0
LWPOLYLINE
  5
136
100
AcDbEntity
  8
0
 62
4
100
AcDbPolyline
 90
2
 70
0
 10
695.312152
 20
617.301857
 30
0.0
 10
713.312152
 20
617.301857
 30
0.0
  0
SPLINE
  5
137
100
AcDbEntity
  8
0
 62
1
100
AcDbSpline
 70
8
 71
3
 72
8
 73
4
 74
0
 40
0
 40
0
 40
0
 40
0
 40
1
 40
1
 40
1
 40
1
 10
477.247222
 20
221.301857
 30
0.0
 10
458.151635
 20
221.301857
 30
0.0
 10
439.838154
 20
213.716164
 30
0.0
 10
426.335535
 20
200.213545
 30
0.0
  0
SPLINE
  5
138
100
AcDbEntity
  8
0
 62
1
100
AcDbSpline
 70
8
 71
3
 72
8
 73
4
 74
0
 40
0
 40
0
 40
0
 40
0
 40
1
 40
1
 40
1
 40
1
 10
483.423840
 20
359.125232
 30
0.0
 10
496.926461
 20
372.627853
 30
0.0
 10
504.512154
 20
390.941338
 30
0.0
 10
504.512152
 20
410.036927
 30
0.0
  0
SPLINE
  5
139
100
AcDbEntity
  8
0
 62
1
100
AcDbSpline
 70
8
 71
3
 72
8
 73
4
 74
0
 40
0
 40
0
 40
0
 40
0
 40
1
 40
1
 40
1
 40
1
 10
249.774345
 20
125.475737
 30
0.0
 10
226.891301
 20
122.140706
 30
0.0
 10
210.282609
 20
101.972655
 30
0.0
 10
211.397746
 20
78.874763
 30
0.0
  0
SPLINE
  5
13a
100
AcDbEntity
  8
0
 62
1
100
AcDbSpline
 70
8
 71
3
 72
8
 73
4
 74
0
 40
0
 40
0
 40
0
 40
0
 40
1
 40
1
 40
1
 40
1
 10
211.397746
 20
78.874763
 30
0.0
 10
212.512883
 20
55.776872
 30
0.0
 10
230.987178
 20
37.302582
 30
0.0
 10
254.085070
 20
36.187452
 30
0.0
  0
SPLINE
  5
13b
100
AcDbEntity
  8
0
 62
1
100
AcDbSpline
 70
8
 71
3
 72
8
 73
4
 74
0
 40
0
 40
0
 40
0
 40
0
 40
1
 40
1
 40
1
 40
1
 10
254.085070
 20
36.187452
 30
0.0
 10
277.182962
 20
35.072322
 30
0.0
 10
297.351008
 20
51.681020
 30
0.0
 10
300.686033
 20
74.564065
 30
0.0
  0
SPLINE
  5
13c
100
AcDbEntity
  8
0
 62
1
100
AcDbSpline
 70
8
 71
3
 72
8
 73
4
 74
0
 40
0
 40
0
 40
0
 40
0
 40
1
 40
1
 40
1
 40
1
 10
300.686033
 20
800.039671
 30
0.0
 10
297.351001
 20
822.922712
 30
0.0
 10
277.182953
 20
839.531403
 30
0.0
 10
254.085063
 20
838.416269
 30
0.0
  0
SPLINE
  5
13d
100
AcDbEntity
  8
0
 62
1
100
AcDbSpline
 70
8
 71
3
 72
8
 73
4
 74
0
 40
0
 40
0
 40
0
 40
0
 40
1
 40
1
 40
1
 40
1
 10
254.085063
 20
838.416269
 30
0.0
 10
230.987174
 20
837.301135
 30
0.0
 10
212.512883
 20
818.826845
 30
0.0
 10
211.397748
 20
795.728955
 30
0.0
  0
SPLINE
  5
13e
100
AcDbEntity
  8
0
 62
1
100
AcDbSpline
 70
8
 71
3
 72
8
 73
4
 74
0
 40
0
 40
0
 40
0
 40
0
 40
1
 40
1
 40
1
 40
1
 10
211.397748
 20
795.728955
 30
0.0
 10
210.282613
 20
772.631066
 30
0.0
 10
226.891303
 20
752.463017
 30
0.0
 10
249.774345
 20
749.127985
 30
0.0
  0
SPLINE
  5
13f
100
AcDbEntity
  8
0
 62
1
100
AcDbSpline
 70
8
 71
3
 72
8
 73
4
 74
0
 40
0
 40
0
 40
0
 40
0
 40
1
 40
1
 40
1
 40
1
 10
504.512152
 20
464.566795
 30
0.0
 10
504.512152
 20
483.662382
 30
0.0
 10
496.926459
 20
501.975863
 30
0.0
 10
483.423840
 20
515.478482
 30
0.0
  0
SPLINE
  5
140
100
AcDbEntity
  8
0
 62
1
100
AcDbSpline
 70
8
 71
3
 72
8
 73
4
 74
0
 40
0
 40
0
 40
0
 40
0
 40
1
 40
1
 40
1
 40
1
 10
426.335535
 20
674.390170
 30
0.0
 10
439.838154
 20
660.887550
 30
0.0
 10
458.151635
 20
653.301858
 30
0.0
 10
477.247222
 20
653.301857
 30
0.0
  0
SPLINE
  5
141
100
AcDbEntity
  8
0
 62
1
100
AcDbSpline
 70
8
 71
3
 72
8
 73
4
 74
0
 40
0
 40
0
 40
0
 40
0
 40
1
 40
1
 40
1
 40
1
 10
798.688800
 20
200.213545
 30
0.0
 10
785.186185
 20
213.716160
 30
0.0
 10
766.872709
 20
221.301853
 30
0.0
 10
747.777127
 20
221.301857
 30
0.0
  0
SPLINE
  5
142
100
AcDbEntity
  8
0
 62
1
100
AcDbSpline
 70
8
 71
3
 72
8
 73
4
 74
0
 40
0
 40
0
 40
0
 40
0
 40
1
 40
1
 40
1
 40
1
 10
720.512152
 20
410.036927
 30
0.0
 10
720.512161
 20
390.941332
 30
0.0
 10
728.097868
 20
372.627847
 30
0.0
 10
741.600502
 20
359.125232
 30
0.0
  0
SPLINE
  5
143
100
AcDbEntity
  8
0
 62
1
100
AcDbSpline
 70
8
 71
3
 72
8
 73
4
 74
0
 40
0
 40
0
 40
0
 40
0
 40
1
 40
1
 40
1
 40
1
 10
924.338325
 20
74.564065
 30
0.0
 10
927.673347
 20
51.681014
 30
0.0
 10
947.841400
 20
35.072312
 30
0.0
 10
970.939298
 20
36.187447
 30
0.0
  0
SPLINE
  5
144
100
AcDbEntity
  8
0
 62
1
100
AcDbSpline
 70
8
 71
3
 72
8
 73
4
 74
0
 40
0
 40
0
 40
0
 40
0
 40
1
 40
1
 40
1
 40
1
 10
970.939298
 20
36.187447
 30
0.0
 10
994.037195
 20
37.302582
 30
0.0
 10
1012.511488
 20
55.776884
 30
0.0
 10
1013.626613
 20
78.874782
 30
0.0
  0
SPLINE
  5
145
100
AcDbEntity
  8
0
 62
1
100
AcDbSpline
 70
8
 71
3
 72
8
 73
4
 74
0
 40
0
 40
0
 40
0
 40
0
 40
1
 40
1
 40
1
 40
1
 10
1013.626613
 20
78.874782
 30
0.0
 10
1014.741738
 20
101.972679
 30
0.0
 10
998.133027
 20
122.140725
 30
0.0
 10
975.249975
 20
125.475737
 30
0.0
  0
SPLINE
  5
146
100
AcDbEntity
  8
0
 62
4
100
AcDbSpline
 70
8
 71
3
 72
8
 73
4
 74
0
 40
0
 40
0
 40
0
 40
0
 40
1
 40
1
 40
1
 40
1
 10
621.512152
 20
437.301857
 30
0.0
 10
621.512152
 20
440.517248
 30
0.0
 10
619.796762
 20
443.488391
 30
0.0
 10
617.012152
 20
445.096086
 30
0.0
  0
SPLINE
  5
147
100
AcDbEntity
  8
0
 62
4
100
AcDbSpline
 70
8
 71
3
 72
8
 73
4
 74
0
 40
0
 40
0
 40
0
 40
0
 40
1
 40
1
 40
1
 40
1
 10
617.012152
 20
445.096086
 30
0.0
 10
614.227543
 20
446.703781
 30
0.0
 10
610.796762
 20
446.703781
 30
0.0
 10
608.012152
 20
445.096086
 30
0.0
  0
SPLINE
  5
148
100
AcDbEntity
  8
0
 62
4
100
AcDbSpline
 70
8
 71
3
 72
8
 73
4
 74
0
 40
0
 40
0
 40
0
 40
0
 40
1
 40
1
 40
1
 40
1
 10
608.012152
 20
445.096086
 30
0.0
 10
605.227543
 20
443.488391
 30
0.0
 10
603.512152
 20
440.517248
 30
0.0
 10
603.512152
 20
437.301857
 30
0.0
  0
SPLINE
  5
149
100
AcDbEntity
  8
0
 62
4
100
AcDbSpline
 70
8
 71
3
 72
8
 73
4
 74
0
 40
0
 40
0
 40
0
 40
0
 40
1
 40
1
 40
1
 40
1
 10
603.512152
 20
437.301857
 30
0.0
 10
603.512152
 20
434.086467
 30
0.0
 10
605.227543
 20
431.115324
 30
0.0
 10
608.012152
 20
429.507629
 30
0.0
  0
SPLINE
  5
14a
100
AcDbEntity
  8
0
 62
4
100
AcDbSpline
 70
8
 71
3
 72
8
 73
4
 74
0
 40
0
 40
0
 40
0
 40
0
 40
1
 40
1
 40
1
 40
1
 10
608.012152
 20
429.507629
 30
0.0
 10
610.796762
 20
427.899933
 30
0.0
 10
614.227543
 20
427.899933
 30
0.0
 10
617.012152
 20
429.507629
 30
0.0
  0
SPLINE
  5
14b
100
AcDbEntity
  8
0
 62
4
100
AcDbSpline
 70
8
 71
3
 72
8
 73
4
 74
0
 40
0
 40
0
 40
0
 40
0
 40
1
 40
1
 40
1
 40
1
 10
617.012152
 20
429.507629
 30
0.0
 10
619.796762
 20
431.115324
 30
0.0
 10
621.512152
 20
434.086467
 30
0.0
 10
621.512152
 20
437.301857
 30
0.0
  0
LWPOLYLINE
  5
14c
100
AcDbEntity
  8
0
 62
1
100
AcDbPolyline
 90
2
 70
0
 10
747.777128
 20
653.301857
 30
0.0
 10
477.247222
 20
653.301857
 30
0.0
  0
SPLINE
  5
14d
100
AcDbEntity
  8
0
 62
1
100
AcDbSpline
 70
8
 71
3
 72
8
 73
4
 74
0
 40
0
 40
0
 40
0
 40
0
 40
1
 40
1
 40
1
 40
1
 10
741.600502
 20
515.478482
 30
0.0
 10
728.097869
 20
501.975869
 30
0.0
 10
720.512163
 20
483.662387
 30
0.0
 10
720.512152
 20
464.566795
 30
0.0
  0
SPLINE
  5
14e
100
AcDbEntity
  8
0
 62
1
100
AcDbSpline
 70
8
 71
3
 72
8
 73
4
 74
0
 40
0
 40
0
 40
0
 40
0
 40
1
 40
1
 40
1
 40
1
 10
747.777127
 20
653.301857
 30
0.0
 10
766.872709
 20
653.301862
 30
0.0
 10
785.186185
 20
660.887554
 30
0.0
 10
798.688800
 20
674.390170
 30
0.0
  0
SPLINE
  5
14f
100
AcDbEntity
  8
0
 62
1
100
AcDbSpline
 70
8
 71
3
 72
8
 73
4
 74
0
 40
0
 40
0
 40
0
 40
0
 40
1
 40
1
 40
1
 40
1
 10
975.249975
 20
749.127985
 30
0.0
 10
998.133025
 20
752.462998
 30
0.0
 10
1014.741734
 20
772.631041
 30
0.0
 10
1013.626611
 20
795.728937
 30
0.0
  0
SPLINE
  5
150
100
AcDbEntity
  8
0
 62
1
100
AcDbSpline
 70
8
 71
3
 72
8
 73
4
 74
0
 40
0
 40
0
 40
0
 40
0
 40
1
 40
1
 40
1
 40
1
 10
1013.626611
 20
795.728937
 30
0.0
 10
1012.511488
 20
818.826833
 30
0.0
 10
994.037199
 20
837.301135
 30
0.0
 10
970.939304
 20
838.416274
 30
0.0
  0
SPLINE
  5
151
100
AcDbEntity
  8
0
 62
1
100
AcDbSpline
 70
8
 71
3
 72
8
 73
4
 74
0
 40
0
 40
0
 40
0
 40
0
 40
1
 40
1
 40
1
 40
1
 10
970.939304
 20
838.416274
 30
0.0
 10
947.841409
 20
839.531413
 30
0.0
 10
927.673354
 20
822.922718
 30
0.0
 10
924.338325
 20
800.039671
 30
0.0
  0
SPLINE
  5
152
100
AcDbEntity
  8
02___PRT_ALL_AXES
 62
4
100
AcDbSpline
 70
8
 71
3
 72
8
 73
4
 74
0
 40
0
 40
0
 40
0
 40
0
 40
1
 40
1
 40
1
 40
1
 10
265.250490
 20
81.040165
 30
0.0
 10
265.250490
 20
84.255555
 30
0.0
 10
263.535100
 20
87.226698
 30
0.0
 10
260.750490
 20
88.834393
 30
0.0
  0
SPLINE
  5
153
100
AcDbEntity
  8
02___PRT_ALL_AXES
 62
4
100
AcDbSpline
 70
8
 71
3
 72
8
 73
4
 74
0
 40
0
 40
0
 40
0
 40
0
 40
1
 40
1
 40
1
 40
1
 10
260.750490
 20
88.834393
 30
0.0
 10
257.965880
 20
90.442089
 30
0.0
 10
254.535100
 20
90.442089
 30
0.0
 10
251.750490
 20
88.834393
 30
0.0
  0
SPLINE
  5
154
100
AcDbEntity
  8
02___PRT_ALL_AXES
 62
4
100
AcDbSpline
 70
8
 71
3
 72
8
 73
4
 74
0
 40
0
 40
0
 40
0
 40
0
 40
1
 40
1
 40
1
 40
1
 10
251.750490
 20
88.834393
 30
0.0
 10
248.965880
 20
87.226698
 30
0.0
 10
247.250490
 20
84.255555
 30
0.0
 10
247.250490
 20
81.040165
 30
0.0
  0
SPLINE
  5
155
100
AcDbEntity
  8
02___PRT_ALL_AXES
 62
4
100
AcDbSpline
 70
8
 71
3
 72
8
 73
4
 74
0
 40
0
 40
0
 40
0
 40
0
 40
1
 40
1
 40
1
 40
1
 10
247.250490
 20
81.040165
 30
0.0
 10
247.250490
 20
77.824774
 30
0.0
 10
248.965880
 20
74.853631
 30
0.0
 10
251.750490
 20
73.245936
 30
0.0
  0
SPLINE
  5
156
100
AcDbEntity
  8
02___PRT_ALL_AXES
 62
4
100
AcDbSpline
 70
8
 71
3
 72
8
 73
4
 74
0
 40
0
 40
0
 40
0
 40
0
 40
1
 40
1
 40
1
 40
1
 10
251.750490
 20
73.245936
 30
0.0
 10
254.535100
 20
71.638241
 30
0.0
 10
257.965880
 20
71.638241
 30
0.0
 10
260.750490
 20
73.245936
 30
0.0
  0
SPLINE
  5
157
100
AcDbEntity
  8
02___PRT_ALL_AXES
 62
4
100
AcDbSpline
 70
8
 71
3
 72
8
 73
4
 74
0
 40
0
 40
0
 40
0
 40
0
 40
1
 40
1
 40
1
 40
1
 10
260.750490
 20
73.245936
 30
0.0
 10
263.535100
 20
74.853631
 30
0.0
 10
265.250490
 20
77.824774
 30
0.0
 10
265.250490
 20
81.040165
 30
0.0
  0
LWPOLYLINE
  5
158
100
AcDbEntity
  8
0
 62
4
100
AcDbPolyline
 90
1
 70
1
 10
621.512152
 20
437.301857
 30
0.0
  0
SPLINE
  5
159
100
AcDbEntity
  8
02___PRT_ALL_AXES
 62
4
100
AcDbSpline
 70
8
 71
3
 72
8
 73
4
 74
0
 40
0
 40
0
 40
0
 40
0
 40
1
 40
1
 40
1
 40
1
 10
335.072603
 20
173.026982
 30
0.0
 10
335.072603
 20
175.599294
 30
0.0
 10
333.700290
 20
177.976209
 30
0.0
 10
331.472602
 20
179.262365
 30
0.0
  0
SPLINE
  5
15a
100
AcDbEntity
  8
02___PRT_ALL_AXES
 62
4
100
AcDbSpline
 70
8
 71
3
 72
8
 73
4
 74
0
 40
0
 40
0
 40
0
 40
0
 40
1
 40
1
 40
1
 40
1
 10
331.472602
 20
179.262365
 30
0.0
 10
329.244915
 20
180.548521
 30
0.0
 10
326.500290
 20
180.548521
 30
0.0
 10
324.272602
 20
179.262365
 30
0.0
  0
SPLINE
  5
15b
100
AcDbEntity
  8
02___PRT_ALL_AXES
 62
4
100
AcDbSpline
 70
8
 71
3
 72
8
 73
4
 74
0
 40
0
 40
0
 40
0
 40
0
 40
1
 40
1
 40
1
 40
1
 10
324.272602
 20
179.262365
 30
0.0
 10
322.044915
 20
177.976209
 30
0.0
 10
320.672602
 20
175.599294
 30
0.0
 10
320.672602
 20
173.026982
 30
0.0
  0
SPLINE
  5
15c
100
AcDbEntity
  8
02___PRT_ALL_AXES
 62
4
100
AcDbSpline
 70
8
 71
3
 72
8
 73
4
 74
0
 40
0
 40
0
 40
0
 40
0
 40
1
 40
1
 40
1
 40
1
 10
320.672602
 20
173.026982
 30
0.0
 10
320.672602
 20
170.454670
 30
0.0
 10
322.044915
 20
168.077755
 30
0.0
 10
324.272602
 20
166.791599
 30
0.0
  0
SPLINE
  5
15d
100
AcDbEntity
  8
02___PRT_ALL_AXES
 62
4
100
AcDbSpline
 70
8
 71
3
 72
8
 73
4
 74
0
 40
0
 40
0
 40
0
 40
0
 40
1
 40
1
 40
1
 40
1
 10
324.272602
 20
166.791599
 30
0.0
 10
326.500290
 20
165.505443
 30
0.0
 10
329.244915
 20
165.505443
 30
0.0
 10
331.472602
 20
166.791599
 30
0.0
  0
SPLINE
  5
15e
100
AcDbEntity
  8
02___PRT_ALL_AXES
 62
4
100
AcDbSpline
 70
8
 71
3
 72
8
 73
4
 74
0
 40
0
 40
0
 40
0
 40
0
 40
1
 40
1
 40
1
 40
1
 10
331.472602
 20
166.791599
 30
0.0
 10
333.700290
 20
168.077755
 30
0.0
 10
335.072603
 20
170.454670
 30
0.0
 10
335.072603
 20
173.026982
 30
0.0
  0
LWPOLYLINE
  5
15f
100
AcDbEntity
  8
02___PRT_ALL_AXES
 62
4
100
AcDbPolyline
 90
1
 70
1
 10
265.250490
 20
81.040165
 30
0.0
  0
SPLINE
  5
160
100
AcDbEntity
  8
02___PRT_ALL_AXES
 62
4
100
AcDbSpline
 70
8
 71
3
 72
8
 73
4
 74
0
 40
0
 40
0
 40
0
 40
0
 40
1
 40
1
 40
1
 40
1
 10
355.437277
 20
152.662300
 30
0.0
 10
355.437278
 20
155.234612
 30
0.0
 10
354.064966
 20
157.611527
 30
0.0
 10
351.837278
 20
158.897683
 30
0.0
  0
SPLINE
  5
161
100
AcDbEntity
  8
02___PRT_ALL_AXES
 62
4
100
AcDbSpline
 70
8
 71
3
 72
8
 73
4
 74
0
 40
0
 40
0
 40
0
 40
0
 40
1
 40
1
 40
1
 40
1
 10
351.837278
 20
158.897683
 30
0.0
 10
349.609590
 20
160.183839
 30
0.0
 10
346.864965
 20
160.183839
 30
0.0
 10
344.637277
 20
158.897683
 30
0.0
  0
SPLINE
  5
162
100
AcDbEntity
  8
02___PRT_ALL_AXES
 62
4
100
AcDbSpline
 70
8
 71
3
 72
8
 73
4
 74
0
 40
0
 40
0
 40
0
 40
0
 40
1
 40
1
 40
1
 40
1
 10
344.637277
 20
158.897683
 30
0.0
 10
342.409589
 20
157.611527
 30
0.0
 10
341.037277
 20
155.234612
 30
0.0
 10
341.037277
 20
152.662300
 30
0.0
  0
SPLINE
  5
163
100
AcDbEntity
  8
02___PRT_ALL_AXES
 62
4
100
AcDbSpline
 70
8
 71
3
 72
8
 73
4
 74
0
 40
0
 40
0
 40
0
 40
0
 40
1
 40
1
 40
1
 40
1
 10
341.037277
 20
152.662300
 30
0.0
 10
341.037277
 20
150.089988
 30
0.0
 10
342.409590
 20
147.713073
 30
0.0
 10
344.637277
 20
146.426917
 30
0.0
  0
SPLINE
  5
164
100
AcDbEntity
  8
02___PRT_ALL_AXES
 62
4
100
AcDbSpline
 70
8
 71
3
 72
8
 73
4
 74
0
 40
0
 40
0
 40
0
 40
0
 40
1
 40
1
 40
1
 40
1
 10
344.637277
 20
146.426917
 30
0.0
 10
346.864965
 20
145.140761
 30
0.0
 10
349.609590
 20
145.140761
 30
0.0
 10
351.837277
 20
146.426917
 30
0.0
  0
SPLINE
  5
165
100
AcDbEntity
  8
02___PRT_ALL_AXES
 62
4
100
AcDbSpline
 70
8
 71
3
 72
8
 73
4
 74
0
 40
0
 40
0
 40
0
 40
0
 40
1
 40
1
 40
1
 40
1
 10
351.837277
 20
146.426917
 30
0.0
 10
354.064965
 20
147.713073
 30
0.0
 10
355.437277
 20
150.089988
 30
0.0
 10
355.437277
 20
152.662300
 30
0.0
  0
LWPOLYLINE
  5
166
100
AcDbEntity
  8
02___PRT_ALL_AXES
 62
4
100
AcDbPolyline
 90
1
 70
1
 10
335.072603
 20
173.026982
 30
0.0
  0
SPLINE
  5
167
100
AcDbEntity
  8
02___PRT_ALL_AXES
 62
4
100
AcDbSpline
 70
8
 71
3
 72
8
 73
4
 74
0
 40
0
 40
0
 40
0
 40
0
 40
1
 40
1
 40
1
 40
1
 10
261.919770
 20
105.520195
 30
0.0
 10
261.919770
 20
107.545633
 30
0.0
 10
260.839211
 20
109.417216
 30
0.0
 10
259.085130
 20
110.429935
 30
0.0
  0
SPLINE
  5
168
100
AcDbEntity
  8
02___PRT_ALL_AXES
 62
4
100
AcDbSpline
 70
8
 71
3
 72
8
 73
4
 74
0
 40
0
 40
0
 40
0
 40
0
 40
1
 40
1
 40
1
 40
1
 10
259.085130
 20
110.429935
 30
0.0
 10
257.331049
 20
111.442655
 30
0.0
 10
255.169931
 20
111.442655
 30
0.0
 10
253.415850
 20
110.429935
 30
0.0
  0
SPLINE
  5
169
100
AcDbEntity
  8
02___PRT_ALL_AXES
 62
4
100
AcDbSpline
 70
8
 71
3
 72
8
 73
4
 74
0
 40
0
 40
0
 40
0
 40
0
 40
1
 40
1
 40
1
 40
1
 10
253.415850
 20
110.429935
 30
0.0
 10
251.661769
 20
109.417216
 30
0.0
 10
250.581210
 20
107.545633
 30
0.0
 10
250.581210
 20
105.520195
 30
0.0
  0
SPLINE
  5
16a
100
AcDbEntity
  8
02___PRT_ALL_AXES
 62
4
100
AcDbSpline
 70
8
 71
3
 72
8
 73
4
 74
0
 40
0
 40
0
 40
0
 40
0
 40
1
 40
1
 40
1
 40
1
 10
250.581210
 20
105.520195
 30
0.0
 10
250.581210
 20
103.494756
 30
0.0
 10
251.661769
 20
101.623174
 30
0.0
 10
253.415850
 20
100.610454
 30
0.0
  0
SPLINE
  5
16b
100
AcDbEntity
  8
02___PRT_ALL_AXES
 62
4
100
AcDbSpline
 70
8
 71
3
 72
8
 73
4
 74
0
 40
0
 40
0
 40
0
 40
0
 40
1
 40
1
 40
1
 40
1
 10
253.415850
 20
100.610454
 30
0.0
 10
255.169931
 20
99.597735
 30
0.0
 10
257.331049
 20
99.597735
 30
0.0
 10
259.085130
 20
100.610454
 30
0.0
  0
SPLINE
  5
16c
100
AcDbEntity
  8
02___PRT_ALL_AXES
 62
4
100
AcDbSpline
 70
8
 71
3
 72
8
 73
4
 74
0
 40
0
 40
0
 40
0
 40
0
 40
1
 40
1
 40
1
 40
1
 10
259.085130
 20
100.610454
 30
0.0
 10
260.839211
 20
101.623174
 30
0.0
 10
261.919770
 20
103.494756
 30
0.0
 10
261.919770
 20
105.520195
 30
0.0
  0
LWPOLYLINE
  5
16d
100
AcDbEntity
  8
02___PRT_ALL_AXES
 62
4
100
AcDbPolyline
 90
1
 70
1
 10
355.437277
 20
152.662300
 30
0.0
  0
SPLINE
  5
16e
100
AcDbEntity
  8
02___PRT_ALL_AXES
 62
4
100
AcDbSpline
 70
8
 71
3
 72
8
 73
4
 74
0
 40
0
 40
0
 40
0
 40
0
 40
1
 40
1
 40
1
 40
1
 10
237.439770
 20
81.040165
 30
0.0
 10
237.439770
 20
83.065603
 30
0.0
 10
236.359211
 20
84.937186
 30
0.0
 10
234.605130
 20
85.949905
 30
0.0
  0
SPLINE
  5
16f
100
AcDbEntity
  8
02___PRT_ALL_AXES
 62
4
100
AcDbSpline
 70
8
 71
3
 72
8
 73
4
 74
0
 40
0
 40
0
 40
0
 40
0
 40
1
 40
1
 40
1
 40
1
 10
234.605130
 20
85.949905
 30
0.0
 10
232.851049
 20
86.962625
 30
0.0
 10
230.689931
 20
86.962625
 30
0.0
 10
228.935850
 20
85.949905
 30
0.0
  0
SPLINE
  5
170
100
AcDbEntity
  8
02___PRT_ALL_AXES
 62
4
100
AcDbSpline
 70
8
 71
3
 72
8
 73
4
 74
0
 40
0
 40
0
 40
0
 40
0
 40
1
 40
1
 40
1
 40
1
 10
228.935850
 20
85.949905
 30
0.0
 10
227.181769
 20
84.937186
 30
0.0
 10
226.101210
 20
83.065603
 30
0.0
 10
226.101210
 20
81.040165
 30
0.0
  0
SPLINE
  5
171
100
AcDbEntity
  8
02___PRT_ALL_AXES
 62
4
100
AcDbSpline
 70
8
 71
3
 72
8
 73
4
 74
0
 40
0
 40
0
 40
0
 40
0
 40
1
 40
1
 40
1
 40
1
 10
226.101210
 20
81.040165
 30
0.0
 10
226.101210
 20
79.014726
 30
0.0
 10
227.181769
 20
77.143144
 30
0.0
 10
228.935850
 20
76.130424
 30
0.0
  0
SPLINE
  5
172
100
AcDbEntity
  8
02___PRT_ALL_AXES
 62
4
100
AcDbSpline
 70
8
 71
3
 72
8
 73
4
 74
0
 40
0
 40
0
 40
0
 40
0
 40
1
 40
1
 40
1
 40
1
 10
228.935850
 20
76.130424
 30
0.0
 10
230.689931
 20
75.117705
 30
0.0
 10
232.851049
 20
75.117705
 30
0.0
 10
234.605130
 20
76.130424
 30
0.0
  0
SPLINE
  5
173
100
AcDbEntity
  8
02___PRT_ALL_AXES
 62
4
100
AcDbSpline
 70
8
 71
3
 72
8
 73
4
 74
0
 40
0
 40
0
 40
0
 40
0
 40
1
 40
1
 40
1
 40
1
 10
234.605130
 20
76.130424
 30
0.0
 10
236.359211
 20
77.143144
 30
0.0
 10
237.439770
 20
79.014726
 30
0.0
 10
237.439770
 20
81.040165
 30
0.0
  0
LWPOLYLINE
  5
174
100
AcDbEntity
  8
02___PRT_ALL_AXES
 62
4
100
AcDbPolyline
 90
1
 70
1
 10
261.919770
 20
105.520195
 30
0.0
  0
SPLINE
  5
175
100
AcDbEntity
  8
02___PRT_ALL_AXES
 62
4
100
AcDbSpline
 70
8
 71
3
 72
8
 73
4
 74
0
 40
0
 40
0
 40
0
 40
0
 40
1
 40
1
 40
1
 40
1
 10
286.399770
 20
81.040165
 30
0.0
 10
286.399770
 20
83.065603
 30
0.0
 10
285.319211
 20
84.937186
 30
0.0
 10
283.565130
 20
85.949905
 30
0.0
  0
SPLINE
  5
176
100
AcDbEntity
  8
02___PRT_ALL_AXES
 62
4
100
AcDbSpline
 70
8
 71
3
 72
8
 73
4
 74
0
 40
0
 40
0
 40
0
 40
0
 40
1
 40
1
 40
1
 40
1
 10
283.565130
 20
85.949905
 30
0.0
 10
281.811049
 20
86.962625
 30
0.0
 10
279.649931
 20
86.962625
 30
0.0
 10
277.895850
 20
85.949905
 30
0.0
  0
SPLINE
  5
177
100
AcDbEntity
  8
02___PRT_ALL_AXES
 62
4
100
AcDbSpline
 70
8
 71
3
 72
8
 73
4
 74
0
 40
0
 40
0
 40
0
 40
0
 40
1
 40
1
 40
1
 40
1
 10
277.895850
 20
85.949905
 30
0.0
 10
276.141769
 20
84.937186
 30
0.0
 10
275.061210
 20
83.065603
 30
0.0
 10
275.061210
 20
81.040165
 30
0.0
  0
SPLINE
  5
178
100
AcDbEntity
  8
02___PRT_ALL_AXES
 62
4
100
AcDbSpline
 70
8
 71
3
 72
8
 73
4
 74
0
 40
0
 40
0
 40
0
 40
0
 40
1
 40
1
 40
1
 40
1
 10
275.061210
 20
81.040165
 30
0.0
 10
275.061210
 20
79.014726
 30
0.0
 10
276.141769
 20
77.143144
 30
0.0
 10
277.895850
 20
76.130424
 30
0.0
  0
SPLINE
  5
179
100
AcDbEntity
  8
02___PRT_ALL_AXES
 62
4
100
AcDbSpline
 70
8
 71
3
 72
8
 73
4
 74
0
 40
0
 40
0
 40
0
 40
0
 40
1
 40
1
 40
1
 40
1
 10
277.895850
 20
76.130424
 30
0.0
 10
279.649931
 20
75.117705
 30
0.0
 10
281.811049
 20
75.117705
 30
0.0
 10
283.565130
 20
76.130424
 30
0.0
  0
SPLINE
  5
17a
100
AcDbEntity
  8
02___PRT_ALL_AXES
 62
4
100
AcDbSpline
 70
8
 71
3
 72
8
 73
4
 74
0
 40
0
 40
0
 40
0
 40
0
 40
1
 40
1
 40
1
 40
1
 10
283.565130
 20
76.130424
 30
0.0
 10
285.319211
 20
77.143144
 30
0.0
 10
286.399770
 20
79.014726
 30
0.0
 10
286.399770
 20
81.040165
 30
0.0
  0
LWPOLYLINE
  5
17b
100
AcDbEntity
  8
02___PRT_ALL_AXES
 62
4
100
AcDbPolyline
 90
1
 70
1
 10
237.439770
 20
81.040165
 30
0.0
  0
SPLINE
  5
17c
100
AcDbEntity
  8
02___PRT_ALL_AXES
 62
4
100
AcDbSpline
 70
8
 71
3
 72
8
 73
4
 74
0
 40
0
 40
0
 40
0
 40
0
 40
1
 40
1
 40
1
 40
1
 10
261.919770
 20
56.560165
 30
0.0
 10
261.919770
 20
58.585603
 30
0.0
 10
260.839211
 20
60.457186
 30
0.0
 10
259.085130
 20
61.469905
 30
0.0
  0
SPLINE
  5
17d
100
AcDbEntity
  8
02___PRT_ALL_AXES
 62
4
100
AcDbSpline
 70
8
 71
3
 72
8
 73
4
 74
0
 40
0
 40
0
 40
0
 40
0
 40
1
 40
1
 40
1
 40
1
 10
259.085130
 20
61.469905
 30
0.0
 10
257.331049
 20
62.482625
 30
0.0
 10
255.169931
 20
62.482625
 30
0.0
 10
253.415850
 20
61.469905
 30
0.0
  0
SPLINE
  5
17e
100
AcDbEntity
  8
02___PRT_ALL_AXES
 62
4
100
AcDbSpline
 70
8
 71
3
 72
8
 73
4
 74
0
 40
0
 40
0
 40
0
 40
0
 40
1
 40
1
 40
1
 40
1
 10
253.415850
 20
61.469905
 30
0.0
 10
251.661769
 20
60.457186
 30
0.0
 10
250.581210
 20
58.585603
 30
0.0
 10
250.581210
 20
56.560165
 30
0.0
  0
SPLINE
  5
17f
100
AcDbEntity
  8
02___PRT_ALL_AXES
 62
4
100
AcDbSpline
 70
8
 71
3
 72
8
 73
4
 74
0
 40
0
 40
0
 40
0
 40
0
 40
1
 40
1
 40
1
 40
1
 10
250.581210
 20
56.560165
 30
0.0
 10
250.581210
 20
54.534726
 30
0.0
 10
251.661769
 20
52.663144
 30
0.0
 10
253.415850
 20
51.650424
 30
0.0
  0
SPLINE
  5
180
100
AcDbEntity
  8
02___PRT_ALL_AXES
 62
4
100
AcDbSpline
 70
8
 71
3
 72
8
 73
4
 74
0
 40
0
 40
0
 40
0
 40
0
 40
1
 40
1
 40
1
 40
1
 10
253.415850
 20
51.650424
 30
0.0
 10
255.169931
 20
50.637705
 30
0.0
 10
257.331049
 20
50.637705
 30
0.0
 10
259.085130
 20
51.650424
 30
0.0
  0
SPLINE
  5
181
100
AcDbEntity
  8
02___PRT_ALL_AXES
 62
4
100
AcDbSpline
 70
8
 71
3
 72
8
 73
4
 74
0
 40
0
 40
0
 40
0
 40
0
 40
1
 40
1
 40
1
 40
1
 10
259.085130
 20
51.650424
 30
0.0
 10
260.839211
 20
52.663144
 30
0.0
 10
261.919770
 20
54.534726
 30
0.0
 10
261.919770
 20
56.560165
 30
0.0
  0
LWPOLYLINE
  5
182
100
AcDbEntity
  8
02___PRT_ALL_AXES
 62
4
100
AcDbPolyline
 90
1
 70
1
 10
286.399770
 20
81.040165
 30
0.0
  0
SPLINE
  5
183
100
AcDbEntity
  8
02___PRT_ALL_AXES
 62
4
100
AcDbSpline
 70
8
 71
3
 72
8
 73
4
 74
0
 40
0
 40
0
 40
0
 40
0
 40
1
 40
1
 40
1
 40
1
 10
265.250490
 20
793.584718
 30
0.0
 10
265.250490
 20
796.800108
 30
0.0
 10
263.535100
 20
799.771251
 30
0.0
 10
260.750490
 20
801.378946
 30
0.0
  0
SPLINE
  5
184
100
AcDbEntity
  8
02___PRT_ALL_AXES
 62
4
100
AcDbSpline
 70
8
 71
3
 72
8
 73
4
 74
0
 40
0
 40
0
 40
0
 40
0
 40
1
 40
1
 40
1
 40
1
 10
260.750490
 20
801.378946
 30
0.0
 10
257.965880
 20
802.986642
 30
0.0
 10
254.535100
 20
802.986642
 30
0.0
 10
251.750490
 20
801.378946
 30
0.0
  0
SPLINE
  5
185
100
AcDbEntity
  8
02___PRT_ALL_AXES
 62
4
100
AcDbSpline
 70
8
 71
3
 72
8
 73
4
 74
0
 40
0
 40
0
 40
0
 40
0
 40
1
 40
1
 40
1
 40
1
 10
251.750490
 20
801.378946
 30
0.0
 10
248.965880
 20
799.771251
 30
0.0
 10
247.250490
 20
796.800108
 30
0.0
 10
247.250490
 20
793.584718
 30
0.0
  0
SPLINE
  5
186
100
AcDbEntity
  8
02___PRT_ALL_AXES
 62
4
100
AcDbSpline
 70
8
 71
3
 72
8
 73
4
 74
0
 40
0
 40
0
 40
0
 40
0
 40
1
 40
1
 40
1
 40
1
 10
247.250490
 20
793.584718
 30
0.0
 10
247.250490
 20
790.369327
 30
0.0
 10
248.965880
 20
787.398184
 30
0.0
 10
251.750490
 20
785.790489
 30
0.0
  0
SPLINE
  5
187
100
AcDbEntity
  8
02___PRT_ALL_AXES
 62
4
100
AcDbSpline
 70
8
 71
3
 72
8
 73
4
 74
0
 40
0
 40
0
 40
0
 40
0
 40
1
 40
1
 40
1
 40
1
 10
251.750490
 20
785.790489
 30
0.0
 10
254.535100
 20
784.182794
 30
0.0
 10
257.965880
 20
784.182794
 30
0.0
 10
260.750490
 20
785.790489
 30
0.0
  0
SPLINE
  5
188
100
AcDbEntity
  8
02___PRT_ALL_AXES
 62
4
100
AcDbSpline
 70
8
 71
3
 72
8
 73
4
 74
0
 40
0
 40
0
 40
0
 40
0
 40
1
 40
1
 40
1
 40
1
 10
260.750490
 20
785.790489
 30
0.0
 10
263.535100
 20
787.398184
 30
0.0
 10
265.250490
 20
790.369327
 30
0.0
 10
265.250490
 20
793.584718
 30
0.0
  0
LWPOLYLINE
  5
189
100
AcDbEntity
  8
02___PRT_ALL_AXES
 62
4
100
AcDbPolyline
 90
1
 70
1
 10
261.919770
 20
56.560165
 30
0.0
  0
SPLINE
  5
18a
100
AcDbEntity
  8
02___PRT_ALL_AXES
 62
4
100
AcDbSpline
 70
8
 71
3
 72
8
 73
4
 74
0
 40
0
 40
0
 40
0
 40
0
 40
1
 40
1
 40
1
 40
1
 10
355.437277
 20
721.941415
 30
0.0
 10
355.437278
 20
724.513727
 30
0.0
 10
354.064966
 20
726.890642
 30
0.0
 10
351.837278
 20
728.176798
 30
0.0
  0
SPLINE
  5
18b
100
AcDbEntity
  8
02___PRT_ALL_AXES
 62
4
100
AcDbSpline
 70
8
 71
3
 72
8
 73
4
 74
0
 40
0
 40
0
 40
0
 40
0
 40
1
 40
1
 40
1
 40
1
 10
351.837278
 20
728.176798
 30
0.0
 10
349.609590
 20
729.462954
 30
0.0
 10
346.864965
 20
729.462954
 30
0.0
 10
344.637277
 20
728.176798
 30
0.0
  0
SPLINE
  5
18c
100
AcDbEntity
  8
02___PRT_ALL_AXES
 62
4
100
AcDbSpline
 70
8
 71
3
 72
8
 73
4
 74
0
 40
0
 40
0
 40
0
 40
0
 40
1
 40
1
 40
1
 40
1
 10
344.637277
 20
728.176798
 30
0.0
 10
342.409589
 20
726.890642
 30
0.0
 10
341.037277
 20
724.513727
 30
0.0
 10
341.037277
 20
721.941415
 30
0.0
  0
SPLINE
  5
18d
100
AcDbEntity
  8
02___PRT_ALL_AXES
 62
4
100
AcDbSpline
 70
8
 71
3
 72
8
 73
4
 74
0
 40
0
 40
0
 40
0
 40
0
 40
1
 40
1
 40
1
 40
1
 10
341.037277
 20
721.941415
 30
0.0
 10
341.037277
 20
719.369103
 30
0.0
 10
342.409590
 20
716.992188
 30
0.0
 10
344.637277
 20
715.706032
 30
0.0
  0
SPLINE
  5
18e
100
AcDbEntity
  8
02___PRT_ALL_AXES
 62
4
100
AcDbSpline
 70
8
 71
3
 72
8
 73
4
 74
0
 40
0
 40
0
 40
0
 40
0
 40
1
 40
1
 40
1
 40
1
 10
344.637277
 20
715.706032
 30
0.0
 10
346.864965
 20
714.419876
 30
0.0
 10
349.609590
 20
714.419876
 30
0.0
 10
351.837277
 20
715.706032
 30
0.0
  0
SPLINE
  5
18f
100
AcDbEntity
  8
02___PRT_ALL_AXES
 62
4
100
AcDbSpline
 70
8
 71
3
 72
8
 73
4
 74
0
 40
0
 40
0
 40
0
 40
0
 40
1
 40
1
 40
1
 40
1
 10
351.837277
 20
715.706032
 30
0.0
 10
354.064965
 20
716.992188
 30
0.0
 10
355.437277
 20
719.369103
 30
0.0
 10
355.437277
 20
721.941415
 30
0.0
  0
LWPOLYLINE
  5
190
100
AcDbEntity
  8
02___PRT_ALL_AXES
 62
4
100
AcDbPolyline
 90
1
 70
1
 10
265.250490
 20
793.584718
 30
0.0
  0
SPLINE
  5
191
100
AcDbEntity
  8
02___PRT_ALL_AXES
 62
4
100
AcDbSpline
 70
8
 71
3
 72
8
 73
4
 74
0
 40
0
 40
0
 40
0
 40
0
 40
1
 40
1
 40
1
 40
1
 10
335.072603
 20
701.576740
 30
0.0
 10
335.072603
 20
704.149052
 30
0.0
 10
333.700290
 20
706.525967
 30
0.0
 10
331.472602
 20
707.812123
 30
0.0
  0
SPLINE
  5
192
100
AcDbEntity
  8
02___PRT_ALL_AXES
 62
4
100
AcDbSpline
 70
8
 71
3
 72
8
 73
4
 74
0
 40
0
 40
0
 40
0
 40
0
 40
1
 40
1
 40
1
 40
1
 10
331.472602
 20
707.812123
 30
0.0
 10
329.244915
 20
709.098279
 30
0.0
 10
326.500290
 20
709.098279
 30
0.0
 10
324.272602
 20
707.812123
 30
0.0
  0
SPLINE
  5
193
100
AcDbEntity
  8
02___PRT_ALL_AXES
 62
4
100
AcDbSpline
 70
8
 71
3
 72
8
 73
4
 74
0
 40
0
 40
0
 40
0
 40
0
 40
1
 40
1
 40
1
 40
1
 10
324.272602
 20
707.812123
 30
0.0
 10
322.044915
 20
706.525967
 30
0.0
 10
320.672602
 20
704.149052
 30
0.0
 10
320.672602
 20
701.576740
 30
0.0
  0
SPLINE
  5
194
100
AcDbEntity
  8
02___PRT_ALL_AXES
 62
4
100
AcDbSpline
 70
8
 71
3
 72
8
 73
4
 74
0
 40
0
 40
0
 40
0
 40
0
 40
1
 40
1
 40
1
 40
1
 10
320.672602
 20
701.576740
 30
0.0
 10
320.672602
 20
699.004428
 30
0.0
 10
322.044915
 20
696.627513
 30
0.0
 10
324.272602
 20
695.341357
 30
0.0
  0
SPLINE
  5
195
100
AcDbEntity
  8
02___PRT_ALL_AXES
 62
4
100
AcDbSpline
 70
8
 71
3
 72
8
 73
4
 74
0
 40
0
 40
0
 40
0
 40
0
 40
1
 40
1
 40
1
 40
1
 10
324.272602
 20
695.341357
 30
0.0
 10
326.500290
 20
694.055201
 30
0.0
 10
329.244915
 20
694.055201
 30
0.0
 10
331.472602
 20
695.341357
 30
0.0
  0
SPLINE
  5
196
100
AcDbEntity
  8
02___PRT_ALL_AXES
 62
4
100
AcDbSpline
 70
8
 71
3
 72
8
 73
4
 74
0
 40
0
 40
0
 40
0
 40
0
 40
1
 40
1
 40
1
 40
1
 10
331.472602
 20
695.341357
 30
0.0
 10
333.700290
 20
696.627513
 30
0.0
 10
335.072603
 20
699.004428
 30
0.0
 10
335.072603
 20
701.576740
 30
0.0
  0
LWPOLYLINE
  5
197
100
AcDbEntity
  8
02___PRT_ALL_AXES
 62
4
100
AcDbPolyline
 90
1
 70
1
 10
355.437277
 20
721.941415
 30
0.0
  0
SPLINE
  5
198
100
AcDbEntity
  8
02___PRT_ALL_AXES
 62
4
100
AcDbSpline
 70
8
 71
3
 72
8
 73
4
 74
0
 40
0
 40
0
 40
0
 40
0
 40
1
 40
1
 40
1
 40
1
 10
261.919770
 20
818.064718
 30
0.0
 10
261.919770
 20
820.090156
 30
0.0
 10
260.839211
 20
821.961739
 30
0.0
 10
259.085130
 20
822.974458
 30
0.0
  0
SPLINE
  5
199
100
AcDbEntity
  8
02___PRT_ALL_AXES
 62
4
100
AcDbSpline
 70
8
 71
3
 72
8
 73
4
 74
0
 40
0
 40
0
 40
0
 40
0
 40
1
 40
1
 40
1
 40
1
 10
259.085130
 20
822.974458
 30
0.0
 10
257.331049
 20
823.987178
 30
0.0
 10
255.169931
 20
823.987178
 30
0.0
 10
253.415850
 20
822.974458
 30
0.0
  0
SPLINE
  5
19a
100
AcDbEntity
  8
02___PRT_ALL_AXES
 62
4
100
AcDbSpline
 70
8
 71
3
 72
8
 73
4
 74
0
 40
0
 40
0
 40
0
 40
0
 40
1
 40
1
 40
1
 40
1
 10
253.415850
 20
822.974458
 30
0.0
 10
251.661769
 20
821.961739
 30
0.0
 10
250.581210
 20
820.090156
 30
0.0
 10
250.581210
 20
818.064718
 30
0.0
  0
SPLINE
  5
19b
100
AcDbEntity
  8
02___PRT_ALL_AXES
 62
4
100
AcDbSpline
 70
8
 71
3
 72
8
 73
4
 74
0
 40
0
 40
0
 40
0
 40
0
 40
1
 40
1
 40
1
 40
1
 10
250.581210
 20
818.064718
 30
0.0
 10
250.581210
 20
816.039279
 30
0.0
 10
251.661769
 20
814.167697
 30
0.0
 10
253.415850
 20
813.154977
 30
0.0
  0
SPLINE
  5
19c
100
AcDbEntity
  8
02___PRT_ALL_AXES
 62
4
100
AcDbSpline
 70
8
 71
3
 72
8
 73
4
 74
0
 40
0
 40
0
 40
0
 40
0
 40
1
 40
1
 40
1
 40
1
 10
253.415850
 20
813.154977
 30
0.0
 10
255.169931
 20
812.142258
 30
0.0
 10
257.331049
 20
812.142258
 30
0.0
 10
259.085130
 20
813.154977
 30
0.0
  0
SPLINE
  5
19d
100
AcDbEntity
  8
02___PRT_ALL_AXES
 62
4
100
AcDbSpline
 70
8
 71
3
 72
8
 73
4
 74
0
 40
0
 40
0
 40
0
 40
0
 40
1
 40
1
 40
1
 40
1
 10
259.085130
 20
813.154977
 30
0.0
 10
260.839211
 20
814.167697
 30
0.0
 10
261.919770
 20
816.039279
 30
0.0
 10
261.919770
 20
818.064718
 30
0.0
  0
LWPOLYLINE
  5
19e
100
AcDbEntity
  8
02___PRT_ALL_AXES
 62
4
100
AcDbPolyline
 90
1
 70
1
 10
335.072603
 20
701.576740
 30
0.0
  0
SPLINE
  5
19f
100
AcDbEntity
  8
02___PRT_ALL_AXES
 62
4
100
AcDbSpline
 70
8
 71
3
 72
8
 73
4
 74
0
 40
0
 40
0
 40
0
 40
0
 40
1
 40
1
 40
1
 40
1
 10
286.399770
 20
793.584718
 30
0.0
 10
286.399770
 20
795.610156
 30
0.0
 10
285.319211
 20
797.481739
 30
0.0
 10
283.565130
 20
798.494458
 30
0.0
  0
SPLINE
  5
1a0
100
AcDbEntity
  8
02___PRT_ALL_AXES
 62
4
100
AcDbSpline
 70
8
 71
3
 72
8
 73
4
 74
0
 40
0
 40
0
 40
0
 40
0
 40
1
 40
1
 40
1
 40
1
 10
283.565130
 20
798.494458
 30
0.0
 10
281.811049
 20
799.507178
 30
0.0
 10
279.649931
 20
799.507178
 30
0.0
 10
277.895850
 20
798.494458
 30
0.0
  0
SPLINE
  5
1a1
100
AcDbEntity
  8
02___PRT_ALL_AXES
 62
4
100
AcDbSpline
 70
8
 71
3
 72
8
 73
4
 74
0
 40
0
 40
0
 40
0
 40
0
 40
1
 40
1
 40
1
 40
1
 10
277.895850
 20
798.494458
 30
0.0
 10
276.141769
 20
797.481739
 30
0.0
 10
275.061210
 20
795.610156
 30
0.0
 10
275.061210
 20
793.584718
 30
0.0
  0
SPLINE
  5
1a2
100
AcDbEntity
  8
02___PRT_ALL_AXES
 62
4
100
AcDbSpline
 70
8
 71
3
 72
8
 73
4
 74
0
 40
0
 40
0
 40
0
 40
0
 40
1
 40
1
 40
1
 40
1
 10
275.061210
 20
793.584718
 30
0.0
 10
275.061210
 20
791.559279
 30
0.0
 10
276.141769
 20
789.687697
 30
0.0
 10
277.895850
 20
788.674977
 30
0.0
  0
SPLINE
  5
1a3
100
AcDbEntity
  8
02___PRT_ALL_AXES
 62
4
100
AcDbSpline
 70
8
 71
3
 72
8
 73
4
 74
0
 40
0
 40
0
 40
0
 40
0
 40
1
 40
1
 40
1
 40
1
 10
277.895850
 20
788.674977
 30
0.0
 10
279.649931
 20
787.662258
 30
0.0
 10
281.811049
 20
787.662258
 30
0.0
 10
283.565130
 20
788.674977
 30
0.0
  0
SPLINE
  5
1a4
100
AcDbEntity
  8
02___PRT_ALL_AXES
 62
4
100
AcDbSpline
 70
8
 71
3
 72
8
 73
4
 74
0
 40
0
 40
0
 40
0
 40
0
 40
1
 40
1
 40
1
 40
1
 10
283.565130
 20
788.674977
 30
0.0
 10
285.319211
 20
789.687697
 30
0.0
 10
286.399770
 20
791.559279
 30
0.0
 10
286.399770
 20
793.584718
 30
0.0
  0
LWPOLYLINE
  5
1a5
100
AcDbEntity
  8
02___PRT_ALL_AXES
 62
4
100
AcDbPolyline
 90
1
 70
1
 10
261.919770
 20
818.064718
 30
0.0
  0
SPLINE
  5
1a6
100
AcDbEntity
  8
02___PRT_ALL_AXES
 62
4
100
AcDbSpline
 70
8
 71
3
 72
8
 73
4
 74
0
 40
0
 40
0
 40
0
 40
0
 40
1
 40
1
 40
1
 40
1
 10
237.439770
 20
793.584718
 30
0.0
 10
237.439770
 20
795.610156
 30
0.0
 10
236.359211
 20
797.481739
 30
0.0
 10
234.605130
 20
798.494458
 30
0.0
  0
SPLINE
  5
1a7
100
AcDbEntity
  8
02___PRT_ALL_AXES
 62
4
100
AcDbSpline
 70
8
 71
3
 72
8
 73
4
 74
0
 40
0
 40
0
 40
0
 40
0
 40
1
 40
1
 40
1
 40
1
 10
234.605130
 20
798.494458
 30
0.0
 10
232.851049
 20
799.507178
 30
0.0
 10
230.689931
 20
799.507178
 30
0.0
 10
228.935850
 20
798.494458
 30
0.0
  0
SPLINE
  5
1a8
100
AcDbEntity
  8
02___PRT_ALL_AXES
 62
4
100
AcDbSpline
 70
8
 71
3
 72
8
 73
4
 74
0
 40
0
 40
0
 40
0
 40
0
 40
1
 40
1
 40
1
 40
1
 10
228.935850
 20
798.494458
 30
0.0
 10
227.181769
 20
797.481739
 30
0.0
 10
226.101210
 20
795.610156
 30
0.0
 10
226.101210
 20
793.584718
 30
0.0
  0
SPLINE
  5
1a9
100
AcDbEntity
  8
02___PRT_ALL_AXES
 62
4
100
AcDbSpline
 70
8
 71
3
 72
8
 73
4
 74
0
 40
0
 40
0
 40
0
 40
0
 40
1
 40
1
 40
1
 40
1
 10
226.101210
 20
793.584718
 30
0.0
 10
226.101210
 20
791.559279
 30
0.0
 10
227.181769
 20
789.687697
 30
0.0
 10
228.935850
 20
788.674977
 30
0.0
  0
SPLINE
  5
1aa
100
AcDbEntity
  8
02___PRT_ALL_AXES
 62
4
100
AcDbSpline
 70
8
 71
3
 72
8
 73
4
 74
0
 40
0
 40
0
 40
0
 40
0
 40
1
 40
1
 40
1
 40
1
 10
228.935850
 20
788.674977
 30
0.0
 10
230.689931
 20
787.662258
 30
0.0
 10
232.851049
 20
787.662258
 30
0.0
 10
234.605130
 20
788.674977
 30
0.0
  0
SPLINE
  5
1ab
100
AcDbEntity
  8
02___PRT_ALL_AXES
 62
4
100
AcDbSpline
 70
8
 71
3
 72
8
 73
4
 74
0
 40
0
 40
0
 40
0
 40
0
 40
1
 40
1
 40
1
 40
1
 10
234.605130
 20
788.674977
 30
0.0
 10
236.359211
 20
789.687697
 30
0.0
 10
237.439770
 20
791.559279
 30
0.0
 10
237.439770
 20
793.584718
 30
0.0
  0
LWPOLYLINE
  5
1ac
100
AcDbEntity
  8
02___PRT_ALL_AXES
 62
4
100
AcDbPolyline
 90
1
 70
1
 10
286.399770
 20
793.584718
 30
0.0
  0
SPLINE
  5
1ad
100
AcDbEntity
  8
02___PRT_ALL_AXES
 62
4
100
AcDbSpline
 70
8
 71
3
 72
8
 73
4
 74
0
 40
0
 40
0
 40
0
 40
0
 40
1
 40
1
 40
1
 40
1
 10
261.919770
 20
769.147108
 30
0.0
 10
261.919770
 20
771.172546
 30
0.0
 10
260.839211
 20
773.044129
 30
0.0
 10
259.085130
 20
774.056848
 30
0.0
  0
SPLINE
  5
1ae
100
AcDbEntity
  8
02___PRT_ALL_AXES
 62
4
100
AcDbSpline
 70
8
 71
3
 72
8
 73
4
 74
0
 40
0
 40
0
 40
0
 40
0
 40
1
 40
1
 40
1
 40
1
 10
259.085130
 20
774.056848
 30
0.0
 10
257.331049
 20
775.069568
 30
0.0
 10
255.169931
 20
775.069568
 30
0.0
 10
253.415850
 20
774.056848
 30
0.0
  0
SPLINE
  5
1af
100
AcDbEntity
  8
02___PRT_ALL_AXES
 62
4
100
AcDbSpline
 70
8
 71
3
 72
8
 73
4
 74
0
 40
0
 40
0
 40
0
 40
0
 40
1
 40
1
 40
1
 40
1
 10
253.415850
 20
774.056848
 30
0.0
 10
251.661769
 20
773.044129
 30
0.0
 10
250.581210
 20
771.172546
 30
0.0
 10
250.581210
 20
769.147108
 30
0.0
  0
SPLINE
  5
1b0
100
AcDbEntity
  8
02___PRT_ALL_AXES
 62
4
100
AcDbSpline
 70
8
 71
3
 72
8
 73
4
 74
0
 40
0
 40
0
 40
0
 40
0
 40
1
 40
1
 40
1
 40
1
 10
250.581210
 20
769.147108
 30
0.0
 10
250.581210
 20
767.121669
 30
0.0
 10
251.661769
 20
765.250087
 30
0.0
 10
253.415850
 20
764.237367
 30
0.0
  0
SPLINE
  5
1b1
100
AcDbEntity
  8
02___PRT_ALL_AXES
 62
4
100
AcDbSpline
 70
8
 71
3
 72
8
 73
4
 74
0
 40
0
 40
0
 40
0
 40
0
 40
1
 40
1
 40
1
 40
1
 10
253.415850
 20
764.237367
 30
0.0
 10
255.169931
 20
763.224648
 30
0.0
 10
257.331049
 20
763.224648
 30
0.0
 10
259.085130
 20
764.237367
 30
0.0
  0
SPLINE
  5
1b2
100
AcDbEntity
  8
02___PRT_ALL_AXES
 62
4
100
AcDbSpline
 70
8
 71
3
 72
8
 73
4
 74
0
 40
0
 40
0
 40
0
 40
0
 40
1
 40
1
 40
1
 40
1
 10
259.085130
 20
764.237367
 30
0.0
 10
260.839211
 20
765.250087
 30
0.0
 10
261.919770
 20
767.121669
 30
0.0
 10
261.919770
 20
769.147108
 30
0.0
  0
LWPOLYLINE
  5
1b3
100
AcDbEntity
  8
02___PRT_ALL_AXES
 62
4
100
AcDbPolyline
 90
1
 70
1
 10
237.439770
 20
793.584718
 30
0.0
  0
SPLINE
  5
1b4
100
AcDbEntity
  8
02___PRT_ALL_AXES
 62
4
100
AcDbSpline
 70
8
 71
3
 72
8
 73
4
 74
0
 40
0
 40
0
 40
0
 40
0
 40
1
 40
1
 40
1
 40
1
 10
574.181513
 20
611.916032
 30
0.0
 10
574.181513
 20
613.768097
 30
0.0
 10
573.193448
 20
615.479476
 30
0.0
 10
571.589513
 20
616.405508
 30
0.0
  0
SPLINE
  5
1b5
100
AcDbEntity
  8
02___PRT_ALL_AXES
 62
4
100
AcDbSpline
 70
8
 71
3
 72
8
 73
4
 74
0
 40
0
 40
0
 40
0
 40
0
 40
1
 40
1
 40
1
 40
1
 10
571.589513
 20
616.405508
 30
0.0
 10
569.985577
 20
617.331541
 30
0.0
 10
568.009448
 20
617.331541
 30
0.0
 10
566.405512
 20
616.405508
 30
0.0
  0
SPLINE
  5
1b6
100
AcDbEntity
  8
02___PRT_ALL_AXES
 62
4
100
AcDbSpline
 70
8
 71
3
 72
8
 73
4
 74
0
 40
0
 40
0
 40
0
 40
0
 40
1
 40
1
 40
1
 40
1
 10
566.405512
 20
616.405508
 30
0.0
 10
564.801577
 20
615.479476
 30
0.0
 10
563.813512
 20
613.768097
 30
0.0
 10
563.813513
 20
611.916032
 30
0.0
  0
SPLINE
  5
1b7
100
AcDbEntity
  8
02___PRT_ALL_AXES
 62
4
100
AcDbSpline
 70
8
 71
3
 72
8
 73
4
 74
0
 40
0
 40
0
 40
0
 40
0
 40
1
 40
1
 40
1
 40
1
 10
563.813513
 20
611.916032
 30
0.0
 10
563.813512
 20
610.063967
 30
0.0
 10
564.801577
 20
608.352589
 30
0.0
 10
566.405512
 20
607.426556
 30
0.0
  0
SPLINE
  5
1b8
100
AcDbEntity
  8
02___PRT_ALL_AXES
 62
4
100
AcDbSpline
 70
8
 71
3
 72
8
 73
4
 74
0
 40
0
 40
0
 40
0
 40
0
 40
1
 40
1
 40
1
 40
1
 10
566.405512
 20
607.426556
 30
0.0
 10
568.009448
 20
606.500523
 30
0.0
 10
569.985577
 20
606.500523
 30
0.0
 10
571.589513
 20
607.426556
 30
0.0
  0
SPLINE
  5
1b9
100
AcDbEntity
  8
02___PRT_ALL_AXES
 62
4
100
AcDbSpline
 70
8
 71
3
 72
8
 73
4
 74
0
 40
0
 40
0
 40
0
 40
0
 40
1
 40
1
 40
1
 40
1
 10
571.589513
 20
607.426556
 30
0.0
 10
573.193448
 20
608.352589
 30
0.0
 10
574.181513
 20
610.063967
 30
0.0
 10
574.181513
 20
611.916032
 30
0.0
  0
LWPOLYLINE
  5
1ba
100
AcDbEntity
  8
02___PRT_ALL_AXES
 62
4
100
AcDbPolyline
 90
1
 70
1
 10
261.919770
 20
769.147108
 30
0.0
  0
SPLINE
  5
1bb
100
AcDbEntity
  8
02___PRT_ALL_AXES
 62
4
100
AcDbSpline
 70
8
 71
3
 72
8
 73
4
 74
0
 40
0
 40
0
 40
0
 40
0
 40
1
 40
1
 40
1
 40
1
 10
574.181513
 20
525.459340
 30
0.0
 10
574.181513
 20
527.311405
 30
0.0
 10
573.193448
 20
529.022783
 30
0.0
 10
571.589513
 20
529.948816
 30
0.0
  0
SPLINE
  5
1bc
100
AcDbEntity
  8
02___PRT_ALL_AXES
 62
4
100
AcDbSpline
 70
8
 71
3
 72
8
 73
4
 74
0
 40
0
 40
0
 40
0
 40
0
 40
1
 40
1
 40
1
 40
1
 10
571.589513
 20
529.948816
 30
0.0
 10
569.985577
 20
530.874849
 30
0.0
 10
568.009448
 20
530.874849
 30
0.0
 10
566.405512
 20
529.948816
 30
0.0
  0
SPLINE
  5
1bd
100
AcDbEntity
  8
02___PRT_ALL_AXES
 62
4
100
AcDbSpline
 70
8
 71
3
 72
8
 73
4
 74
0
 40
0
 40
0
 40
0
 40
0
 40
1
 40
1
 40
1
 40
1
 10
566.405512
 20
529.948816
 30
0.0
 10
564.801577
 20
529.022783
 30
0.0
 10
563.813512
 20
527.311405
 30
0.0
 10
563.813513
 20
525.459340
 30
0.0
  0
SPLINE
  5
1be
100
AcDbEntity
  8
02___PRT_ALL_AXES
 62
4
100
AcDbSpline
 70
8
 71
3
 72
8
 73
4
 74
0
 40
0
 40
0
 40
0
 40
0
 40
1
 40
1
 40
1
 40
1
 10
563.813513
 20
525.459340
 30
0.0
 10
563.813512
 20
523.607275
 30
0.0
 10
564.801577
 20
521.895896
 30
0.0
 10
566.405512
 20
520.969864
 30
0.0
  0
SPLINE
  5
1bf
100
AcDbEntity
  8
02___PRT_ALL_AXES
 62
4
100
AcDbSpline
 70
8
 71
3
 72
8
 73
4
 74
0
 40
0
 40
0
 40
0
 40
0
 40
1
 40
1
 40
1
 40
1
 10
566.405512
 20
520.969864
 30
0.0
 10
568.009448
 20
520.043831
 30
0.0
 10
569.985577
 20
520.043831
 30
0.0
 10
571.589513
 20
520.969864
 30
0.0
  0
SPLINE
  5
1c0
100
AcDbEntity
  8
02___PRT_ALL_AXES
 62
4
100
AcDbSpline
 70
8
 71
3
 72
8
 73
4
 74
0
 40
0
 40
0
 40
0
 40
0
 40
1
 40
1
 40
1
 40
1
 10
571.589513
 20
520.969864
 30
0.0
 10
573.193448
 20
521.895896
 30
0.0
 10
574.181513
 20
523.607275
 30
0.0
 10
574.181513
 20
525.459340
 30
0.0
  0
LWPOLYLINE
  5
1c1
100
AcDbEntity
  8
02___PRT_ALL_AXES
 62
4
100
AcDbPolyline
 90
1
 70
1
 10
574.181513
 20
611.916032
 30
0.0
  0
SPLINE
  5
1c2
100
AcDbEntity
  8
02___PRT_ALL_AXES
 62
4
100
AcDbSpline
 70
8
 71
3
 72
8
 73
4
 74
0
 40
0
 40
0
 40
0
 40
0
 40
1
 40
1
 40
1
 40
1
 10
977.773875
 20
81.040165
 30
0.0
 10
977.773875
 20
84.255555
 30
0.0
 10
976.058485
 20
87.226698
 30
0.0
 10
973.273875
 20
88.834393
 30
0.0
  0
SPLINE
  5
1c3
100
AcDbEntity
  8
02___PRT_ALL_AXES
 62
4
100
AcDbSpline
 70
8
 71
3
 72
8
 73
4
 74
0
 40
0
 40
0
 40
0
 40
0
 40
1
 40
1
 40
1
 40
1
 10
973.273875
 20
88.834393
 30
0.0
 10
970.489265
 20
90.442089
 30
0.0
 10
967.058485
 20
90.442089
 30
0.0
 10
964.273875
 20
88.834393
 30
0.0
  0
SPLINE
  5
1c4
100
AcDbEntity
  8
02___PRT_ALL_AXES
 62
4
100
AcDbSpline
 70
8
 71
3
 72
8
 73
4
 74
0
 40
0
 40
0
 40
0
 40
0
 40
1
 40
1
 40
1
 40
1
 10
964.273875
 20
88.834393
 30
0.0
 10
961.489265
 20
87.226698
 30
0.0
 10
959.773875
 20
84.255555
 30
0.0
 10
959.773875
 20
81.040165
 30
0.0
  0
SPLINE
  5
1c5
100
AcDbEntity
  8
02___PRT_ALL_AXES
 62
4
100
AcDbSpline
 70
8
 71
3
 72
8
 73
4
 74
0
 40
0
 40
0
 40
0
 40
0
 40
1
 40
1
 40
1
 40
1
 10
959.773875
 20
81.040165
 30
0.0
 10
959.773875
 20
77.824774
 30
0.0
 10
961.489265
 20
74.853631
 30
0.0
 10
964.273875
 20
73.245936
 30
0.0
  0
SPLINE
  5
1c6
100
AcDbEntity
  8
02___PRT_ALL_AXES
 62
4
100
AcDbSpline
 70
8
 71
3
 72
8
 73
4
 74
0
 40
0
 40
0
 40
0
 40
0
 40
1
 40
1
 40
1
 40
1
 10
964.273875
 20
73.245936
 30
0.0
 10
967.058485
 20
71.638241
 30
0.0
 10
970.489265
 20
71.638241
 30
0.0
 10
973.273875
 20
73.245936
 30
0.0
  0
SPLINE
  5
1c7
100
AcDbEntity
  8
02___PRT_ALL_AXES
 62
4
100
AcDbSpline
 70
8
 71
3
 72
8
 73
4
 74
0
 40
0
 40
0
 40
0
 40
0
 40
1
 40
1
 40
1
 40
1
 10
973.273875
 20
73.245936
 30
0.0
 10
976.058485
 20
74.853631
 30
0.0
 10
977.773875
 20
77.824774
 30
0.0
 10
977.773875
 20
81.040165
 30
0.0
  0
LWPOLYLINE
  5
1c8
100
AcDbEntity
  8
02___PRT_ALL_AXES
 62
4
100
AcDbPolyline
 90
1
 70
1
 10
574.181513
 20
525.459340
 30
0.0
  0
SPLINE
  5
1c9
100
AcDbEntity
  8
02___PRT_ALL_AXES
 62
4
100
AcDbSpline
 70
8
 71
3
 72
8
 73
4
 74
0
 40
0
 40
0
 40
0
 40
0
 40
1
 40
1
 40
1
 40
1
 10
883.987050
 20
152.662300
 30
0.0
 10
883.987050
 20
155.234612
 30
0.0
 10
882.614738
 20
157.611527
 30
0.0
 10
880.387050
 20
158.897683
 30
0.0
  0
SPLINE
  5
1ca
100
AcDbEntity
  8
02___PRT_ALL_AXES
 62
4
100
AcDbSpline
 70
8
 71
3
 72
8
 73
4
 74
0
 40
0
 40
0
 40
0
 40
0
 40
1
 40
1
 40
1
 40
1
 10
880.387050
 20
158.897683
 30
0.0
 10
878.159362
 20
160.183839
 30
0.0
 10
875.414738
 20
160.183839
 30
0.0
 10
873.187050
 20
158.897683
 30
0.0
  0
SPLINE
  5
1cb
100
AcDbEntity
  8
02___PRT_ALL_AXES
 62
4
100
AcDbSpline
 70
8
 71
3
 72
8
 73
4
 74
0
 40
0
 40
0
 40
0
 40
0
 40
1
 40
1
 40
1
 40
1
 10
873.187050
 20
158.897683
 30
0.0
 10
870.959362
 20
157.611527
 30
0.0
 10
869.587050
 20
155.234612
 30
0.0
 10
869.587050
 20
152.662300
 30
0.0
  0
SPLINE
  5
1cc
100
AcDbEntity
  8
02___PRT_ALL_AXES
 62
4
100
AcDbSpline
 70
8
 71
3
 72
8
 73
4
 74
0
 40
0
 40
0
 40
0
 40
0
 40
1
 40
1
 40
1
 40
1
 10
869.587050
 20
152.662300
 30
0.0
 10
869.587050
 20
150.089988
 30
0.0
 10
870.959362
 20
147.713073
 30
0.0
 10
873.187050
 20
146.426917
 30
0.0
  0
SPLINE
  5
1cd
100
AcDbEntity
  8
02___PRT_ALL_AXES
 62
4
100
AcDbSpline
 70
8
 71
3
 72
8
 73
4
 74
0
 40
0
 40
0
 40
0
 40
0
 40
1
 40
1
 40
1
 40
1
 10
873.187050
 20
146.426917
 30
0.0
 10
875.414738
 20
145.140761
 30
0.0
 10
878.159362
 20
145.140761
 30
0.0
 10
880.387050
 20
146.426917
 30
0.0
  0
SPLINE
  5
1ce
100
AcDbEntity
  8
02___PRT_ALL_AXES
 62
4
100
AcDbSpline
 70
8
 71
3
 72
8
 73
4
 74
0
 40
0
 40
0
 40
0
 40
0
 40
1
 40
1
 40
1
 40
1
 10
880.387050
 20
146.426917
 30
0.0
 10
882.614738
 20
147.713073
 30
0.0
 10
883.987050
 20
150.089988
 30
0.0
 10
883.987050
 20
152.662300
 30
0.0
  0
LWPOLYLINE
  5
1cf
100
AcDbEntity
  8
02___PRT_ALL_AXES
 62
4
100
AcDbPolyline
 90
1
 70
1
 10
977.773875
 20
81.040165
 30
0.0
  0
SPLINE
  5
1d0
100
AcDbEntity
  8
02___PRT_ALL_AXES
 62
4
100
AcDbSpline
 70
8
 71
3
 72
8
 73
4
 74
0
 40
0
 40
0
 40
0
 40
0
 40
1
 40
1
 40
1
 40
1
 10
904.351725
 20
173.026982
 30
0.0
 10
904.351725
 20
175.599294
 30
0.0
 10
902.979413
 20
177.976209
 30
0.0
 10
900.751725
 20
179.262365
 30
0.0
  0
SPLINE
  5
1d1
100
AcDbEntity
  8
02___PRT_ALL_AXES
 62
4
100
AcDbSpline
 70
8
 71
3
 72
8
 73
4
 74
0
 40
0
 40
0
 40
0
 40
0
 40
1
 40
1
 40
1
 40
1
 10
900.751725
 20
179.262365
 30
0.0
 10
898.524037
 20
180.548521
 30
0.0
 10
895.779413
 20
180.548521
 30
0.0
 10
893.551725
 20
179.262365
 30
0.0
  0
SPLINE
  5
1d2
100
AcDbEntity
  8
02___PRT_ALL_AXES
 62
4
100
AcDbSpline
 70
8
 71
3
 72
8
 73
4
 74
0
 40
0
 40
0
 40
0
 40
0
 40
1
 40
1
 40
1
 40
1
 10
893.551725
 20
179.262365
 30
0.0
 10
891.324037
 20
177.976209
 30
0.0
 10
889.951725
 20
175.599294
 30
0.0
 10
889.951725
 20
173.026982
 30
0.0
  0
SPLINE
  5
1d3
100
AcDbEntity
  8
02___PRT_ALL_AXES
 62
4
100
AcDbSpline
 70
8
 71
3
 72
8
 73
4
 74
0
 40
0
 40
0
 40
0
 40
0
 40
1
 40
1
 40
1
 40
1
 10
889.951725
 20
173.026982
 30
0.0
 10
889.951725
 20
170.454670
 30
0.0
 10
891.324037
 20
168.077755
 30
0.0
 10
893.551725
 20
166.791599
 30
0.0
  0
SPLINE
  5
1d4
100
AcDbEntity
  8
02___PRT_ALL_AXES
 62
4
100
AcDbSpline
 70
8
 71
3
 72
8
 73
4
 74
0
 40
0
 40
0
 40
0
 40
0
 40
1
 40
1
 40
1
 40
1
 10
893.551725
 20
166.791599
 30
0.0
 10
895.779413
 20
165.505443
 30
0.0
 10
898.524037
 20
165.505443
 30
0.0
 10
900.751725
 20
166.791599
 30
0.0
  0
SPLINE
  5
1d5
100
AcDbEntity
  8
02___PRT_ALL_AXES
 62
4
100
AcDbSpline
 70
8
 71
3
 72
8
 73
4
 74
0
 40
0
 40
0
 40
0
 40
0
 40
1
 40
1
 40
1
 40
1
 10
900.751725
 20
166.791599
 30
0.0
 10
902.979413
 20
168.077755
 30
0.0
 10
904.351725
 20
170.454670
 30
0.0
 10
904.351725
 20
173.026982
 30
0.0
  0
LWPOLYLINE
  5
1d6
100
AcDbEntity
  8
02___PRT_ALL_AXES
 62
4
100
AcDbPolyline
 90
1
 70
1
 10
883.987050
 20
152.662300
 30
0.0
  0
SPLINE
  5
1d7
100
AcDbEntity
  8
02___PRT_ALL_AXES
 62
4
100
AcDbSpline
 70
8
 71
3
 72
8
 73
4
 74
0
 40
0
 40
0
 40
0
 40
0
 40
1
 40
1
 40
1
 40
1
 10
974.443125
 20
105.520195
 30
0.0
 10
974.443125
 20
107.545636
 30
0.0
 10
973.362565
 20
109.417222
 30
0.0
 10
971.608482
 20
110.429943
 30
0.0
  0
SPLINE
  5
1d8
100
AcDbEntity
  8
02___PRT_ALL_AXES
 62
4
100
AcDbSpline
 70
8
 71
3
 72
8
 73
4
 74
0
 40
0
 40
0
 40
0
 40
0
 40
1
 40
1
 40
1
 40
1
 10
971.608482
 20
110.429943
 30
0.0
 10
969.854398
 20
111.442663
 30
0.0
 10
967.693277
 20
111.442663
 30
0.0
 10
965.939193
 20
110.429943
 30
0.0
  0
SPLINE
  5
1d9
100
AcDbEntity
  8
02___PRT_ALL_AXES
 62
4
100
AcDbSpline
 70
8
 71
3
 72
8
 73
4
 74
0
 40
0
 40
0
 40
0
 40
0
 40
1
 40
1
 40
1
 40
1
 10
965.939193
 20
110.429943
 30
0.0
 10
964.185110
 20
109.417222
 30
0.0
 10
963.104550
 20
107.545636
 30
0.0
 10
963.104550
 20
105.520195
 30
0.0
  0
SPLINE
  5
1da
100
AcDbEntity
  8
02___PRT_ALL_AXES
 62
4
100
AcDbSpline
 70
8
 71
3
 72
8
 73
4
 74
0
 40
0
 40
0
 40
0
 40
0
 40
1
 40
1
 40
1
 40
1
 10
963.104550
 20
105.520195
 30
0.0
 10
963.104550
 20
103.494753
 30
0.0
 10
964.185110
 20
101.623168
 30
0.0
 10
965.939194
 20
100.610448
 30
0.0
  0
SPLINE
  5
1db
100
AcDbEntity
  8
02___PRT_ALL_AXES
 62
4
100
AcDbSpline
 70
8
 71
3
 72
8
 73
4
 74
0
 40
0
 40
0
 40
0
 40
0
 40
1
 40
1
 40
1
 40
1
 10
965.939194
 20
100.610448
 30
0.0
 10
967.693277
 20
99.597727
 30
0.0
 10
969.854398
 20
99.597727
 30
0.0
 10
971.608481
 20
100.610448
 30
0.0
  0
SPLINE
  5
1dc
100
AcDbEntity
  8
02___PRT_ALL_AXES
 62
4
100
AcDbSpline
 70
8
 71
3
 72
8
 73
4
 74
0
 40
0
 40
0
 40
0
 40
0
 40
1
 40
1
 40
1
 40
1
 10
971.608481
 20
100.610448
 30
0.0
 10
973.362565
 20
101.623168
 30
0.0
 10
974.443125
 20
103.494753
 30
0.0
 10
974.443125
 20
105.520195
 30
0.0
  0
LWPOLYLINE
  5
1dd
100
AcDbEntity
  8
02___PRT_ALL_AXES
 62
4
100
AcDbPolyline
 90
1
 70
1
 10
904.351725
 20
173.026982
 30
0.0
  0
SPLINE
  5
1de
100
AcDbEntity
  8
02___PRT_ALL_AXES
 62
4
100
AcDbSpline
 70
8
 71
3
 72
8
 73
4
 74
0
 40
0
 40
0
 40
0
 40
0
 40
1
 40
1
 40
1
 40
1
 10
998.923125
 20
81.040165
 30
0.0
 10
998.923125
 20
83.065606
 30
0.0
 10
997.842565
 20
84.937191
 30
0.0
 10
996.088481
 20
85.949912
 30
0.0
  0
SPLINE
  5
1df
100
AcDbEntity
  8
02___PRT_ALL_AXES
 62
4
100
AcDbSpline
 70
8
 71
3
 72
8
 73
4
 74
0
 40
0
 40
0
 40
0
 40
0
 40
1
 40
1
 40
1
 40
1
 10
996.088481
 20
85.949912
 30
0.0
 10
994.334398
 20
86.962632
 30
0.0
 10
992.173277
 20
86.962632
 30
0.0
 10
990.419194
 20
85.949912
 30
0.0
  0
SPLINE
  5
1e0
100
AcDbEntity
  8
02___PRT_ALL_AXES
 62
4
100
AcDbSpline
 70
8
 71
3
 72
8
 73
4
 74
0
 40
0
 40
0
 40
0
 40
0
 40
1
 40
1
 40
1
 40
1
 10
990.419194
 20
85.949912
 30
0.0
 10
988.665110
 20
84.937191
 30
0.0
 10
987.584550
 20
83.065606
 30
0.0
 10
987.584550
 20
81.040165
 30
0.0
  0
SPLINE
  5
1e1
100
AcDbEntity
  8
02___PRT_ALL_AXES
 62
4
100
AcDbSpline
 70
8
 71
3
 72
8
 73
4
 74
0
 40
0
 40
0
 40
0
 40
0
 40
1
 40
1
 40
1
 40
1
 10
987.584550
 20
81.040165
 30
0.0
 10
987.584550
 20
79.014723
 30
0.0
 10
988.665110
 20
77.143138
 30
0.0
 10
990.419194
 20
76.130418
 30
0.0
  0
SPLINE
  5
1e2
100
AcDbEntity
  8
02___PRT_ALL_AXES
 62
4
100
AcDbSpline
 70
8
 71
3
 72
8
 73
4
 74
0
 40
0
 40
0
 40
0
 40
0
 40
1
 40
1
 40
1
 40
1
 10
990.419194
 20
76.130418
 30
0.0
 10
992.173277
 20
75.117697
 30
0.0
 10
994.334398
 20
75.117697
 30
0.0
 10
996.088481
 20
76.130418
 30
0.0
  0
SPLINE
  5
1e3
100
AcDbEntity
  8
02___PRT_ALL_AXES
 62
4
100
AcDbSpline
 70
8
 71
3
 72
8
 73
4
 74
0
 40
0
 40
0
 40
0
 40
0
 40
1
 40
1
 40
1
 40
1
 10
996.088481
 20
76.130418
 30
0.0
 10
997.842565
 20
77.143138
 30
0.0
 10
998.923125
 20
79.014723
 30
0.0
 10
998.923125
 20
81.040165
 30
0.0
  0
LWPOLYLINE
  5
1e4
100
AcDbEntity
  8
02___PRT_ALL_AXES
 62
4
100
AcDbPolyline
 90
1
 70
1
 10
974.443125
 20
105.520195
 30
0.0
  0
SPLINE
  5
1e5
100
AcDbEntity
  8
02___PRT_ALL_AXES
 62
4
100
AcDbSpline
 70
8
 71
3
 72
8
 73
4
 74
0
 40
0
 40
0
 40
0
 40
0
 40
1
 40
1
 40
1
 40
1
 10
974.443125
 20
56.560165
 30
0.0
 10
974.443125
 20
58.585606
 30
0.0
 10
973.362565
 20
60.457192
 30
0.0
 10
971.608482
 20
61.469913
 30
0.0
  0
SPLINE
  5
1e6
100
AcDbEntity
  8
02___PRT_ALL_AXES
 62
4
100
AcDbSpline
 70
8
 71
3
 72
8
 73
4
 74
0
 40
0
 40
0
 40
0
 40
0
 40
1
 40
1
 40
1
 40
1
 10
971.608482
 20
61.469913
 30
0.0
 10
969.854398
 20
62.482633
 30
0.0
 10
967.693277
 20
62.482633
 30
0.0
 10
965.939193
 20
61.469913
 30
0.0
  0
SPLINE
  5
1e7
100
AcDbEntity
  8
02___PRT_ALL_AXES
 62
4
100
AcDbSpline
 70
8
 71
3
 72
8
 73
4
 74
0
 40
0
 40
0
 40
0
 40
0
 40
1
 40
1
 40
1
 40
1
 10
965.939193
 20
61.469913
 30
0.0
 10
964.185110
 20
60.457192
 30
0.0
 10
963.104550
 20
58.585606
 30
0.0
 10
963.104550
 20
56.560165
 30
0.0
  0
SPLINE
  5
1e8
100
AcDbEntity
  8
02___PRT_ALL_AXES
 62
4
100
AcDbSpline
 70
8
 71
3
 72
8
 73
4
 74
0
 40
0
 40
0
 40
0
 40
0
 40
1
 40
1
 40
1
 40
1
 10
963.104550
 20
56.560165
 30
0.0
 10
963.104550
 20
54.534723
 30
0.0
 10
964.185110
 20
52.663138
 30
0.0
 10
965.939194
 20
51.650418
 30
0.0
  0
SPLINE
  5
1e9
100
AcDbEntity
  8
02___PRT_ALL_AXES
 62
4
100
AcDbSpline
 70
8
 71
3
 72
8
 73
4
 74
0
 40
0
 40
0
 40
0
 40
0
 40
1
 40
1
 40
1
 40
1
 10
965.939194
 20
51.650418
 30
0.0
 10
967.693277
 20
50.637697
 30
0.0
 10
969.854398
 20
50.637697
 30
0.0
 10
971.608481
 20
51.650418
 30
0.0
  0
SPLINE
  5
1ea
100
AcDbEntity
  8
02___PRT_ALL_AXES
 62
4
100
AcDbSpline
 70
8
 71
3
 72
8
 73
4
 74
0
 40
0
 40
0
 40
0
 40
0
 40
1
 40
1
 40
1
 40
1
 10
971.608481
 20
51.650418
 30
0.0
 10
973.362565
 20
52.663138
 30
0.0
 10
974.443125
 20
54.534723
 30
0.0
 10
974.443125
 20
56.560165
 30
0.0
  0
LWPOLYLINE
  5
1eb
100
AcDbEntity
  8
02___PRT_ALL_AXES
 62
4
100
AcDbPolyline
 90
1
 70
1
 10
998.923125
 20
81.040165
 30
0.0
  0
SPLINE
  5
1ec
100
AcDbEntity
  8
02___PRT_ALL_AXES
 62
4
100
AcDbSpline
 70
8
 71
3
 72
8
 73
4
 74
0
 40
0
 40
0
 40
0
 40
0
 40
1
 40
1
 40
1
 40
1
 10
949.963125
 20
81.040165
 30
0.0
 10
949.963125
 20
83.065606
 30
0.0
 10
948.882565
 20
84.937191
 30
0.0
 10
947.128481
 20
85.949912
 30
0.0
  0
SPLINE
  5
1ed
100
AcDbEntity
  8
02___PRT_ALL_AXES
 62
4
100
AcDbSpline
 70
8
 71
3
 72
8
 73
4
 74
0
 40
0
 40
0
 40
0
 40
0
 40
1
 40
1
 40
1
 40
1
 10
947.128481
 20
85.949912
 30
0.0
 10
945.374398
 20
86.962632
 30
0.0
 10
943.213277
 20
86.962632
 30
0.0
 10
941.459194
 20
85.949912
 30
0.0
  0
SPLINE
  5
1ee
100
AcDbEntity
  8
02___PRT_ALL_AXES
 62
4
100
AcDbSpline
 70
8
 71
3
 72
8
 73
4
 74
0
 40
0
 40
0
 40
0
 40
0
 40
1
 40
1
 40
1
 40
1
 10
941.459194
 20
85.949912
 30
0.0
 10
939.705110
 20
84.937191
 30
0.0
 10
938.624550
 20
83.065606
 30
0.0
 10
938.624550
 20
81.040165
 30
0.0
  0
SPLINE
  5
1ef
100
AcDbEntity
  8
02___PRT_ALL_AXES
 62
4
100
AcDbSpline
 70
8
 71
3
 72
8
 73
4
 74
0
 40
0
 40
0
 40
0
 40
0
 40
1
 40
1
 40
1
 40
1
 10
938.624550
 20
81.040165
 30
0.0
 10
938.624550
 20
79.014723
 30
0.0
 10
939.705110
 20
77.143138
 30
0.0
 10
941.459194
 20
76.130418
 30
0.0
  0
SPLINE
  5
1f0
100
AcDbEntity
  8
02___PRT_ALL_AXES
 62
4
100
AcDbSpline
 70
8
 71
3
 72
8
 73
4
 74
0
 40
0
 40
0
 40
0
 40
0
 40
1
 40
1
 40
1
 40
1
 10
941.459194
 20
76.130418
 30
0.0
 10
943.213277
 20
75.117697
 30
0.0
 10
945.374398
 20
75.117697
 30
0.0
 10
947.128481
 20
76.130418
 30
0.0
  0
SPLINE
  5
1f1
100
AcDbEntity
  8
02___PRT_ALL_AXES
 62
4
100
AcDbSpline
 70
8
 71
3
 72
8
 73
4
 74
0
 40
0
 40
0
 40
0
 40
0
 40
1
 40
1
 40
1
 40
1
 10
947.128481
 20
76.130418
 30
0.0
 10
948.882565
 20
77.143138
 30
0.0
 10
949.963125
 20
79.014723
 30
0.0
 10
949.963125
 20
81.040165
 30
0.0
  0
LWPOLYLINE
  5
1f2
100
AcDbEntity
  8
02___PRT_ALL_AXES
 62
4
100
AcDbPolyline
 90
1
 70
1
 10
974.443125
 20
56.560165
 30
0.0
  0
SPLINE
  5
1f3
100
AcDbEntity
  8
02___PRT_ALL_AXES
 62
4
100
AcDbSpline
 70
8
 71
3
 72
8
 73
4
 74
0
 40
0
 40
0
 40
0
 40
0
 40
1
 40
1
 40
1
 40
1
 10
660.638227
 20
611.916032
 30
0.0
 10
660.638227
 20
613.768097
 30
0.0
 10
659.650163
 20
615.479476
 30
0.0
 10
658.046227
 20
616.405508
 30
0.0
  0
SPLINE
  5
1f4
100
AcDbEntity
  8
02___PRT_ALL_AXES
 62
4
100
AcDbSpline
 70
8
 71
3
 72
8
 73
4
 74
0
 40
0
 40
0
 40
0
 40
0
 40
1
 40
1
 40
1
 40
1
 10
658.046227
 20
616.405508
 30
0.0
 10
656.442292
 20
617.331540
 30
0.0
 10
654.466163
 20
617.331540
 30
0.0
 10
652.862228
 20
616.405508
 30
0.0
  0
SPLINE
  5
1f5
100
AcDbEntity
  8
02___PRT_ALL_AXES
 62
4
100
AcDbSpline
 70
8
 71
3
 72
8
 73
4
 74
0
 40
0
 40
0
 40
0
 40
0
 40
1
 40
1
 40
1
 40
1
 10
652.862228
 20
616.405508
 30
0.0
 10
651.258292
 20
615.479476
 30
0.0
 10
650.270228
 20
613.768097
 30
0.0
 10
650.270228
 20
611.916032
 30
0.0
  0
SPLINE
  5
1f6
100
AcDbEntity
  8
02___PRT_ALL_AXES
 62
4
100
AcDbSpline
 70
8
 71
3
 72
8
 73
4
 74
0
 40
0
 40
0
 40
0
 40
0
 40
1
 40
1
 40
1
 40
1
 10
650.270228
 20
611.916032
 30
0.0
 10
650.270228
 20
610.063967
 30
0.0
 10
651.258292
 20
608.352589
 30
0.0
 10
652.862228
 20
607.426557
 30
0.0
  0
SPLINE
  5
1f7
100
AcDbEntity
  8
02___PRT_ALL_AXES
 62
4
100
AcDbSpline
 70
8
 71
3
 72
8
 73
4
 74
0
 40
0
 40
0
 40
0
 40
0
 40
1
 40
1
 40
1
 40
1
 10
652.862228
 20
607.426557
 30
0.0
 10
654.466163
 20
606.500524
 30
0.0
 10
656.442292
 20
606.500524
 30
0.0
 10
658.046227
 20
607.426557
 30
0.0
  0
SPLINE
  5
1f8
100
AcDbEntity
  8
02___PRT_ALL_AXES
 62
4
100
AcDbSpline
 70
8
 71
3
 72
8
 73
4
 74
0
 40
0
 40
0
 40
0
 40
0
 40
1
 40
1
 40
1
 40
1
 10
658.046227
 20
607.426557
 30
0.0
 10
659.650163
 20
608.352589
 30
0.0
 10
660.638227
 20
610.063967
 30
0.0
 10
660.638227
 20
611.916032
 30
0.0
  0
LWPOLYLINE
  5
1f9
100
AcDbEntity
  8
02___PRT_ALL_AXES
 62
4
100
AcDbPolyline
 90
1
 70
1
 10
949.963125
 20
81.040165
 30
0.0
  0
SPLINE
  5
1fa
100
AcDbEntity
  8
02___PRT_ALL_AXES
 62
4
100
AcDbSpline
 70
8
 71
3
 72
8
 73
4
 74
0
 40
0
 40
0
 40
0
 40
0
 40
1
 40
1
 40
1
 40
1
 10
660.638227
 20
525.459340
 30
0.0
 10
660.638227
 20
527.311405
 30
0.0
 10
659.650163
 20
529.022783
 30
0.0
 10
658.046227
 20
529.948815
 30
0.0
  0
SPLINE
  5
1fb
100
AcDbEntity
  8
02___PRT_ALL_AXES
 62
4
100
AcDbSpline
 70
8
 71
3
 72
8
 73
4
 74
0
 40
0
 40
0
 40
0
 40
0
 40
1
 40
1
 40
1
 40
1
 10
658.046227
 20
529.948815
 30
0.0
 10
656.442292
 20
530.874848
 30
0.0
 10
654.466163
 20
530.874848
 30
0.0
 10
652.862228
 20
529.948815
 30
0.0
  0
SPLINE
  5
1fc
100
AcDbEntity
  8
02___PRT_ALL_AXES
 62
4
100
AcDbSpline
 70
8
 71
3
 72
8
 73
4
 74
0
 40
0
 40
0
 40
0
 40
0
 40
1
 40
1
 40
1
 40
1
 10
652.862228
 20
529.948815
 30
0.0
 10
651.258292
 20
529.022783
 30
0.0
 10
650.270228
 20
527.311405
 30
0.0
 10
650.270228
 20
525.459340
 30
0.0
  0
SPLINE
  5
1fd
100
AcDbEntity
  8
02___PRT_ALL_AXES
 62
4
100
AcDbSpline
 70
8
 71
3
 72
8
 73
4
 74
0
 40
0
 40
0
 40
0
 40
0
 40
1
 40
1
 40
1
 40
1
 10
650.270228
 20
525.459340
 30
0.0
 10
650.270228
 20
523.607275
 30
0.0
 10
651.258292
 20
521.895896
 30
0.0
 10
652.862228
 20
520.969864
 30
0.0
  0
SPLINE
  5
1fe
100
AcDbEntity
  8
02___PRT_ALL_AXES
 62
4
100
AcDbSpline
 70
8
 71
3
 72
8
 73
4
 74
0
 40
0
 40
0
 40
0
 40
0
 40
1
 40
1
 40
1
 40
1
 10
652.862228
 20
520.969864
 30
0.0
 10
654.466163
 20
520.043832
 30
0.0
 10
656.442292
 20
520.043832
 30
0.0
 10
658.046227
 20
520.969864
 30
0.0
  0
SPLINE
  5
1ff
100
AcDbEntity
  8
02___PRT_ALL_AXES
 62
4
100
AcDbSpline
 70
8
 71
3
 72
8
 73
4
 74
0
 40
0
 40
0
 40
0
 40
0
 40
1
 40
1
 40
1
 40
1
 10
658.046227
 20
520.969864
 30
0.0
 10
659.650163
 20
521.895896
 30
0.0
 10
660.638227
 20
523.607275
 30
0.0
 10
660.638227
 20
525.459340
 30
0.0
  0
LWPOLYLINE
  5
200
100
AcDbEntity
  8
02___PRT_ALL_AXES
 62
4
100
AcDbPolyline
 90
1
 70
1
 10
660.638227
 20
611.916032
 30
0.0
  0
SPLINE
  5
201
100
AcDbEntity
  8
02___PRT_ALL_AXES
 62
4
100
AcDbSpline
 70
8
 71
3
 72
8
 73
4
 74
0
 40
0
 40
0
 40
0
 40
0
 40
1
 40
1
 40
1
 40
1
 10
977.773875
 20
793.563523
 30
0.0
 10
977.773875
 20
796.778913
 30
0.0
 10
976.058485
 20
799.750056
 30
0.0
 10
973.273875
 20
801.357751
 30
0.0
  0
SPLINE
  5
202
100
AcDbEntity
  8
02___PRT_ALL_AXES
 62
4
100
AcDbSpline
 70
8
 71
3
 72
8
 73
4
 74
0
 40
0
 40
0
 40
0
 40
0
 40
1
 40
1
 40
1
 40
1
 10
973.273875
 20
801.357751
 30
0.0
 10
970.489265
 20
802.965447
 30
0.0
 10
967.058485
 20
802.965447
 30
0.0
 10
964.273875
 20
801.357751
 30
0.0
  0
SPLINE
  5
203
100
AcDbEntity
  8
02___PRT_ALL_AXES
 62
4
100
AcDbSpline
 70
8
 71
3
 72
8
 73
4
 74
0
 40
0
 40
0
 40
0
 40
0
 40
1
 40
1
 40
1
 40
1
 10
964.273875
 20
801.357751
 30
0.0
 10
961.489265
 20
799.750056
 30
0.0
 10
959.773875
 20
796.778913
 30
0.0
 10
959.773875
 20
793.563523
 30
0.0
  0
SPLINE
  5
204
100
AcDbEntity
  8
02___PRT_ALL_AXES
 62
4
100
AcDbSpline
 70
8
 71
3
 72
8
 73
4
 74
0
 40
0
 40
0
 40
0
 40
0
 40
1
 40
1
 40
1
 40
1
 10
959.773875
 20
793.563523
 30
0.0
 10
959.773875
 20
790.348132
 30
0.0
 10
961.489265
 20
787.376989
 30
0.0
 10
964.273875
 20
785.769294
 30
0.0
  0
SPLINE
  5
205
100
AcDbEntity
  8
02___PRT_ALL_AXES
 62
4
100
AcDbSpline
 70
8
 71
3
 72
8
 73
4
 74
0
 40
0
 40
0
 40
0
 40
0
 40
1
 40
1
 40
1
 40
1
 10
964.273875
 20
785.769294
 30
0.0
 10
967.058485
 20
784.161599
 30
0.0
 10
970.489265
 20
784.161599
 30
0.0
 10
973.273875
 20
785.769294
 30
0.0
  0
SPLINE
  5
206
100
AcDbEntity
  8
02___PRT_ALL_AXES
 62
4
100
AcDbSpline
 70
8
 71
3
 72
8
 73
4
 74
0
 40
0
 40
0
 40
0
 40
0
 40
1
 40
1
 40
1
 40
1
 10
973.273875
 20
785.769294
 30
0.0
 10
976.058485
 20
787.376989
 30
0.0
 10
977.773875
 20
790.348132
 30
0.0
 10
977.773875
 20
793.563523
 30
0.0
  0
LWPOLYLINE
  5
207
100
AcDbEntity
  8
02___PRT_ALL_AXES
 62
4
100
AcDbPolyline
 90
1
 70
1
 10
660.638227
 20
525.459340
 30
0.0
  0
SPLINE
  5
208
100
AcDbEntity
  8
02___PRT_ALL_AXES
 62
4
100
AcDbSpline
 70
8
 71
3
 72
8
 73
4
 74
0
 40
0
 40
0
 40
0
 40
0
 40
1
 40
1
 40
1
 40
1
 10
904.351725
 20
701.576740
 30
0.0
 10
904.351725
 20
704.149052
 30
0.0
 10
902.979413
 20
706.525967
 30
0.0
 10
900.751725
 20
707.812123
 30
0.0
  0
SPLINE
  5
209
100
AcDbEntity
  8
02___PRT_ALL_AXES
 62
4
100
AcDbSpline
 70
8
 71
3
 72
8
 73
4
 74
0
 40
0
 40
0
 40
0
 40
0
 40
1
 40
1
 40
1
 40
1
 10
900.751725
 20
707.812123
 30
0.0
 10
898.524037
 20
709.098279
 30
0.0
 10
895.779413
 20
709.098279
 30
0.0
 10
893.551725
 20
707.812123
 30
0.0
  0
SPLINE
  5
20a
100
AcDbEntity
  8
02___PRT_ALL_AXES
 62
4
100
AcDbSpline
 70
8
 71
3
 72
8
 73
4
 74
0
 40
0
 40
0
 40
0
 40
0
 40
1
 40
1
 40
1
 40
1
 10
893.551725
 20
707.812123
 30
0.0
 10
891.324037
 20
706.525967
 30
0.0
 10
889.951725
 20
704.149052
 30
0.0
 10
889.951725
 20
701.576740
 30
0.0
  0
SPLINE
  5
20b
100
AcDbEntity
  8
02___PRT_ALL_AXES
 62
4
100
AcDbSpline
 70
8
 71
3
 72
8
 73
4
 74
0
 40
0
 40
0
 40
0
 40
0
 40
1
 40
1
 40
1
 40
1
 10
889.951725
 20
701.576740
 30
0.0
 10
889.951725
 20
699.004428
 30
0.0
 10
891.324037
 20
696.627513
 30
0.0
 10
893.551725
 20
695.341357
 30
0.0
  0
SPLINE
  5
20c
100
AcDbEntity
  8
02___PRT_ALL_AXES
 62
4
100
AcDbSpline
 70
8
 71
3
 72
8
 73
4
 74
0
 40
0
 40
0
 40
0
 40
0
 40
1
 40
1
 40
1
 40
1
 10
893.551725
 20
695.341357
 30
0.0
 10
895.779413
 20
694.055201
 30
0.0
 10
898.524037
 20
694.055201
 30
0.0
 10
900.751725
 20
695.341357
 30
0.0
  0
SPLINE
  5
20d
100
AcDbEntity
  8
02___PRT_ALL_AXES
 62
4
100
AcDbSpline
 70
8
 71
3
 72
8
 73
4
 74
0
 40
0
 40
0
 40
0
 40
0
 40
1
 40
1
 40
1
 40
1
 10
900.751725
 20
695.341357
 30
0.0
 10
902.979413
 20
696.627513
 30
0.0
 10
904.351725
 20
699.004428
 30
0.0
 10
904.351725
 20
701.576740
 30
0.0
  0
LWPOLYLINE
  5
20e
100
AcDbEntity
  8
02___PRT_ALL_AXES
 62
4
100
AcDbPolyline
 90
1
 70
1
 10
977.773875
 20
793.563523
 30
0.0
  0
SPLINE
  5
20f
100
AcDbEntity
  8
02___PRT_ALL_AXES
 62
4
100
AcDbSpline
 70
8
 71
3
 72
8
 73
4
 74
0
 40
0
 40
0
 40
0
 40
0
 40
1
 40
1
 40
1
 40
1
 10
883.987050
 20
721.941415
 30
0.0
 10
883.987050
 20
724.513727
 30
0.0
 10
882.614738
 20
726.890642
 30
0.0
 10
880.387050
 20
728.176798
 30
0.0
  0
SPLINE
  5
210
100
AcDbEntity
  8
02___PRT_ALL_AXES
 62
4
100
AcDbSpline
 70
8
 71
3
 72
8
 73
4
 74
0
 40
0
 40
0
 40
0
 40
0
 40
1
 40
1
 40
1
 40
1
 10
880.387050
 20
728.176798
 30
0.0
 10
878.159362
 20
729.462954
 30
0.0
 10
875.414738
 20
729.462954
 30
0.0
 10
873.187050
 20
728.176798
 30
0.0
  0
SPLINE
  5
211
100
AcDbEntity
  8
02___PRT_ALL_AXES
 62
4
100
AcDbSpline
 70
8
 71
3
 72
8
 73
4
 74
0
 40
0
 40
0
 40
0
 40
0
 40
1
 40
1
 40
1
 40
1
 10
873.187050
 20
728.176798
 30
0.0
 10
870.959362
 20
726.890642
 30
0.0
 10
869.587050
 20
724.513727
 30
0.0
 10
869.587050
 20
721.941415
 30
0.0
  0
SPLINE
  5
212
100
AcDbEntity
  8
02___PRT_ALL_AXES
 62
4
100
AcDbSpline
 70
8
 71
3
 72
8
 73
4
 74
0
 40
0
 40
0
 40
0
 40
0
 40
1
 40
1
 40
1
 40
1
 10
869.587050
 20
721.941415
 30
0.0
 10
869.587050
 20
719.369103
 30
0.0
 10
870.959362
 20
716.992188
 30
0.0
 10
873.187050
 20
715.706032
 30
0.0
  0
SPLINE
  5
213
100
AcDbEntity
  8
02___PRT_ALL_AXES
 62
4
100
AcDbSpline
 70
8
 71
3
 72
8
 73
4
 74
0
 40
0
 40
0
 40
0
 40
0
 40
1
 40
1
 40
1
 40
1
 10
873.187050
 20
715.706032
 30
0.0
 10
875.414738
 20
714.419876
 30
0.0
 10
878.159362
 20
714.419876
 30
0.0
 10
880.387050
 20
715.706032
 30
0.0
  0
SPLINE
  5
214
100
AcDbEntity
  8
02___PRT_ALL_AXES
 62
4
100
AcDbSpline
 70
8
 71
3
 72
8
 73
4
 74
0
 40
0
 40
0
 40
0
 40
0
 40
1
 40
1
 40
1
 40
1
 10
880.387050
 20
715.706032
 30
0.0
 10
882.614738
 20
716.992188
 30
0.0
 10
883.987050
 20
719.369103
 30
0.0
 10
883.987050
 20
721.941415
 30
0.0
  0
LWPOLYLINE
  5
215
100
AcDbEntity
  8
02___PRT_ALL_AXES
 62
4
100
AcDbPolyline
 90
1
 70
1
 10
904.351725
 20
701.576740
 30
0.0
  0
SPLINE
  5
216
100
AcDbEntity
  8
02___PRT_ALL_AXES
 62
4
100
AcDbSpline
 70
8
 71
3
 72
8
 73
4
 74
0
 40
0
 40
0
 40
0
 40
0
 40
1
 40
1
 40
1
 40
1
 10
974.443125
 20
818.043523
 30
0.0
 10
974.443125
 20
820.068964
 30
0.0
 10
973.362565
 20
821.940550
 30
0.0
 10
971.608482
 20
822.953271
 30
0.0
  0
SPLINE
  5
217
100
AcDbEntity
  8
02___PRT_ALL_AXES
 62
4
100
AcDbSpline
 70
8
 71
3
 72
8
 73
4
 74
0
 40
0
 40
0
 40
0
 40
0
 40
1
 40
1
 40
1
 40
1
 10
971.608482
 20
822.953271
 30
0.0
 10
969.854398
 20
823.965991
 30
0.0
 10
967.693277
 20
823.965991
 30
0.0
 10
965.939193
 20
822.953271
 30
0.0
  0
SPLINE
  5
218
100
AcDbEntity
  8
02___PRT_ALL_AXES
 62
4
100
AcDbSpline
 70
8
 71
3
 72
8
 73
4
 74
0
 40
0
 40
0
 40
0
 40
0
 40
1
 40
1
 40
1
 40
1
 10
965.939193
 20
822.953271
 30
0.0
 10
964.185110
 20
821.940550
 30
0.0
 10
963.104550
 20
820.068964
 30
0.0
 10
963.104550
 20
818.043523
 30
0.0
  0
SPLINE
  5
219
100
AcDbEntity
  8
02___PRT_ALL_AXES
 62
4
100
AcDbSpline
 70
8
 71
3
 72
8
 73
4
 74
0
 40
0
 40
0
 40
0
 40
0
 40
1
 40
1
 40
1
 40
1
 10
963.104550
 20
818.043523
 30
0.0
 10
963.104550
 20
816.018081
 30
0.0
 10
964.185110
 20
814.146496
 30
0.0
 10
965.939194
 20
813.133776
 30
0.0
  0
SPLINE
  5
21a
100
AcDbEntity
  8
02___PRT_ALL_AXES
 62
4
100
AcDbSpline
 70
8
 71
3
 72
8
 73
4
 74
0
 40
0
 40
0
 40
0
 40
0
 40
1
 40
1
 40
1
 40
1
 10
965.939194
 20
813.133776
 30
0.0
 10
967.693277
 20
812.121055
 30
0.0
 10
969.854398
 20
812.121055
 30
0.0
 10
971.608481
 20
813.133776
 30
0.0
  0
SPLINE
  5
21b
100
AcDbEntity
  8
02___PRT_ALL_AXES
 62
4
100
AcDbSpline
 70
8
 71
3
 72
8
 73
4
 74
0
 40
0
 40
0
 40
0
 40
0
 40
1
 40
1
 40
1
 40
1
 10
971.608481
 20
813.133776
 30
0.0
 10
973.362565
 20
814.146496
 30
0.0
 10
974.443125
 20
816.018081
 30
0.0
 10
974.443125
 20
818.043523
 30
0.0
  0
LWPOLYLINE
  5
21c
100
AcDbEntity
  8
02___PRT_ALL_AXES
 62
4
100
AcDbPolyline
 90
1
 70
1
 10
883.987050
 20
721.941415
 30
0.0
  0
SPLINE
  5
21d
100
AcDbEntity
  8
02___PRT_ALL_AXES
 62
4
100
AcDbSpline
 70
8
 71
3
 72
8
 73
4
 74
0
 40
0
 40
0
 40
0
 40
0
 40
1
 40
1
 40
1
 40
1
 10
998.923125
 20
793.563523
 30
0.0
 10
998.923125
 20
795.588964
 30
0.0
 10
997.842565
 20
797.460549
 30
0.0
 10
996.088481
 20
798.473270
 30
0.0
  0
SPLINE
  5
21e
100
AcDbEntity
  8
02___PRT_ALL_AXES
 62
4
100
AcDbSpline
 70
8
 71
3
 72
8
 73
4
 74
0
 40
0
 40
0
 40
0
 40
0
 40
1
 40
1
 40
1
 40
1
 10
996.088481
 20
798.473270
 30
0.0
 10
994.334398
 20
799.485990
 30
0.0
 10
992.173277
 20
799.485990
 30
0.0
 10
990.419194
 20
798.473270
 30
0.0
  0
SPLINE
  5
21f
100
AcDbEntity
  8
02___PRT_ALL_AXES
 62
4
100
AcDbSpline
 70
8
 71
3
 72
8
 73
4
 74
0
 40
0
 40
0
 40
0
 40
0
 40
1
 40
1
 40
1
 40
1
 10
990.419194
 20
798.473270
 30
0.0
 10
988.665110
 20
797.460549
 30
0.0
 10
987.584550
 20
795.588964
 30
0.0
 10
987.584550
 20
793.563523
 30
0.0
  0
SPLINE
  5
220
100
AcDbEntity
  8
02___PRT_ALL_AXES
 62
4
100
AcDbSpline
 70
8
 71
3
 72
8
 73
4
 74
0
 40
0
 40
0
 40
0
 40
0
 40
1
 40
1
 40
1
 40
1
 10
987.584550
 20
793.563523
 30
0.0
 10
987.584550
 20
791.538081
 30
0.0
 10
988.665110
 20
789.666496
 30
0.0
 10
990.419194
 20
788.653776
 30
0.0
  0
SPLINE
  5
221
100
AcDbEntity
  8
02___PRT_ALL_AXES
 62
4
100
AcDbSpline
 70
8
 71
3
 72
8
 73
4
 74
0
 40
0
 40
0
 40
0
 40
0
 40
1
 40
1
 40
1
 40
1
 10
990.419194
 20
788.653776
 30
0.0
 10
992.173277
 20
787.641055
 30
0.0
 10
994.334398
 20
787.641055
 30
0.0
 10
996.088481
 20
788.653776
 30
0.0
  0
SPLINE
  5
222
100
AcDbEntity
  8
02___PRT_ALL_AXES
 62
4
100
AcDbSpline
 70
8
 71
3
 72
8
 73
4
 74
0
 40
0
 40
0
 40
0
 40
0
 40
1
 40
1
 40
1
 40
1
 10
996.088481
 20
788.653776
 30
0.0
 10
997.842565
 20
789.666496
 30
0.0
 10
998.923125
 20
791.538081
 30
0.0
 10
998.923125
 20
793.563523
 30
0.0
  0
LWPOLYLINE
  5
223
100
AcDbEntity
  8
02___PRT_ALL_AXES
 62
4
100
AcDbPolyline
 90
1
 70
1
 10
974.443125
 20
818.043523
 30
0.0
  0
SPLINE
  5
224
100
AcDbEntity
  8
02___PRT_ALL_AXES
 62
4
100
AcDbSpline
 70
8
 71
3
 72
8
 73
4
 74
0
 40
0
 40
0
 40
0
 40
0
 40
1
 40
1
 40
1
 40
1
 10
949.963125
 20
793.563523
 30
0.0
 10
949.963125
 20
795.588964
 30
0.0
 10
948.882565
 20
797.460549
 30
0.0
 10
947.128481
 20
798.473270
 30
0.0
  0
SPLINE
  5
225
100
AcDbEntity
  8
02___PRT_ALL_AXES
 62
4
100
AcDbSpline
 70
8
 71
3
 72
8
 73
4
 74
0
 40
0
 40
0
 40
0
 40
0
 40
1
 40
1
 40
1
 40
1
 10
947.128481
 20
798.473270
 30
0.0
 10
945.374398
 20
799.485990
 30
0.0
 10
943.213277
 20
799.485990
 30
0.0
 10
941.459194
 20
798.473270
 30
0.0
  0
SPLINE
  5
226
100
AcDbEntity
  8
02___PRT_ALL_AXES
 62
4
100
AcDbSpline
 70
8
 71
3
 72
8
 73
4
 74
0
 40
0
 40
0
 40
0
 40
0
 40
1
 40
1
 40
1
 40
1
 10
941.459194
 20
798.473270
 30
0.0
 10
939.705110
 20
797.460549
 30
0.0
 10
938.624550
 20
795.588964
 30
0.0
 10
938.624550
 20
793.563523
 30
0.0
  0
SPLINE
  5
227
100
AcDbEntity
  8
02___PRT_ALL_AXES
 62
4
100
AcDbSpline
 70
8
 71
3
 72
8
 73
4
 74
0
 40
0
 40
0
 40
0
 40
0
 40
1
 40
1
 40
1
 40
1
 10
938.624550
 20
793.563523
 30
0.0
 10
938.624550
 20
791.538081
 30
0.0
 10
939.705110
 20
789.666496
 30
0.0
 10
941.459194
 20
788.653776
 30
0.0
  0
SPLINE
  5
228
100
AcDbEntity
  8
02___PRT_ALL_AXES
 62
4
100
AcDbSpline
 70
8
 71
3
 72
8
 73
4
 74
0
 40
0
 40
0
 40
0
 40
0
 40
1
 40
1
 40
1
 40
1
 10
941.459194
 20
788.653776
 30
0.0
 10
943.213277
 20
787.641055
 30
0.0
 10
945.374398
 20
787.641055
 30
0.0
 10
947.128481
 20
788.653776
 30
0.0
  0
SPLINE
  5
229
100
AcDbEntity
  8
02___PRT_ALL_AXES
 62
4
100
AcDbSpline
 70
8
 71
3
 72
8
 73
4
 74
0
 40
0
 40
0
 40
0
 40
0
 40
1
 40
1
 40
1
 40
1
 10
947.128481
 20
788.653776
 30
0.0
 10
948.882565
 20
789.666496
 30
0.0
 10
949.963125
 20
791.538081
 30
0.0
 10
949.963125
 20
793.563523
 30
0.0
  0
LWPOLYLINE
  5
22a
100
AcDbEntity
  8
02___PRT_ALL_AXES
 62
4
100
AcDbPolyline
 90
1
 70
1
 10
998.923125
 20
793.563523
 30
0.0
  0
SPLINE
  5
22b
100
AcDbEntity
  8
02___PRT_ALL_AXES
 62
4
100
AcDbSpline
 70
8
 71
3
 72
8
 73
4
 74
0
 40
0
 40
0
 40
0
 40
0
 40
1
 40
1
 40
1
 40
1
 10
974.443125
 20
769.083523
 30
0.0
 10
974.443125
 20
771.108964
 30
0.0
 10
973.362565
 20
772.980550
 30
0.0
 10
971.608482
 20
773.993271
 30
0.0
  0
SPLINE
  5
22c
100
AcDbEntity
  8
02___PRT_ALL_AXES
 62
4
100
AcDbSpline
 70
8
 71
3
 72
8
 73
4
 74
0
 40
0
 40
0
 40
0
 40
0
 40
1
 40
1
 40
1
 40
1
 10
971.608482
 20
773.993271
 30
0.0
 10
969.854398
 20
775.005991
 30
0.0
 10
967.693277
 20
775.005991
 30
0.0
 10
965.939193
 20
773.993271
 30
0.0
  0
SPLINE
  5
22d
100
AcDbEntity
  8
02___PRT_ALL_AXES
 62
4
100
AcDbSpline
 70
8
 71
3
 72
8
 73
4
 74
0
 40
0
 40
0
 40
0
 40
0
 40
1
 40
1
 40
1
 40
1
 10
965.939193
 20
773.993271
 30
0.0
 10
964.185110
 20
772.980550
 30
0.0
 10
963.104550
 20
771.108964
 30
0.0
 10
963.104550
 20
769.083523
 30
0.0
  0
SPLINE
  5
22e
100
AcDbEntity
  8
02___PRT_ALL_AXES
 62
4
100
AcDbSpline
 70
8
 71
3
 72
8
 73
4
 74
0
 40
0
 40
0
 40
0
 40
0
 40
1
 40
1
 40
1
 40
1
 10
963.104550
 20
769.083523
 30
0.0
 10
963.104550
 20
767.058081
 30
0.0
 10
964.185110
 20
765.186496
 30
0.0
 10
965.939194
 20
764.173776
 30
0.0
  0
SPLINE
  5
22f
100
AcDbEntity
  8
02___PRT_ALL_AXES
 62
4
100
AcDbSpline
 70
8
 71
3
 72
8
 73
4
 74
0
 40
0
 40
0
 40
0
 40
0
 40
1
 40
1
 40
1
 40
1
 10
965.939194
 20
764.173776
 30
0.0
 10
967.693277
 20
763.161055
 30
0.0
 10
969.854398
 20
763.161055
 30
0.0
 10
971.608481
 20
764.173776
 30
0.0
  0
SPLINE
  5
230
100
AcDbEntity
  8
02___PRT_ALL_AXES
 62
4
100
AcDbSpline
 70
8
 71
3
 72
8
 73
4
 74
0
 40
0
 40
0
 40
0
 40
0
 40
1
 40
1
 40
1
 40
1
 10
971.608481
 20
764.173776
 30
0.0
 10
973.362565
 20
765.186496
 30
0.0
 10
974.443125
 20
767.058081
 30
0.0
 10
974.443125
 20
769.083523
 30
0.0
  0
LWPOLYLINE
  5
231
100
AcDbEntity
  8
02___PRT_ALL_AXES
 62
4
100
AcDbPolyline
 90
1
 70
1
 10
949.963125
 20
793.563523
 30
0.0
  0
LWPOLYLINE
  5
232
100
AcDbEntity
  8
02___PRT_ALL_AXES
 62
4
100
AcDbPolyline
 90
1
 70
1
 10
974.443125
 20
769.083523
 30
0.0
  0
ENDSEC
  0
SECTION
  2
OBJECTS
  0
DICTIONARY
  5
C
330
0
100
AcDbDictionary
  3
ACAD_GROUP
350
D
  3
ACAD_MLINESTYLE
350
17
  0
DICTIONARY
  5
D
330
C
100
AcDbDictionary
  0
DICTIONARY
  5
1A
330
C
100
AcDbDictionary
  0
DICTIONARY
  5
17
330
C
100
AcDbDictionary
  3
STANDARD
350
18
  0
DICTIONARY
  5
19
330
C
100
AcDbDictionary
  0
ENDSEC
  0
EOF
