<?xml version="1.0" encoding="UTF-8" standalone="no"?>
<svg
   xmlns:dc="http://purl.org/dc/elements/1.1/"
   xmlns:cc="http://creativecommons.org/ns#"
   xmlns:rdf="http://www.w3.org/1999/02/22-rdf-syntax-ns#"
   xmlns:svg="http://www.w3.org/2000/svg"
   xmlns="http://www.w3.org/2000/svg"
   xmlns:sodipodi="http://sodipodi.sourceforge.net/DTD/sodipodi-0.dtd"
   xmlns:inkscape="http://www.inkscape.org/namespaces/inkscape"
   width="16in"
   height="12in"
   version="1.1"
   id="svg4229"
   sodipodi:docname="drone-base.svg"
   inkscape:version="0.92.4 (5da689c313, 2019-01-14)">
  <metadata
     id="metadata4233">
    <rdf:RDF>
      <cc:Work
         rdf:about="">
        <dc:format>image/svg+xml</dc:format>
        <dc:type
           rdf:resource="http://purl.org/dc/dcmitype/StillImage" />
        <dc:title></dc:title>
      </cc:Work>
    </rdf:RDF>
  </metadata>
  <sodipodi:namedview
     pagecolor="#ffffff"
     bordercolor="#666666"
     borderopacity="1"
     objecttolerance="10"
     gridtolerance="10"
     guidetolerance="10"
     inkscape:pageopacity="0"
     inkscape:pageshadow="2"
     inkscape:window-width="1920"
     inkscape:window-height="1017"
     id="namedview4231"
     showgrid="false"
     units="in"
     inkscape:zoom="0.84096523"
     inkscape:cx="840.98598"
     inkscape:cy="478.89621"
     inkscape:window-x="-8"
     inkscape:window-y="-8"
     inkscape:window-maximized="1"
     inkscape:current-layer="g4141" />
  <desc
     id="desc3974">C:\Users\Mason Dettman\Documents\GitHub\Drone_Project\exports\drone-base.dxf - scale = 25.400000, origin = (0.000000, 0.000000), method = file</desc>
  <defs
     id="defs3989">
    <marker
       id="DistanceX"
       orient="auto"
       refX="0"
       refY="0"
       style="overflow:visible">
      <path
         d="M 3,-3 -3,3 M 0,-5 V 5"
         style="stroke:#000000;stroke-width:0.5"
         id="path3976"
         inkscape:connector-curvature="0" />
    </marker>
    <pattern
       height="8"
       id="Hatch"
       patternUnits="userSpaceOnUse"
       width="8"
       x="0"
       y="0">
      <path
         d="M8 4 l-4,4"
         linecap="square"
         stroke="#000000"
         stroke-width="0.25"
         id="path3979" />
      <path
         d="M6 2 l-4,4"
         linecap="square"
         stroke="#000000"
         stroke-width="0.25"
         id="path3981" />
      <path
         d="M4 0 l-4,4"
         linecap="square"
         stroke="#000000"
         stroke-width="0.25"
         id="path3983" />
    </pattern>
    <symbol
       id="*Model_Space" />
    <symbol
       id="*Paper_Space" />
    <symbol
       id="_FILLED" />
  </defs>
  <g
     inkscape:groupmode="layer"
     inkscape:label="0"
     id="g4141"
     transform="translate(0,29.480347)">
    <path
       d="M 997.03617,827.45051 H 636.32963"
       style="fill:none;stroke:#ff0000;stroke-linecap:round"
       id="path4003"
       inkscape:connector-curvature="0" />
    <path
       d="m 951.08287,779.45051 h -24"
       style="fill:none;stroke:#00ffff;stroke-linecap:round"
       id="path4005"
       inkscape:connector-curvature="0" />
    <path
       d="m 706.28287,779.45051 h -24"
       style="fill:none;stroke:#00ffff;stroke-linecap:round"
       id="path4007"
       inkscape:connector-curvature="0" />
    <path
       d="m 720.68287,769.85051 h 24"
       style="fill:none;stroke:#00ffff;stroke-linecap:round"
       id="path4009"
       inkscape:connector-curvature="0" />
    <path
       d="m 888.68287,769.85051 h 24"
       style="fill:none;stroke:#00ffff;stroke-linecap:round"
       id="path4011"
       inkscape:connector-curvature="0" />
    <path
       d="m 864.68287,743.93051 h -96"
       style="fill:none;stroke:#00ffff;stroke-linecap:round"
       id="path4013"
       inkscape:connector-curvature="0" />
    <path
       d="m 912.68287,741.05051 h -24"
       style="fill:none;stroke:#00ffff;stroke-linecap:round"
       id="path4015"
       inkscape:connector-curvature="0" />
    <path
       d="m 744.68287,741.05051 h -24"
       style="fill:none;stroke:#00ffff;stroke-linecap:round"
       id="path4017"
       inkscape:connector-curvature="0" />
    <path
       d="m 768.68287,719.93051 h 96"
       style="fill:none;stroke:#00ffff;stroke-linecap:round"
       id="path4019"
       inkscape:connector-curvature="0" />
    <path
       d="m 672.68287,503.09726 v 72.70649"
       style="fill:none;stroke:#ff0000;stroke-linecap:round"
       id="path4021"
       inkscape:connector-curvature="0" />
    <path
       d="m 682.28287,779.45051 v -96"
       style="fill:none;stroke:#00ffff;stroke-linecap:round"
       id="path4023"
       inkscape:connector-curvature="0" />
    <path
       d="m 682.28287,395.45051 v -96"
       style="fill:none;stroke:#00ffff;stroke-linecap:round"
       id="path4025"
       inkscape:connector-curvature="0" />
    <path
       d="m 689.48287,443.45051 v 48"
       style="fill:none;stroke:#00ffff;stroke-linecap:round"
       id="path4027"
       inkscape:connector-curvature="0" />
    <path
       d="m 689.48287,587.45051 v 48"
       style="fill:none;stroke:#00ffff;stroke-linecap:round"
       id="path4029"
       inkscape:connector-curvature="0" />
    <path
       d="m 706.28287,299.45051 v 96"
       style="fill:none;stroke:#00ffff;stroke-linecap:round"
       id="path4031"
       inkscape:connector-curvature="0" />
    <path
       d="m 706.28287,683.45051 v 96"
       style="fill:none;stroke:#00ffff;stroke-linecap:round"
       id="path4033"
       inkscape:connector-curvature="0" />
    <path
       d="m 713.48287,635.45051 v -48"
       style="fill:none;stroke:#00ffff;stroke-linecap:round"
       id="path4035"
       inkscape:connector-curvature="0" />
    <path
       d="m 713.48287,491.45051 v -48"
       style="fill:none;stroke:#00ffff;stroke-linecap:round"
       id="path4037"
       inkscape:connector-curvature="0" />
    <path
       d="m 720.68287,741.05051 v 28.8"
       style="fill:none;stroke:#00ffff;stroke-linecap:round"
       id="path4039"
       inkscape:connector-curvature="0" />
    <path
       d="m 682.28287,683.45051 h 24"
       style="fill:none;stroke:#00ffff;stroke-linecap:round"
       id="path4041"
       inkscape:connector-curvature="0" />
    <path
       d="m 927.08287,683.45051 h 24"
       style="fill:none;stroke:#00ffff;stroke-linecap:round"
       id="path4043"
       inkscape:connector-curvature="0" />
    <path
       d="m 689.48287,635.45051 h 24"
       style="fill:none;stroke:#00ffff;stroke-linecap:round"
       id="path4045"
       inkscape:connector-curvature="0" />
    <path
       d="m 919.73377,635.45051 h 24.1491"
       style="fill:none;stroke:#00ffff;stroke-linecap:round"
       id="path4047"
       inkscape:connector-curvature="0" />
    <path
       d="m 744.68287,769.85051 v -28.8"
       style="fill:none;stroke:#00ffff;stroke-linecap:round"
       id="path4049"
       inkscape:connector-curvature="0" />
    <path
       d="m 768.68287,743.93051 v -24"
       style="fill:none;stroke:#00ffff;stroke-linecap:round"
       id="path4051"
       inkscape:connector-curvature="0" />
    <path
       d="M 1232.4511,55.800092 1064.9184,223.33276"
       style="fill:none;stroke:#ff0000;stroke-linecap:round"
       id="path4053"
       inkscape:connector-curvature="0" />
    <path
       d="M 644.56512,643.68601 333.03246,955.21867"
       style="fill:none;stroke:#ff0000;stroke-linecap:round"
       id="path4055"
       inkscape:connector-curvature="0" />
    <path
       d="m 943.88287,587.45051 h -24.1491"
       style="fill:none;stroke:#00ffff;stroke-linecap:round"
       id="path4057"
       inkscape:connector-curvature="0" />
    <path
       d="m 713.48287,587.45051 h -24"
       style="fill:none;stroke:#00ffff;stroke-linecap:round"
       id="path4059"
       inkscape:connector-curvature="0" />
    <path
       d="M 333.03246,123.68234 644.56512,435.21501"
       style="fill:none;stroke:#ff0000;stroke-linecap:round"
       id="path4061"
       inkscape:connector-curvature="0" />
    <path
       d="m 1064.9184,855.56826 167.5327,167.53264"
       style="fill:none;stroke:#ff0000;stroke-linecap:round"
       id="path4063"
       inkscape:connector-curvature="0" />
    <path
       d="m 864.68287,719.93051 v 24"
       style="fill:none;stroke:#00ffff;stroke-linecap:round"
       id="path4065"
       inkscape:connector-curvature="0" />
    <path
       d="M 400.91471,1023.1009 568.44738,855.56826"
       style="fill:none;stroke:#ff0000;stroke-linecap:round"
       id="path4067"
       inkscape:connector-curvature="0" />
    <path
       d="M 988.80067,435.21501 1300.3333,123.68234"
       style="fill:none;stroke:#ff0000;stroke-linecap:round"
       id="path4069"
       inkscape:connector-curvature="0" />
    <path
       d="m 689.48287,491.45051 h 24"
       style="fill:none;stroke:#00ffff;stroke-linecap:round"
       id="path4071"
       inkscape:connector-curvature="0" />
    <path
       d="m 919.88287,491.45051 h 24"
       style="fill:none;stroke:#00ffff;stroke-linecap:round"
       id="path4073"
       inkscape:connector-curvature="0" />
    <path
       d="M 1300.3333,955.21867 988.80067,643.68601"
       style="fill:none;stroke:#ff0000;stroke-linecap:round"
       id="path4075"
       inkscape:connector-curvature="0" />
    <path
       d="M 568.44738,223.33276 400.91471,55.800092"
       style="fill:none;stroke:#ff0000;stroke-linecap:round"
       id="path4077"
       inkscape:connector-curvature="0" />
    <path
       d="m 888.68287,741.05051 v 28.8"
       style="fill:none;stroke:#00ffff;stroke-linecap:round"
       id="path4079"
       inkscape:connector-curvature="0" />
    <path
       d="m 912.68287,769.85051 v -28.8"
       style="fill:none;stroke:#00ffff;stroke-linecap:round"
       id="path4081"
       inkscape:connector-curvature="0" />
    <path
       d="m 919.73377,587.45051 v 48"
       style="fill:none;stroke:#00ffff;stroke-linecap:round"
       id="path4083"
       inkscape:connector-curvature="0" />
    <path
       d="m 919.88287,443.45051 v 48"
       style="fill:none;stroke:#00ffff;stroke-linecap:round"
       id="path4085"
       inkscape:connector-curvature="0" />
    <path
       d="m 943.88287,443.45051 h -24"
       style="fill:none;stroke:#00ffff;stroke-linecap:round"
       id="path4087"
       inkscape:connector-curvature="0" />
    <path
       d="m 713.48287,443.45051 h -24"
       style="fill:none;stroke:#00ffff;stroke-linecap:round"
       id="path4089"
       inkscape:connector-curvature="0" />
    <path
       d="m 927.08287,779.45051 v -96"
       style="fill:none;stroke:#00ffff;stroke-linecap:round"
       id="path4091"
       inkscape:connector-curvature="0" />
    <path
       d="m 927.08287,395.45051 v -96"
       style="fill:none;stroke:#00ffff;stroke-linecap:round"
       id="path4093"
       inkscape:connector-curvature="0" />
    <path
       d="m 943.88287,635.45051 v -48"
       style="fill:none;stroke:#00ffff;stroke-linecap:round"
       id="path4095"
       inkscape:connector-curvature="0" />
    <path
       d="m 943.88287,491.45051 v -48"
       style="fill:none;stroke:#00ffff;stroke-linecap:round"
       id="path4097"
       inkscape:connector-curvature="0" />
    <path
       d="m 951.08287,299.45051 v 96"
       style="fill:none;stroke:#00ffff;stroke-linecap:round"
       id="path4099"
       inkscape:connector-curvature="0" />
    <path
       d="m 951.08287,683.45051 v 96"
       style="fill:none;stroke:#00ffff;stroke-linecap:round"
       id="path4101"
       inkscape:connector-curvature="0" />
    <path
       d="M 960.68287,575.80375 V 503.09726"
       style="fill:none;stroke:#ff0000;stroke-linecap:round"
       id="path4103"
       inkscape:connector-curvature="0" />
    <path
       d="m 951.08287,395.45051 h -24"
       style="fill:none;stroke:#00ffff;stroke-linecap:round"
       id="path4105"
       inkscape:connector-curvature="0" />
    <path
       d="m 706.28287,395.45051 h -24"
       style="fill:none;stroke:#00ffff;stroke-linecap:round"
       id="path4107"
       inkscape:connector-curvature="0" />
    <path
       d="m 682.28287,299.45051 h 24"
       style="fill:none;stroke:#00ffff;stroke-linecap:round"
       id="path4109"
       inkscape:connector-curvature="0" />
    <path
       d="m 927.08287,299.45051 h 24"
       style="fill:none;stroke:#00ffff;stroke-linecap:round"
       id="path4111"
       inkscape:connector-curvature="0" />
    <path
       d="M 997.03617,251.45051 H 636.32963"
       style="fill:none;stroke:#ff0000;stroke-linecap:round"
       id="path4113"
       inkscape:connector-curvature="0" />
    <path
       d="m 636.32963,827.45051 a 96,96 0 0 0 -67.88225,28.11775"
       style="fill:none;stroke:#ff0000;stroke-linecap:round"
       id="path4115"
       inkscape:connector-curvature="0" />
    <path
       d="m 644.56512,643.68601 a 96,96 0 0 0 28.11775,-67.88226"
       style="fill:none;stroke:#ff0000;stroke-linecap:round"
       id="path4117"
       inkscape:connector-curvature="0" />
    <path
       d="m 333.03246,955.21867 a 59.873314,59.873314 0 1 0 67.88225,67.88223"
       style="fill:none;stroke:#ff0000;stroke-linecap:round"
       id="path4119"
       inkscape:connector-curvature="0" />
    <path
       d="M 400.91471,55.800092 A 59.873314,59.873314 0 1 0 333.03246,123.68234"
       style="fill:none;stroke:#ff0000;stroke-linecap:round"
       id="path4121"
       inkscape:connector-curvature="0" />
    <path
       d="M 672.68287,503.09726 A 96,96 0 0 0 644.56512,435.21501"
       style="fill:none;stroke:#ff0000;stroke-linecap:round"
       id="path4123"
       inkscape:connector-curvature="0" />
    <path
       d="m 568.44738,223.33276 a 96,96 0 0 0 67.88225,28.11775"
       style="fill:none;stroke:#ff0000;stroke-linecap:round"
       id="path4125"
       inkscape:connector-curvature="0" />
    <path
       d="M 1064.9184,855.56826 A 96,96 0 0 0 997.03617,827.45051"
       style="fill:none;stroke:#ff0000;stroke-linecap:round"
       id="path4127"
       inkscape:connector-curvature="0" />
    <path
       d="m 960.68287,575.80375 a 96,96 0 0 0 28.1178,67.88226"
       style="fill:none;stroke:#ff0000;stroke-linecap:round"
       id="path4129"
       inkscape:connector-curvature="0" />
    <path
       d="m 1232.4511,1023.1009 a 59.873314,59.873314 0 1 0 67.8822,-67.88223"
       style="fill:none;stroke:#ff0000;stroke-linecap:round"
       id="path4131"
       inkscape:connector-curvature="0" />
    <path
       d="m 828.68287,539.45051 a 12,12 0 1 0 -24,0 12,12 0 1 0 24,0 z"
       style="fill:none;stroke:#00ffff;stroke-linecap:round"
       id="path4133"
       inkscape:connector-curvature="0" />
    <path
       d="m 988.80067,435.21501 a 96,96 0 0 0 -28.1178,67.88225"
       style="fill:none;stroke:#ff0000;stroke-linecap:round"
       id="path4135"
       inkscape:connector-curvature="0" />
    <path
       d="m 997.03617,251.45051 a 96,96 0 0 0 67.88223,-28.11775"
       style="fill:none;stroke:#ff0000;stroke-linecap:round"
       id="path4137"
       inkscape:connector-curvature="0" />
    <path
       d="M 1300.3333,123.68234 A 59.873314,59.873314 0 1 0 1232.4511,55.800092"
       style="fill:none;stroke:#ff0000;stroke-linecap:round"
       id="path4139"
       inkscape:connector-curvature="0" />
  </g>
  <g
     inkscape:groupmode="layer"
     inkscape:label="DEFAULT_1"
     id="g4143"
     transform="translate(0,29.480347)" />
  <g
     inkscape:groupmode="layer"
     inkscape:label="DEFAULT_2"
     id="g4145"
     transform="translate(0,29.480347)" />
  <g
     inkscape:groupmode="layer"
     inkscape:label="DEFAULT_3"
     id="g4147"
     transform="translate(0,29.480347)" />
  <g
     inkscape:groupmode="layer"
     inkscape:label="01___PRT_ALL_DTM_PLN"
     id="g4149"
     transform="translate(0,29.480347)" />
  <g
     inkscape:groupmode="layer"
     inkscape:label="01___PRT_DEF_DTM_PLN"
     id="g4151"
     transform="translate(0,29.480347)" />
  <g
     inkscape:groupmode="layer"
     inkscape:label="02___PRT_ALL_AXES"
     id="g4217"
     transform="translate(0,29.480347)">
    <path
       d="m 353.66732,1014.4661 a 12,12 0 1 0 -24,0 12,12 0 1 0 24,0 z"
       style="fill:none;stroke:#00ffff;stroke-linecap:round"
       id="path4153"
       inkscape:connector-curvature="0" />
    <path
       d="m 446.76347,891.81701 a 9.6,9.6 0 1 0 -19.2,0 9.6,9.6 0 1 0 19.2,0 z"
       style="fill:none;stroke:#00ffff;stroke-linecap:round"
       id="path4155"
       inkscape:connector-curvature="0" />
    <path
       d="m 473.91637,918.96992 a 9.6,9.6 0 1 0 -19.2,0 9.6,9.6 0 1 0 19.2,0 z"
       style="fill:none;stroke:#00ffff;stroke-linecap:round"
       id="path4157"
       inkscape:connector-curvature="0" />
    <path
       d="m 349.22636,981.82606 a 7.55904,7.55904 0 1 0 -15.11808,0 7.55904,7.55904 0 1 0 15.11808,0 z"
       style="fill:none;stroke:#00ffff;stroke-linecap:round"
       id="path4159"
       inkscape:connector-curvature="0" />
    <path
       d="m 316.58636,1014.4661 a 7.55904,7.55904 0 1 0 -15.11808,0 7.55904,7.55904 0 1 0 15.11808,0 z"
       style="fill:none;stroke:#00ffff;stroke-linecap:round"
       id="path4161"
       inkscape:connector-curvature="0" />
    <path
       d="m 381.86636,1014.4661 a 7.55904,7.55904 0 1 0 -15.11808,0 7.55904,7.55904 0 1 0 15.11808,0 z"
       style="fill:none;stroke:#00ffff;stroke-linecap:round"
       id="path4163"
       inkscape:connector-curvature="0" />
    <path
       d="m 349.22636,1047.1061 a 7.55904,7.55904 0 1 0 -15.11808,0 7.55904,7.55904 0 1 0 15.11808,0 z"
       style="fill:none;stroke:#00ffff;stroke-linecap:round"
       id="path4165"
       inkscape:connector-curvature="0" />
    <path
       d="m 353.66732,64.406696 a 12,12 0 1 0 -24,0 12,12 0 1 0 24,0 z"
       style="fill:none;stroke:#00ffff;stroke-linecap:round"
       id="path4167"
       inkscape:connector-curvature="0" />
    <path
       d="m 473.91637,159.9311 a 9.6,9.6 0 1 0 -19.2,0 9.6,9.6 0 1 0 19.2,0 z"
       style="fill:none;stroke:#00ffff;stroke-linecap:round"
       id="path4169"
       inkscape:connector-curvature="0" />
    <path
       d="m 446.76347,187.084 a 9.6,9.6 0 1 0 -19.2,0 9.6,9.6 0 1 0 19.2,0 z"
       style="fill:none;stroke:#00ffff;stroke-linecap:round"
       id="path4171"
       inkscape:connector-curvature="0" />
    <path
       d="m 349.22636,31.766696 a 7.55904,7.55904 0 1 0 -15.11808,0 7.55904,7.55904 0 1 0 15.11808,0 z"
       style="fill:none;stroke:#00ffff;stroke-linecap:round"
       id="path4173"
       inkscape:connector-curvature="0" />
    <path
       d="m 381.86636,64.406696 a 7.55904,7.55904 0 1 0 -15.11808,0 7.55904,7.55904 0 1 0 15.11808,0 z"
       style="fill:none;stroke:#00ffff;stroke-linecap:round"
       id="path4175"
       inkscape:connector-curvature="0" />
    <path
       d="m 316.58636,64.406696 a 7.55904,7.55904 0 1 0 -15.11808,0 7.55904,7.55904 0 1 0 15.11808,0 z"
       style="fill:none;stroke:#00ffff;stroke-linecap:round"
       id="path4177"
       inkscape:connector-curvature="0" />
    <path
       d="m 349.22636,96.990176 a 7.55904,7.55904 0 1 0 -15.11808,0 7.55904,7.55904 0 1 0 15.11808,0 z"
       style="fill:none;stroke:#00ffff;stroke-linecap:round"
       id="path4179"
       inkscape:connector-curvature="0" />
    <path
       d="m 765.57535,306.63161 a 6.912,6.912 0 1 0 -13.824,0 6.912,6.912 0 1 0 13.824,0 z"
       style="fill:none;stroke:#00ffff;stroke-linecap:round"
       id="path4181"
       inkscape:connector-curvature="0" />
    <path
       d="m 765.57535,421.9072 a 6.912,6.912 0 1 0 -13.824,0 6.912,6.912 0 1 0 13.824,0 z"
       style="fill:none;stroke:#00ffff;stroke-linecap:round"
       id="path4183"
       inkscape:connector-curvature="0" />
    <path
       d="m 1303.6985,1014.4661 a 12,12 0 1 0 -24,0 12,12 0 1 0 24,0 z"
       style="fill:none;stroke:#00ffff;stroke-linecap:round"
       id="path4185"
       inkscape:connector-curvature="0" />
    <path
       d="m 1178.6494,918.96992 a 9.6,9.6 0 1 0 -19.2,0 9.6,9.6 0 1 0 19.2,0 z"
       style="fill:none;stroke:#00ffff;stroke-linecap:round"
       id="path4187"
       inkscape:connector-curvature="0" />
    <path
       d="m 1205.8023,891.81701 a 9.6,9.6 0 1 0 -19.2,0 9.6,9.6 0 1 0 19.2,0 z"
       style="fill:none;stroke:#00ffff;stroke-linecap:round"
       id="path4189"
       inkscape:connector-curvature="0" />
    <path
       d="m 1299.2575,981.82606 a 7.55905,7.55905 0 1 0 -15.1181,0 7.55905,7.55905 0 1 0 15.1181,0 z"
       style="fill:none;stroke:#00ffff;stroke-linecap:round"
       id="path4191"
       inkscape:connector-curvature="0" />
    <path
       d="m 1331.8975,1014.4661 a 7.55905,7.55905 0 1 0 -15.1181,0 7.55905,7.55905 0 1 0 15.1181,0 z"
       style="fill:none;stroke:#00ffff;stroke-linecap:round"
       id="path4193"
       inkscape:connector-curvature="0" />
    <path
       d="m 1299.2575,1047.1061 a 7.55905,7.55905 0 1 0 -15.1181,0 7.55905,7.55905 0 1 0 15.1181,0 z"
       style="fill:none;stroke:#00ffff;stroke-linecap:round"
       id="path4195"
       inkscape:connector-curvature="0" />
    <path
       d="m 1266.6175,1014.4661 a 7.55905,7.55905 0 1 0 -15.1181,0 7.55905,7.55905 0 1 0 15.1181,0 z"
       style="fill:none;stroke:#00ffff;stroke-linecap:round"
       id="path4197"
       inkscape:connector-curvature="0" />
    <path
       d="m 880.85097,306.63161 a 6.912,6.912 0 1 0 -13.824,0 6.912,6.912 0 1 0 13.824,0 z"
       style="fill:none;stroke:#00ffff;stroke-linecap:round"
       id="path4199"
       inkscape:connector-curvature="0" />
    <path
       d="m 880.85097,421.9072 a 6.912,6.912 0 1 0 -13.824,0 6.912,6.912 0 1 0 13.824,0 z"
       style="fill:none;stroke:#00ffff;stroke-linecap:round"
       id="path4201"
       inkscape:connector-curvature="0" />
    <path
       d="m 1303.6985,64.434956 a 12,12 0 1 0 -24,0 12,12 0 1 0 24,0 z"
       style="fill:none;stroke:#00ffff;stroke-linecap:round"
       id="path4203"
       inkscape:connector-curvature="0" />
    <path
       d="m 1205.8023,187.084 a 9.6,9.6 0 1 0 -19.2,0 9.6,9.6 0 1 0 19.2,0 z"
       style="fill:none;stroke:#00ffff;stroke-linecap:round"
       id="path4205"
       inkscape:connector-curvature="0" />
    <path
       d="m 1178.6494,159.9311 a 9.6,9.6 0 1 0 -19.2,0 9.6,9.6 0 1 0 19.2,0 z"
       style="fill:none;stroke:#00ffff;stroke-linecap:round"
       id="path4207"
       inkscape:connector-curvature="0" />
    <path
       d="m 1299.2575,31.794956 a 7.55905,7.55905 0 1 0 -15.1181,0 7.55905,7.55905 0 1 0 15.1181,0 z"
       style="fill:none;stroke:#00ffff;stroke-linecap:round"
       id="path4209"
       inkscape:connector-curvature="0" />
    <path
       d="m 1331.8975,64.434956 a 7.55905,7.55905 0 1 0 -15.1181,0 7.55905,7.55905 0 1 0 15.1181,0 z"
       style="fill:none;stroke:#00ffff;stroke-linecap:round"
       id="path4211"
       inkscape:connector-curvature="0" />
    <path
       d="m 1266.6175,64.434956 a 7.55905,7.55905 0 1 0 -15.1181,0 7.55905,7.55905 0 1 0 15.1181,0 z"
       style="fill:none;stroke:#00ffff;stroke-linecap:round"
       id="path4213"
       inkscape:connector-curvature="0" />
    <path
       d="m 1299.2575,97.074956 a 7.55905,7.55905 0 1 0 -15.1181,0 7.55905,7.55905 0 1 0 15.1181,0 z"
       style="fill:none;stroke:#00ffff;stroke-linecap:round"
       id="path4215"
       inkscape:connector-curvature="0" />
  </g>
  <g
     inkscape:groupmode="layer"
     inkscape:label="03___PRT_ALL_CURVES"
     id="g4219"
     transform="translate(0,29.480347)" />
  <g
     inkscape:groupmode="layer"
     inkscape:label="04___PRT_ALL_DTM_PNT"
     id="g4221"
     transform="translate(0,29.480347)" />
  <g
     inkscape:groupmode="layer"
     inkscape:label="05___PRT_ALL_DTM_CSYS"
     id="g4223"
     transform="translate(0,29.480347)" />
  <g
     inkscape:groupmode="layer"
     inkscape:label="05___PRT_DEF_DTM_CSYS"
     id="g4225"
     transform="translate(0,29.480347)" />
  <g
     inkscape:groupmode="layer"
     inkscape:label="06___PRT_ALL_SURFS"
     id="g4227"
     transform="translate(0,29.480347)" />
</svg>
